<?xml version="1.0" encoding="UTF-8" standalone="no"?>
<!DOCTYPE svg PUBLIC "-//W3C//DTD SVG 1.1//EN"
 "http://www.w3.org/Graphics/SVG/1.1/DTD/svg11.dtd">
<!-- Generated by graphviz version 2.43.0 (0)
 -->
<!-- Title: row_prefix_sum Pages: 1 -->
<svg width="250pt" height="137pt"
 viewBox="0.00 0.00 250.00 137.00" xmlns="http://www.w3.org/2000/svg" xmlns:xlink="http://www.w3.org/1999/xlink">
<g id="graph0" class="graph" transform="scale(1 1) rotate(0) translate(4 133)">
<title>row_prefix_sum</title>
<polygon fill="white" stroke="transparent" points="-4,4 -4,-133 246,-133 246,4 -4,4"/>
<!-- Node1 -->
<g id="node1" class="node">
<title>Node1</title>
<g id="a_node1"><a xlink:title="CUDA kernel for computing row&#45;wise prefix sum (integral image)">
<polygon fill="#bfbfbf" stroke="black" points="0,-55 0,-74 94,-74 94,-55 0,-55"/>
<text text-anchor="middle" x="47" y="-62" font-family="Helvetica,sans-Serif" font-size="10.00">row_prefix_sum</text>
</a>
</g>
</g>
<!-- Node2 -->
<g id="node2" class="node">
<title>Node2</title>
<g id="a_node2"><a xlink:href="classdevice__view_1_1View.html#acc975b14c705590b4363be6aaeb91d74" target="_top" xlink:title="Get pixel color at specified coordinates (no bounds checking)">
<polygon fill="white" stroke="black" points="130,-98.5 130,-128.5 242,-128.5 242,-98.5 130,-98.5"/>
<text text-anchor="start" x="138" y="-116.5" font-family="Helvetica,sans-Serif" font-size="10.00">device_view::View::</text>
<text text-anchor="middle" x="186" y="-105.5" font-family="Helvetica,sans-Serif" font-size="10.00">get_pixel</text>
</a>
</g>
</g>
<!-- Node1&#45;&gt;Node2 -->
<g id="edge1" class="edge">
<title>Node1&#45;&gt;Node2</title>
<path fill="none" stroke="midnightblue" d="M74.74,-74.06C91.4,-80.02 113.4,-87.89 133.36,-95.03"/>
<polygon fill="midnightblue" stroke="midnightblue" points="132.36,-98.39 142.96,-98.46 134.72,-91.8 132.36,-98.39"/>
</g>
<!-- Node3 -->
<g id="node3" class="node">
<title>Node3</title>
<g id="a_node3"><a xlink:href="classdevice__view_1_1View.html#a499e9c9d21980d9a28d5327a1f33b913" target="_top" xlink:title="Get image width.">
<polygon fill="white" stroke="black" points="130,-49.5 130,-79.5 242,-79.5 242,-49.5 130,-49.5"/>
<text text-anchor="start" x="138" y="-67.5" font-family="Helvetica,sans-Serif" font-size="10.00">device_view::View::</text>
<text text-anchor="middle" x="186" y="-56.5" font-family="Helvetica,sans-Serif" font-size="10.00">get_width</text>
</a>
</g>
</g>
<!-- Node1&#45;&gt;Node3 -->
<g id="edge2" class="edge">
<title>Node1&#45;&gt;Node3</title>
<path fill="none" stroke="midnightblue" d="M94,-64.5C102.27,-64.5 111.03,-64.5 119.72,-64.5"/>
<polygon fill="midnightblue" stroke="midnightblue" points="119.86,-68 129.86,-64.5 119.86,-61 119.86,-68"/>
</g>
<!-- Node4 -->
<g id="node4" class="node">
<title>Node4</title>
<g id="a_node4"><a xlink:href="classdevice__view_1_1View.html#ad71c34006984accf7ceb986a43983b5f" target="_top" xlink:title="Set pixel color at specified coordinates.">
<polygon fill="white" stroke="black" points="130,-0.5 130,-30.5 242,-30.5 242,-0.5 130,-0.5"/>
<text text-anchor="start" x="138" y="-18.5" font-family="Helvetica,sans-Serif" font-size="10.00">device_view::View::</text>
<text text-anchor="middle" x="186" y="-7.5" font-family="Helvetica,sans-Serif" font-size="10.00">set_pixel</text>
</a>
</g>
</g>
<!-- Node1&#45;&gt;Node4 -->
<g id="edge3" class="edge">
<title>Node1&#45;&gt;Node4</title>
<path fill="none" stroke="midnightblue" d="M74.74,-54.94C91.4,-48.98 113.4,-41.11 133.36,-33.97"/>
<polygon fill="midnightblue" stroke="midnightblue" points="134.72,-37.2 142.96,-30.54 132.36,-30.61 134.72,-37.2"/>
</g>
</g>
</svg>
