<?xml version="1.0" encoding="UTF-8" standalone="no"?>
<!DOCTYPE svg PUBLIC "-//W3C//DTD SVG 1.1//EN"
 "http://www.w3.org/Graphics/SVG/1.1/DTD/svg11.dtd">
<!-- Generated by graphviz version 2.43.0 (0)
 -->
<!-- Title: col_prefix_sum Pages: 1 -->
<svg width="246pt" height="137pt"
 viewBox="0.00 0.00 246.00 137.00" xmlns="http://www.w3.org/2000/svg" xmlns:xlink="http://www.w3.org/1999/xlink">
<g id="graph0" class="graph" transform="scale(1 1) rotate(0) translate(4 133)">
<title>col_prefix_sum</title>
<polygon fill="white" stroke="transparent" points="-4,4 -4,-133 242,-133 242,4 -4,4"/>
<!-- Node1 -->
<g id="node1" class="node">
<title>Node1</title>
<g id="a_node1"><a xlink:title="CUDA kernel for computing column&#45;wise prefix sum (integral image)">
<polygon fill="#bfbfbf" stroke="black" points="0,-55 0,-74 90,-74 90,-55 0,-55"/>
<text text-anchor="middle" x="45" y="-62" font-family="Helvetica,sans-Serif" font-size="10.00">col_prefix_sum</text>
</a>
</g>
</g>
<!-- Node2 -->
<g id="node2" class="node">
<title>Node2</title>
<g id="a_node2"><a xlink:href="classdevice__view_1_1View.html#a9c7e4ca344806f60324e417bbf516250" target="_top" xlink:title="Get image height.">
<polygon fill="white" stroke="black" points="126,-98.5 126,-128.5 238,-128.5 238,-98.5 126,-98.5"/>
<text text-anchor="start" x="134" y="-116.5" font-family="Helvetica,sans-Serif" font-size="10.00">device_view::View::</text>
<text text-anchor="middle" x="182" y="-105.5" font-family="Helvetica,sans-Serif" font-size="10.00">get_height</text>
</a>
</g>
</g>
<!-- Node1&#45;&gt;Node2 -->
<g id="edge1" class="edge">
<title>Node1&#45;&gt;Node2</title>
<path fill="none" stroke="midnightblue" d="M72.35,-74.06C88.77,-80.02 110.44,-87.89 130.11,-95.03"/>
<polygon fill="midnightblue" stroke="midnightblue" points="128.98,-98.34 139.57,-98.46 131.37,-91.76 128.98,-98.34"/>
</g>
<!-- Node3 -->
<g id="node3" class="node">
<title>Node3</title>
<g id="a_node3"><a xlink:href="classdevice__view_1_1View.html#acc975b14c705590b4363be6aaeb91d74" target="_top" xlink:title="Get pixel color at specified coordinates (no bounds checking)">
<polygon fill="white" stroke="black" points="126,-49.5 126,-79.5 238,-79.5 238,-49.5 126,-49.5"/>
<text text-anchor="start" x="134" y="-67.5" font-family="Helvetica,sans-Serif" font-size="10.00">device_view::View::</text>
<text text-anchor="middle" x="182" y="-56.5" font-family="Helvetica,sans-Serif" font-size="10.00">get_pixel</text>
</a>
</g>
</g>
<!-- Node1&#45;&gt;Node3 -->
<g id="edge2" class="edge">
<title>Node1&#45;&gt;Node3</title>
<path fill="none" stroke="midnightblue" d="M90.2,-64.5C98.38,-64.5 107.08,-64.5 115.74,-64.5"/>
<polygon fill="midnightblue" stroke="midnightblue" points="115.83,-68 125.83,-64.5 115.83,-61 115.83,-68"/>
</g>
<!-- Node4 -->
<g id="node4" class="node">
<title>Node4</title>
<g id="a_node4"><a xlink:href="classdevice__view_1_1View.html#ad71c34006984accf7ceb986a43983b5f" target="_top" xlink:title="Set pixel color at specified coordinates.">
<polygon fill="white" stroke="black" points="126,-0.5 126,-30.5 238,-30.5 238,-0.5 126,-0.5"/>
<text text-anchor="start" x="134" y="-18.5" font-family="Helvetica,sans-Serif" font-size="10.00">device_view::View::</text>
<text text-anchor="middle" x="182" y="-7.5" font-family="Helvetica,sans-Serif" font-size="10.00">set_pixel</text>
</a>
</g>
</g>
<!-- Node1&#45;&gt;Node4 -->
<g id="edge3" class="edge">
<title>Node1&#45;&gt;Node4</title>
<path fill="none" stroke="midnightblue" d="M72.35,-54.94C88.77,-48.98 110.44,-41.11 130.11,-33.97"/>
<polygon fill="midnightblue" stroke="midnightblue" points="131.37,-37.24 139.57,-30.54 128.98,-30.66 131.37,-37.24"/>
</g>
</g>
</svg>
