<?xml version="1.0" encoding="UTF-8" standalone="no"?>
<!DOCTYPE svg PUBLIC "-//W3C//DTD SVG 1.1//EN"
 "http://www.w3.org/Graphics/SVG/1.1/DTD/svg11.dtd">
<!-- Generated by graphviz version 2.43.0 (0)
 -->
<!-- Title: src/algos.cu Pages: 1 -->
<svg width="387pt" height="252pt"
 viewBox="0.00 0.00 386.89 252.00" xmlns="http://www.w3.org/2000/svg" xmlns:xlink="http://www.w3.org/1999/xlink">
<g id="graph0" class="graph" transform="scale(1 1) rotate(0) translate(4 248)">
<title>src/algos.cu</title>
<polygon fill="white" stroke="transparent" points="-4,4 -4,-248 382.89,-248 382.89,4 -4,4"/>
<!-- Node1 -->
<g id="node1" class="node">
<title>Node1</title>
<g id="a_node1"><a xlink:title=" ">
<polygon fill="#bfbfbf" stroke="black" points="80.39,-224.5 80.39,-243.5 154.39,-243.5 154.39,-224.5 80.39,-224.5"/>
<text text-anchor="middle" x="117.39" y="-231.5" font-family="Helvetica,sans-Serif" font-size="10.00">src/algos.cu</text>
</a>
</g>
</g>
<!-- Node2 -->
<g id="node2" class="node">
<title>Node2</title>
<g id="a_node2"><a xlink:href="Pixel_8cuh.html" target="_top" xlink:title="Wrapper class for pixels of different color formats.">
<polygon fill="white" stroke="black" points="36.39,-56.5 36.39,-75.5 96.39,-75.5 96.39,-56.5 36.39,-56.5"/>
<text text-anchor="middle" x="66.39" y="-63.5" font-family="Helvetica,sans-Serif" font-size="10.00">Pixel.cuh</text>
</a>
</g>
</g>
<!-- Node1&#45;&gt;Node2 -->
<g id="edge1" class="edge">
<title>Node1&#45;&gt;Node2</title>
<path fill="none" stroke="midnightblue" d="M80.25,-226.11C58.09,-219.98 31.41,-208.64 16.39,-188 -3.55,-160.61 -4.26,-142.55 10.39,-112 16.64,-98.95 28.72,-88.49 40.07,-80.95"/>
<polygon fill="midnightblue" stroke="midnightblue" points="42.2,-83.75 48.89,-75.54 38.53,-77.79 42.2,-83.75"/>
</g>
<!-- Node4 -->
<g id="node4" class="node">
<title>Node4</title>
<g id="a_node4"><a xlink:href="algos_8cuh.html" target="_top" xlink:title="CUDA kernel declarations for image processing algorithms.">
<polygon fill="white" stroke="black" points="25.89,-168.5 25.89,-187.5 88.89,-187.5 88.89,-168.5 25.89,-168.5"/>
<text text-anchor="middle" x="57.39" y="-175.5" font-family="Helvetica,sans-Serif" font-size="10.00">algos.cuh</text>
</a>
</g>
</g>
<!-- Node1&#45;&gt;Node4 -->
<g id="edge3" class="edge">
<title>Node1&#45;&gt;Node4</title>
<path fill="none" stroke="midnightblue" d="M107.75,-224.32C98.88,-216.34 85.51,-204.31 74.78,-194.65"/>
<polygon fill="midnightblue" stroke="midnightblue" points="76.98,-191.92 67.2,-187.83 72.3,-197.13 76.98,-191.92"/>
</g>
<!-- Node5 -->
<g id="node5" class="node">
<title>Node5</title>
<g id="a_node5"><a xlink:href="View_8cuh.html" target="_top" xlink:title="Device&#45;side view interface for image processing kernels.">
<polygon fill="white" stroke="black" points="19.39,-112.5 19.39,-131.5 113.39,-131.5 113.39,-112.5 19.39,-112.5"/>
<text text-anchor="middle" x="66.39" y="-119.5" font-family="Helvetica,sans-Serif" font-size="10.00">image/View.cuh</text>
</a>
</g>
</g>
<!-- Node1&#45;&gt;Node5 -->
<g id="edge12" class="edge">
<title>Node1&#45;&gt;Node5</title>
<path fill="none" stroke="midnightblue" d="M115.6,-224.27C112.77,-211.49 106.65,-187.13 97.39,-168 92.59,-158.09 85.77,-147.92 79.75,-139.76"/>
<polygon fill="midnightblue" stroke="midnightblue" points="82.52,-137.62 73.67,-131.8 76.96,-141.87 82.52,-137.62"/>
</g>
<!-- Node6 -->
<g id="node6" class="node">
<title>Node6</title>
<g id="a_node6"><a xlink:href="Image_8cuh.html" target="_top" xlink:title="Image processing classes for CUDA&#45;based operations.">
<polygon fill="white" stroke="black" points="145.89,-168.5 145.89,-187.5 246.89,-187.5 246.89,-168.5 145.89,-168.5"/>
<text text-anchor="middle" x="196.39" y="-175.5" font-family="Helvetica,sans-Serif" font-size="10.00">image/Image.cuh</text>
</a>
</g>
</g>
<!-- Node1&#45;&gt;Node6 -->
<g id="edge6" class="edge">
<title>Node1&#45;&gt;Node6</title>
<path fill="none" stroke="midnightblue" d="M130.08,-224.32C142.29,-215.98 160.97,-203.21 175.39,-193.35"/>
<polygon fill="midnightblue" stroke="midnightblue" points="177.45,-196.19 183.73,-187.65 173.5,-190.41 177.45,-196.19"/>
</g>
<!-- Node10 -->
<g id="node10" class="node">
<title>Node10</title>
<g id="a_node10"><a xlink:title=" ">
<polygon fill="white" stroke="#bfbfbf" points="265.39,-168.5 265.39,-187.5 357.39,-187.5 357.39,-168.5 265.39,-168.5"/>
<text text-anchor="middle" x="311.39" y="-175.5" font-family="Helvetica,sans-Serif" font-size="10.00">cuda_runtime.h</text>
</a>
</g>
</g>
<!-- Node1&#45;&gt;Node10 -->
<g id="edge13" class="edge">
<title>Node1&#45;&gt;Node10</title>
<path fill="none" stroke="midnightblue" d="M148.13,-224.44C181.33,-215.2 234.38,-200.44 270.95,-190.26"/>
<polygon fill="midnightblue" stroke="midnightblue" points="272.1,-193.57 280.79,-187.52 270.22,-186.83 272.1,-193.57"/>
</g>
<!-- Node3 -->
<g id="node3" class="node">
<title>Node3</title>
<g id="a_node3"><a xlink:title=" ">
<polygon fill="white" stroke="#bfbfbf" points="41.39,-0.5 41.39,-19.5 91.39,-19.5 91.39,-0.5 41.39,-0.5"/>
<text text-anchor="middle" x="66.39" y="-7.5" font-family="Helvetica,sans-Serif" font-size="10.00">stdio.h</text>
</a>
</g>
</g>
<!-- Node2&#45;&gt;Node3 -->
<g id="edge2" class="edge">
<title>Node2&#45;&gt;Node3</title>
<path fill="none" stroke="midnightblue" d="M66.39,-56.08C66.39,-49.01 66.39,-38.86 66.39,-29.99"/>
<polygon fill="midnightblue" stroke="midnightblue" points="69.89,-29.75 66.39,-19.75 62.89,-29.75 69.89,-29.75"/>
</g>
<!-- Node4&#45;&gt;Node5 -->
<g id="edge4" class="edge">
<title>Node4&#45;&gt;Node5</title>
<path fill="none" stroke="midnightblue" d="M58.87,-168.08C60.07,-160.93 61.78,-150.64 63.27,-141.69"/>
<polygon fill="midnightblue" stroke="midnightblue" points="66.74,-142.19 64.93,-131.75 59.83,-141.04 66.74,-142.19"/>
</g>
<!-- Node5&#45;&gt;Node2 -->
<g id="edge5" class="edge">
<title>Node5&#45;&gt;Node2</title>
<path fill="none" stroke="midnightblue" d="M66.39,-112.08C66.39,-105.01 66.39,-94.86 66.39,-85.99"/>
<polygon fill="midnightblue" stroke="midnightblue" points="69.89,-85.75 66.39,-75.75 62.89,-85.75 69.89,-85.75"/>
</g>
<!-- Node6&#45;&gt;Node2 -->
<g id="edge10" class="edge">
<title>Node6&#45;&gt;Node2</title>
<path fill="none" stroke="midnightblue" d="M186.93,-168.45C172.96,-155.89 145.95,-131.8 122.39,-112 110.33,-101.87 96.55,-90.79 85.67,-82.15"/>
<polygon fill="midnightblue" stroke="midnightblue" points="87.68,-79.28 77.66,-75.82 83.34,-84.77 87.68,-79.28"/>
</g>
<!-- Node6&#45;&gt;Node5 -->
<g id="edge11" class="edge">
<title>Node6&#45;&gt;Node5</title>
<path fill="none" stroke="midnightblue" d="M175.79,-168.44C154.39,-159.56 120.71,-145.56 96.36,-135.45"/>
<polygon fill="midnightblue" stroke="midnightblue" points="97.47,-132.12 86.89,-131.52 94.78,-138.58 97.47,-132.12"/>
</g>
<!-- Node7 -->
<g id="node7" class="node">
<title>Node7</title>
<g id="a_node7"><a xlink:title=" ">
<polygon fill="white" stroke="#bfbfbf" points="169.39,-112.5 169.39,-131.5 237.39,-131.5 237.39,-112.5 169.39,-112.5"/>
<text text-anchor="middle" x="203.39" y="-119.5" font-family="Helvetica,sans-Serif" font-size="10.00">filesystem</text>
</a>
</g>
</g>
<!-- Node6&#45;&gt;Node7 -->
<g id="edge7" class="edge">
<title>Node6&#45;&gt;Node7</title>
<path fill="none" stroke="midnightblue" d="M197.54,-168.08C198.47,-160.93 199.81,-150.64 200.97,-141.69"/>
<polygon fill="midnightblue" stroke="midnightblue" points="204.44,-142.12 202.25,-131.75 197.5,-141.22 204.44,-142.12"/>
</g>
<!-- Node8 -->
<g id="node8" class="node">
<title>Node8</title>
<g id="a_node8"><a xlink:title=" ">
<polygon fill="white" stroke="#bfbfbf" points="255.39,-112.5 255.39,-131.5 313.39,-131.5 313.39,-112.5 255.39,-112.5"/>
<text text-anchor="middle" x="284.39" y="-119.5" font-family="Helvetica,sans-Serif" font-size="10.00">memory</text>
</a>
</g>
</g>
<!-- Node6&#45;&gt;Node8 -->
<g id="edge8" class="edge">
<title>Node6&#45;&gt;Node8</title>
<path fill="none" stroke="midnightblue" d="M210.53,-168.32C224.25,-159.9 245.32,-146.97 261.45,-137.07"/>
<polygon fill="midnightblue" stroke="midnightblue" points="263.59,-139.87 270.28,-131.65 259.93,-133.9 263.59,-139.87"/>
</g>
<!-- Node9 -->
<g id="node9" class="node">
<title>Node9</title>
<g id="a_node9"><a xlink:title=" ">
<polygon fill="white" stroke="#bfbfbf" points="331.89,-112.5 331.89,-131.5 378.89,-131.5 378.89,-112.5 331.89,-112.5"/>
<text text-anchor="middle" x="355.39" y="-119.5" font-family="Helvetica,sans-Serif" font-size="10.00">vector</text>
</a>
</g>
</g>
<!-- Node6&#45;&gt;Node9 -->
<g id="edge9" class="edge">
<title>Node6&#45;&gt;Node9</title>
<path fill="none" stroke="midnightblue" d="M221.58,-168.44C248.8,-159.2 292.29,-144.43 322.26,-134.25"/>
<polygon fill="midnightblue" stroke="midnightblue" points="323.52,-137.52 331.87,-130.99 321.27,-130.89 323.52,-137.52"/>
</g>
</g>
</svg>
