<?xml version="1.0" encoding="UTF-8" standalone="no"?>
<!DOCTYPE svg PUBLIC "-//W3C//DTD SVG 1.1//EN"
 "http://www.w3.org/Graphics/SVG/1.1/DTD/svg11.dtd">
<!-- Generated by graphviz version 2.43.0 (0)
 -->
<!-- Title: device_view::View::get_pixel Pages: 1 -->
<svg width="298pt" height="344pt"
 viewBox="0.00 0.00 298.00 343.50" xmlns="http://www.w3.org/2000/svg" xmlns:xlink="http://www.w3.org/1999/xlink">
<g id="graph0" class="graph" transform="scale(1 1) rotate(0) translate(4 339.5)">
<title>device_view::View::get_pixel</title>
<polygon fill="white" stroke="transparent" points="-4,4 -4,-339.5 294,-339.5 294,4 -4,4"/>
<!-- Node1 -->
<g id="node1" class="node">
<title>Node1</title>
<g id="a_node1"><a xlink:title="Get pixel color at specified coordinates (no bounds checking)">
<polygon fill="#bfbfbf" stroke="black" points="178,-158.5 178,-188.5 290,-188.5 290,-158.5 178,-158.5"/>
<text text-anchor="start" x="186" y="-176.5" font-family="Helvetica,sans-Serif" font-size="10.00">device_view::View::</text>
<text text-anchor="middle" x="234" y="-165.5" font-family="Helvetica,sans-Serif" font-size="10.00">get_pixel</text>
</a>
</g>
</g>
<!-- Node2 -->
<g id="node2" class="node">
<title>Node2</title>
<g id="a_node2"><a xlink:href="algos_8cu.html#a9e0e7707814678c9477665377596c3ed" target="_top" xlink:title="CUDA kernel for computing column&#45;wise prefix sum (integral image)">
<polygon fill="white" stroke="black" points="26,-316 26,-335 116,-335 116,-316 26,-316"/>
<text text-anchor="middle" x="71" y="-323" font-family="Helvetica,sans-Serif" font-size="10.00">col_prefix_sum</text>
</a>
</g>
</g>
<!-- Node1&#45;&gt;Node2 -->
<g id="edge1" class="edge">
<title>Node1&#45;&gt;Node2</title>
<path fill="none" stroke="midnightblue" d="M222.61,-198.27C208.69,-228.4 181.13,-278.69 142,-306.5 134.4,-311.9 125.35,-315.76 116.32,-318.53"/>
<polygon fill="midnightblue" stroke="midnightblue" points="225.92,-199.44 226.8,-188.88 219.53,-196.58 225.92,-199.44"/>
</g>
<!-- Node3 -->
<g id="node3" class="node">
<title>Node3</title>
<g id="a_node3"><a xlink:href="ImageKernels_8cu.html#a37b3b3d085ecabae40b1f26c8c73f52d" target="_top" xlink:title=" ">
<polygon fill="white" stroke="black" points="2,-278 2,-297 140,-297 140,-278 2,-278"/>
<text text-anchor="middle" x="71" y="-285" font-family="Helvetica,sans-Serif" font-size="10.00">compute_col_prefix_sum</text>
</a>
</g>
</g>
<!-- Node1&#45;&gt;Node3 -->
<g id="edge2" class="edge">
<title>Node1&#45;&gt;Node3</title>
<path fill="none" stroke="midnightblue" d="M216.57,-196.86C200.12,-218.55 172.86,-250.17 142,-268.5 135.5,-272.36 128.21,-275.45 120.84,-277.93"/>
<polygon fill="midnightblue" stroke="midnightblue" points="219.4,-198.92 222.54,-188.8 213.78,-194.76 219.4,-198.92"/>
</g>
<!-- Node4 -->
<g id="node4" class="node">
<title>Node4</title>
<g id="a_node4"><a xlink:href="ImageKernels_8cu.html#a4ac0a0c397995a307cd29b983f6107a3" target="_top" xlink:title=" ">
<polygon fill="white" stroke="black" points="0,-240 0,-259 142,-259 142,-240 0,-240"/>
<text text-anchor="middle" x="71" y="-247" font-family="Helvetica,sans-Serif" font-size="10.00">compute_row_prefix_sum</text>
</a>
</g>
</g>
<!-- Node1&#45;&gt;Node4 -->
<g id="edge3" class="edge">
<title>Node1&#45;&gt;Node4</title>
<path fill="none" stroke="midnightblue" d="M204.13,-194.67C186.82,-206.56 163.96,-220.89 142,-230.5 133.58,-234.18 124.27,-237.31 115.26,-239.9"/>
<polygon fill="midnightblue" stroke="midnightblue" points="206.46,-197.31 212.65,-188.71 202.45,-191.57 206.46,-197.31"/>
</g>
<!-- Node5 -->
<g id="node5" class="node">
<title>Node5</title>
<g id="a_node5"><a xlink:href="ImageKernels_8cu.html#a90f97e225605c895923c535cab9706fe" target="_top" xlink:title=" ">
<polygon fill="white" stroke="black" points="2.5,-202 2.5,-221 139.5,-221 139.5,-202 2.5,-202"/>
<text text-anchor="middle" x="71" y="-209" font-family="Helvetica,sans-Serif" font-size="10.00">gaussian_blur_2d_kernel</text>
</a>
</g>
</g>
<!-- Node1&#45;&gt;Node5 -->
<g id="edge4" class="edge">
<title>Node1&#45;&gt;Node5</title>
<path fill="none" stroke="midnightblue" d="M167.62,-188.93C148.88,-193.35 129,-198.05 112.26,-202"/>
<polygon fill="midnightblue" stroke="midnightblue" points="168.66,-192.28 177.59,-186.58 167.06,-185.47 168.66,-192.28"/>
</g>
<!-- Node6 -->
<g id="node6" class="node">
<title>Node6</title>
<g id="a_node6"><a xlink:href="ImageKernels_8cu.html#abc394a6b09c783631e102d153a63a8c9" target="_top" xlink:title=" ">
<polygon fill="white" stroke="black" points="2,-164 2,-183 140,-183 140,-164 2,-164"/>
<text text-anchor="middle" x="71" y="-171" font-family="Helvetica,sans-Serif" font-size="10.00">gaussian_blur_horizontal</text>
</a>
</g>
</g>
<!-- Node1&#45;&gt;Node6 -->
<g id="edge5" class="edge">
<title>Node1&#45;&gt;Node6</title>
<path fill="none" stroke="midnightblue" d="M167.51,-173.5C158.45,-173.5 149.13,-173.5 140.03,-173.5"/>
<polygon fill="midnightblue" stroke="midnightblue" points="167.59,-177 177.59,-173.5 167.59,-170 167.59,-177"/>
</g>
<!-- Node7 -->
<g id="node7" class="node">
<title>Node7</title>
<g id="a_node7"><a xlink:href="ImageKernels_8cu.html#a5b49e6a67c25313ba457e1c52be5bb2d" target="_top" xlink:title=" ">
<polygon fill="white" stroke="black" points="8,-126 8,-145 134,-145 134,-126 8,-126"/>
<text text-anchor="middle" x="71" y="-133" font-family="Helvetica,sans-Serif" font-size="10.00">gaussian_blur_vertical</text>
</a>
</g>
</g>
<!-- Node1&#45;&gt;Node7 -->
<g id="edge6" class="edge">
<title>Node1&#45;&gt;Node7</title>
<path fill="none" stroke="midnightblue" d="M167.62,-158.07C148.88,-153.65 129,-148.95 112.26,-145"/>
<polygon fill="midnightblue" stroke="midnightblue" points="167.06,-161.53 177.59,-160.42 168.66,-154.72 167.06,-161.53"/>
</g>
<!-- Node8 -->
<g id="node8" class="node">
<title>Node8</title>
<g id="a_node8"><a xlink:href="ImageKernels_8cu.html#ae9a486a936b4960ff59ca254b4b677e0" target="_top" xlink:title=" ">
<polygon fill="white" stroke="black" points="2.5,-88 2.5,-107 139.5,-107 139.5,-88 2.5,-88"/>
<text text-anchor="middle" x="71" y="-95" font-family="Helvetica,sans-Serif" font-size="10.00">integral_box_blur_kernel</text>
</a>
</g>
</g>
<!-- Node1&#45;&gt;Node8 -->
<g id="edge7" class="edge">
<title>Node1&#45;&gt;Node8</title>
<path fill="none" stroke="midnightblue" d="M204.13,-152.33C186.82,-140.44 163.96,-126.11 142,-116.5 133.58,-112.82 124.27,-109.69 115.26,-107.1"/>
<polygon fill="midnightblue" stroke="midnightblue" points="202.45,-155.43 212.65,-158.29 206.46,-149.69 202.45,-155.43"/>
</g>
<!-- Node9 -->
<g id="node9" class="node">
<title>Node9</title>
<g id="a_node9"><a xlink:href="algos_8cu.html#afe1483709579e75791ff93a6b7f5ca40" target="_top" xlink:title="CUDA kernel for computing row&#45;wise prefix sum (integral image)">
<polygon fill="white" stroke="black" points="24,-50 24,-69 118,-69 118,-50 24,-50"/>
<text text-anchor="middle" x="71" y="-57" font-family="Helvetica,sans-Serif" font-size="10.00">row_prefix_sum</text>
</a>
</g>
</g>
<!-- Node1&#45;&gt;Node9 -->
<g id="edge8" class="edge">
<title>Node1&#45;&gt;Node9</title>
<path fill="none" stroke="midnightblue" d="M216.57,-150.14C200.12,-128.45 172.86,-96.83 142,-78.5 134.75,-74.19 126.49,-70.84 118.26,-68.23"/>
<polygon fill="midnightblue" stroke="midnightblue" points="213.78,-152.24 222.54,-158.2 219.4,-148.08 213.78,-152.24"/>
</g>
<!-- Node10 -->
<g id="node10" class="node">
<title>Node10</title>
<g id="a_node10"><a xlink:href="ImageKernels_8cu.html#ad4f040c2d2e39d29e451122edaf3e668" target="_top" xlink:title=" ">
<polygon fill="white" stroke="black" points="9.5,-0.5 9.5,-30.5 132.5,-30.5 132.5,-0.5 9.5,-0.5"/>
<text text-anchor="start" x="17.5" y="-18.5" font-family="Helvetica,sans-Serif" font-size="10.00">sobel_edge_detection</text>
<text text-anchor="middle" x="71" y="-7.5" font-family="Helvetica,sans-Serif" font-size="10.00">_kernel</text>
</a>
</g>
</g>
<!-- Node1&#45;&gt;Node10 -->
<g id="edge9" class="edge">
<title>Node1&#45;&gt;Node10</title>
<path fill="none" stroke="midnightblue" d="M222.25,-149.22C207.96,-119.59 180.02,-69.82 142,-40.5 136.99,-36.64 131.34,-33.34 125.47,-30.53"/>
<polygon fill="midnightblue" stroke="midnightblue" points="219.15,-150.87 226.56,-158.44 225.49,-147.9 219.15,-150.87"/>
</g>
</g>
</svg>
