<?xml version="1.0" encoding="UTF-8" standalone="no"?>
<!DOCTYPE svg PUBLIC "-//W3C//DTD SVG 1.1//EN"
 "http://www.w3.org/Graphics/SVG/1.1/DTD/svg11.dtd">
<!-- Generated by graphviz version 2.43.0 (0)
 -->
<!-- Title: pixel::RGB::getG Pages: 1 -->
<svg width="282pt" height="66pt"
 viewBox="0.00 0.00 282.00 66.00" xmlns="http://www.w3.org/2000/svg" xmlns:xlink="http://www.w3.org/1999/xlink">
<g id="graph0" class="graph" transform="scale(1 1) rotate(0) translate(4 62)">
<title>pixel::RGB::getG</title>
<polygon fill="white" stroke="transparent" points="-4,4 -4,-62 278,-62 278,4 -4,4"/>
<!-- Node1 -->
<g id="node1" class="node">
<title>Node1</title>
<g id="a_node1"><a xlink:title="Get green channel value (clamped to 0&#45;255 range)">
<polygon fill="#bfbfbf" stroke="black" points="178,-19.5 178,-38.5 274,-38.5 274,-19.5 178,-19.5"/>
<text text-anchor="middle" x="226" y="-26.5" font-family="Helvetica,sans-Serif" font-size="10.00">pixel::RGB::getG</text>
</a>
</g>
</g>
<!-- Node2 -->
<g id="node2" class="node">
<title>Node2</title>
<g id="a_node2"><a xlink:href="ImageKernels_8cu.html#a4ac0a0c397995a307cd29b983f6107a3" target="_top" xlink:title=" ">
<polygon fill="white" stroke="black" points="0,-38.5 0,-57.5 142,-57.5 142,-38.5 0,-38.5"/>
<text text-anchor="middle" x="71" y="-45.5" font-family="Helvetica,sans-Serif" font-size="10.00">compute_row_prefix_sum</text>
</a>
</g>
</g>
<!-- Node1&#45;&gt;Node2 -->
<g id="edge1" class="edge">
<title>Node1&#45;&gt;Node2</title>
<path fill="none" stroke="midnightblue" d="M167.8,-36.1C159.41,-37.15 150.68,-38.23 142.06,-39.3"/>
<polygon fill="midnightblue" stroke="midnightblue" points="168.35,-39.56 177.85,-34.86 167.49,-32.61 168.35,-39.56"/>
</g>
<!-- Node3 -->
<g id="node3" class="node">
<title>Node3</title>
<g id="a_node3"><a xlink:href="namespacepixel.html#a75e337102b8a047671e6e5720128debd" target="_top" xlink:title="Component&#45;wise multiplication of two RGB colors.">
<polygon fill="white" stroke="black" points="25,-0.5 25,-19.5 117,-19.5 117,-0.5 25,-0.5"/>
<text text-anchor="middle" x="71" y="-7.5" font-family="Helvetica,sans-Serif" font-size="10.00">pixel::operator*</text>
</a>
</g>
</g>
<!-- Node1&#45;&gt;Node3 -->
<g id="edge2" class="edge">
<title>Node1&#45;&gt;Node3</title>
<path fill="none" stroke="midnightblue" d="M167.66,-21.88C150.97,-19.81 132.99,-17.57 117.16,-15.61"/>
<polygon fill="midnightblue" stroke="midnightblue" points="167.49,-25.39 177.85,-23.14 168.35,-18.44 167.49,-25.39"/>
</g>
</g>
</svg>
