<?xml version="1.0" encoding="UTF-8" standalone="no"?>
<!DOCTYPE svg PUBLIC "-//W3C//DTD SVG 1.1//EN"
 "http://www.w3.org/Graphics/SVG/1.1/DTD/svg11.dtd">
<!-- Generated by graphviz version 2.43.0 (0)
 -->
<!-- Title: render::ImagePPM Pages: 1 -->
<svg width="381pt" height="806pt"
 viewBox="0.00 0.00 380.50 806.00" xmlns="http://www.w3.org/2000/svg" xmlns:xlink="http://www.w3.org/1999/xlink">
<g id="graph0" class="graph" transform="scale(1 1) rotate(0) translate(4 802)">
<title>render::ImagePPM</title>
<polygon fill="white" stroke="transparent" points="-4,4 -4,-802 376.5,-802 376.5,4 -4,4"/>
<!-- Node1 -->
<g id="node1" class="node">
<title>Node1</title>
<g id="a_node1"><a xlink:title="PPM image format implementation.">
<polygon fill="#bfbfbf" stroke="black" points="140,-0.5 140,-112.5 301,-112.5 301,-0.5 140,-0.5"/>
<text text-anchor="middle" x="220.5" y="-100.5" font-family="Helvetica,sans-Serif" font-size="10.00">render::ImagePPM</text>
<polyline fill="none" stroke="black" points="140,-93.5 301,-93.5 "/>
<text text-anchor="middle" x="220.5" y="-81.5" font-family="Helvetica,sans-Serif" font-size="10.00"> </text>
<polyline fill="none" stroke="black" points="140,-74.5 301,-74.5 "/>
<text text-anchor="start" x="148" y="-62.5" font-family="Helvetica,sans-Serif" font-size="10.00">+ ImagePPM()</text>
<text text-anchor="start" x="148" y="-51.5" font-family="Helvetica,sans-Serif" font-size="10.00">+ save()</text>
<text text-anchor="start" x="148" y="-40.5" font-family="Helvetica,sans-Serif" font-size="10.00">+ boxBlur()</text>
<text text-anchor="start" x="148" y="-29.5" font-family="Helvetica,sans-Serif" font-size="10.00">+ gaussianBlur()</text>
<text text-anchor="start" x="148" y="-18.5" font-family="Helvetica,sans-Serif" font-size="10.00">+ gaussianBlurUnoptimized()</text>
<text text-anchor="start" x="148" y="-7.5" font-family="Helvetica,sans-Serif" font-size="10.00">+ sobelEdgeDetection()</text>
</a>
</g>
</g>
<!-- Node2 -->
<g id="node2" class="node">
<title>Node2</title>
<g id="a_node2"><a xlink:href="classrender_1_1ImageBase.html" target="_top" xlink:title="Abstract base class for all image types.">
<polygon fill="white" stroke="black" points="162,-150.5 162,-328.5 279,-328.5 279,-150.5 162,-150.5"/>
<text text-anchor="middle" x="220.5" y="-316.5" font-family="Helvetica,sans-Serif" font-size="10.00">render::ImageBase</text>
<polyline fill="none" stroke="black" points="162,-309.5 279,-309.5 "/>
<text text-anchor="middle" x="220.5" y="-297.5" font-family="Helvetica,sans-Serif" font-size="10.00"> </text>
<polyline fill="none" stroke="black" points="162,-290.5 279,-290.5 "/>
<text text-anchor="start" x="170" y="-278.5" font-family="Helvetica,sans-Serif" font-size="10.00">+ ImageBase()</text>
<text text-anchor="start" x="170" y="-267.5" font-family="Helvetica,sans-Serif" font-size="10.00">+ ~ImageBase()</text>
<text text-anchor="start" x="170" y="-256.5" font-family="Helvetica,sans-Serif" font-size="10.00">+ save()</text>
<text text-anchor="start" x="170" y="-245.5" font-family="Helvetica,sans-Serif" font-size="10.00">+ get_size()</text>
<text text-anchor="start" x="170" y="-234.5" font-family="Helvetica,sans-Serif" font-size="10.00">+ get_height()</text>
<text text-anchor="start" x="170" y="-223.5" font-family="Helvetica,sans-Serif" font-size="10.00">+ get_width()</text>
<text text-anchor="start" x="170" y="-212.5" font-family="Helvetica,sans-Serif" font-size="10.00">+ get_grid_size()</text>
<text text-anchor="start" x="170" y="-201.5" font-family="Helvetica,sans-Serif" font-size="10.00">+ get_pixel()</text>
<text text-anchor="start" x="170" y="-190.5" font-family="Helvetica,sans-Serif" font-size="10.00">+ get_device_view()</text>
<text text-anchor="start" x="170" y="-179.5" font-family="Helvetica,sans-Serif" font-size="10.00"># copyToGPU()</text>
<text text-anchor="start" x="170" y="-168.5" font-family="Helvetica,sans-Serif" font-size="10.00"># copyFromGPU()</text>
<text text-anchor="start" x="170" y="-157.5" font-family="Helvetica,sans-Serif" font-size="10.00"># freeGPUMemory()</text>
</a>
</g>
</g>
<!-- Node2&#45;&gt;Node1 -->
<g id="edge1" class="edge">
<title>Node2&#45;&gt;Node1</title>
<path fill="none" stroke="midnightblue" d="M220.5,-140.15C220.5,-130.73 220.5,-121.44 220.5,-112.66"/>
<polygon fill="none" stroke="midnightblue" points="217,-140.39 220.5,-150.39 224,-140.39 217,-140.39"/>
</g>
<!-- Node3 -->
<g id="node3" class="node">
<title>Node3</title>
<g id="a_node3"><a xlink:href="classpixel_1_1RGB.html" target="_top" xlink:title="Classic RGB pixel format supporting both host and device operations.">
<polygon fill="white" stroke="black" points="177.5,-503.5 177.5,-670.5 263.5,-670.5 263.5,-503.5 177.5,-503.5"/>
<text text-anchor="middle" x="220.5" y="-658.5" font-family="Helvetica,sans-Serif" font-size="10.00">pixel::RGB</text>
<polyline fill="none" stroke="black" points="177.5,-651.5 263.5,-651.5 "/>
<text text-anchor="middle" x="220.5" y="-639.5" font-family="Helvetica,sans-Serif" font-size="10.00"> </text>
<polyline fill="none" stroke="black" points="177.5,-632.5 263.5,-632.5 "/>
<text text-anchor="start" x="185.5" y="-620.5" font-family="Helvetica,sans-Serif" font-size="10.00">+ RGB()</text>
<text text-anchor="start" x="185.5" y="-609.5" font-family="Helvetica,sans-Serif" font-size="10.00">+ RGB()</text>
<text text-anchor="start" x="185.5" y="-598.5" font-family="Helvetica,sans-Serif" font-size="10.00">+ RGB()</text>
<text text-anchor="start" x="185.5" y="-587.5" font-family="Helvetica,sans-Serif" font-size="10.00">+ RGB()</text>
<text text-anchor="start" x="185.5" y="-576.5" font-family="Helvetica,sans-Serif" font-size="10.00">+ operator+()</text>
<text text-anchor="start" x="185.5" y="-565.5" font-family="Helvetica,sans-Serif" font-size="10.00">+ operator&#45;()</text>
<text text-anchor="start" x="185.5" y="-554.5" font-family="Helvetica,sans-Serif" font-size="10.00">+ operator*()</text>
<text text-anchor="start" x="185.5" y="-543.5" font-family="Helvetica,sans-Serif" font-size="10.00">+ operator/()</text>
<text text-anchor="start" x="185.5" y="-532.5" font-family="Helvetica,sans-Serif" font-size="10.00">+ operator%()</text>
<text text-anchor="start" x="185.5" y="-521.5" font-family="Helvetica,sans-Serif" font-size="10.00">+ get()</text>
<text text-anchor="start" x="185.5" y="-510.5" font-family="Helvetica,sans-Serif" font-size="10.00">and 6 more...</text>
</a>
</g>
</g>
<!-- Node3&#45;&gt;Node2 -->
<g id="edge2" class="edge">
<title>Node3&#45;&gt;Node2</title>
<path fill="none" stroke="#404040" d="M220.5,-503.24C220.5,-454.45 220.5,-392.37 220.5,-340.81"/>
<polygon fill="none" stroke="#404040" points="220.5,-340.62 216.5,-334.62 220.5,-328.62 224.5,-334.62 220.5,-340.62"/>
<text text-anchor="middle" x="263.5" y="-408" font-family="Helvetica,sans-Serif" font-size="10.00"> #device_content</text>
</g>
<!-- Node5 -->
<g id="node5" class="node">
<title>Node5</title>
<g id="a_node5"><a xlink:title=" ">
<polygon fill="white" stroke="#bfbfbf" points="79,-376.5 79,-444.5 182,-444.5 182,-376.5 79,-376.5"/>
<text text-anchor="start" x="87" y="-432.5" font-family="Helvetica,sans-Serif" font-size="10.00">std::vector&lt; pixel</text>
<text text-anchor="middle" x="130.5" y="-421.5" font-family="Helvetica,sans-Serif" font-size="10.00">::RGB &gt;</text>
<polyline fill="none" stroke="#bfbfbf" points="79,-414.5 182,-414.5 "/>
<text text-anchor="middle" x="130.5" y="-402.5" font-family="Helvetica,sans-Serif" font-size="10.00"> </text>
<polyline fill="none" stroke="#bfbfbf" points="79,-395.5 182,-395.5 "/>
<text text-anchor="middle" x="130.5" y="-383.5" font-family="Helvetica,sans-Serif" font-size="10.00"> </text>
</a>
</g>
</g>
<!-- Node3&#45;&gt;Node5 -->
<g id="edge5" class="edge">
<title>Node3&#45;&gt;Node5</title>
<path fill="none" stroke="#404040" d="M177.44,-533.55C166.75,-518.56 156.17,-501.74 148.5,-485 144.42,-476.1 141.19,-466.15 138.66,-456.52"/>
<polygon fill="none" stroke="#404040" points="138.6,-456.27 133.32,-451.36 135.82,-444.59 141.1,-449.5 138.6,-456.27"/>
<text text-anchor="middle" x="177.5" y="-471.5" font-family="Helvetica,sans-Serif" font-size="10.00"> +elements</text>
</g>
<!-- Node4 -->
<g id="node4" class="node">
<title>Node4</title>
<g id="a_node4"><a xlink:title=" ">
<polygon fill="white" stroke="#bfbfbf" points="284,-740.5 284,-797.5 313,-797.5 313,-740.5 284,-740.5"/>
<text text-anchor="middle" x="298.5" y="-785.5" font-family="Helvetica,sans-Serif" font-size="10.00">int</text>
<polyline fill="none" stroke="#bfbfbf" points="284,-778.5 313,-778.5 "/>
<text text-anchor="middle" x="298.5" y="-766.5" font-family="Helvetica,sans-Serif" font-size="10.00"> </text>
<polyline fill="none" stroke="#bfbfbf" points="284,-759.5 313,-759.5 "/>
<text text-anchor="middle" x="298.5" y="-747.5" font-family="Helvetica,sans-Serif" font-size="10.00"> </text>
</a>
</g>
</g>
<!-- Node4&#45;&gt;Node2 -->
<g id="edge8" class="edge">
<title>Node4&#45;&gt;Node2</title>
<path fill="none" stroke="#404040" d="M305.29,-740.12C319.95,-674.78 350.15,-507.34 310.5,-376 304.92,-357.53 295.92,-339.27 285.7,-322.42"/>
<polygon fill="none" stroke="#404040" points="285.61,-322.27 279.02,-319.33 279.21,-312.12 285.79,-315.06 285.61,-322.27"/>
<text text-anchor="middle" x="351" y="-477" font-family="Helvetica,sans-Serif" font-size="10.00"> #height</text>
<text text-anchor="middle" x="351" y="-466" font-family="Helvetica,sans-Serif" font-size="10.00">#width</text>
</g>
<!-- Node4&#45;&gt;Node3 -->
<g id="edge3" class="edge">
<title>Node4&#45;&gt;Node3</title>
<path fill="none" stroke="#404040" d="M286.48,-740.27C279.57,-724.31 270.44,-703.24 261.18,-681.87"/>
<polygon fill="none" stroke="#404040" points="261.1,-681.7 255.05,-677.79 256.33,-670.69 262.39,-674.61 261.1,-681.7"/>
<text text-anchor="middle" x="285" y="-714" font-family="Helvetica,sans-Serif" font-size="10.00"> &#45;B</text>
<text text-anchor="middle" x="285" y="-703" font-family="Helvetica,sans-Serif" font-size="10.00">&#45;G</text>
<text text-anchor="middle" x="285" y="-692" font-family="Helvetica,sans-Serif" font-size="10.00">&#45;R</text>
</g>
<!-- Node5&#45;&gt;Node2 -->
<g id="edge4" class="edge">
<title>Node5&#45;&gt;Node2</title>
<path fill="none" stroke="#404040" d="M126.92,-376.29C126.96,-366.6 128.1,-356.15 131.5,-347 136.89,-332.51 145.16,-318.6 154.54,-305.88"/>
<polygon fill="none" stroke="#404040" points="154.54,-305.88 155.06,-298.69 161.9,-296.4 161.38,-303.59 154.54,-305.88"/>
<text text-anchor="middle" x="169" y="-350" font-family="Helvetica,sans-Serif" font-size="10.00"> #host_content</text>
</g>
<!-- Node6 -->
<g id="node6" class="node">
<title>Node6</title>
<g id="a_node6"><a xlink:title=" ">
<polygon fill="white" stroke="#bfbfbf" points="0,-558.5 0,-615.5 97,-615.5 97,-558.5 0,-558.5"/>
<text text-anchor="middle" x="48.5" y="-603.5" font-family="Helvetica,sans-Serif" font-size="10.00">std::vector&lt; T &gt;</text>
<polyline fill="none" stroke="#bfbfbf" points="0,-596.5 97,-596.5 "/>
<text text-anchor="middle" x="48.5" y="-584.5" font-family="Helvetica,sans-Serif" font-size="10.00"> </text>
<polyline fill="none" stroke="#bfbfbf" points="0,-577.5 97,-577.5 "/>
<text text-anchor="middle" x="48.5" y="-565.5" font-family="Helvetica,sans-Serif" font-size="10.00"> </text>
</a>
</g>
</g>
<!-- Node6&#45;&gt;Node5 -->
<g id="edge6" class="edge">
<title>Node6&#45;&gt;Node5</title>
<path fill="none" stroke="orange" d="M39.87,-548.36C36.04,-522.71 35.16,-488.85 49.5,-463 56.21,-450.9 67.08,-441.24 78.71,-433.7"/>
<polygon fill="orange" stroke="orange" points="36.46,-549.18 41.59,-558.45 43.36,-548 36.46,-549.18"/>
<text text-anchor="middle" x="87.5" y="-471.5" font-family="Helvetica,sans-Serif" font-size="10.00"> &lt; pixel::RGB &gt;</text>
</g>
<!-- Node7 -->
<g id="node7" class="node">
<title>Node7</title>
<g id="a_node7"><a xlink:title=" ">
<polygon fill="white" stroke="#bfbfbf" points="34,-740.5 34,-797.5 63,-797.5 63,-740.5 34,-740.5"/>
<text text-anchor="middle" x="48.5" y="-785.5" font-family="Helvetica,sans-Serif" font-size="10.00">T</text>
<polyline fill="none" stroke="#bfbfbf" points="34,-778.5 63,-778.5 "/>
<text text-anchor="middle" x="48.5" y="-766.5" font-family="Helvetica,sans-Serif" font-size="10.00"> </text>
<polyline fill="none" stroke="#bfbfbf" points="34,-759.5 63,-759.5 "/>
<text text-anchor="middle" x="48.5" y="-747.5" font-family="Helvetica,sans-Serif" font-size="10.00"> </text>
</a>
</g>
</g>
<!-- Node7&#45;&gt;Node6 -->
<g id="edge7" class="edge">
<title>Node7&#45;&gt;Node6</title>
<path fill="none" stroke="#404040" d="M48.5,-740.27C48.5,-710.28 48.5,-662.18 48.5,-628.08"/>
<polygon fill="none" stroke="#404040" points="48.5,-627.76 44.5,-621.76 48.5,-615.76 52.5,-621.76 48.5,-627.76"/>
<text text-anchor="middle" x="77.5" y="-703" font-family="Helvetica,sans-Serif" font-size="10.00"> +elements</text>
</g>
</g>
</svg>
