<?xml version="1.0" encoding="UTF-8" standalone="no"?>
<!DOCTYPE svg PUBLIC "-//W3C//DTD SVG 1.1//EN"
 "http://www.w3.org/Graphics/SVG/1.1/DTD/svg11.dtd">
<!-- Generated by graphviz version 2.43.0 (0)
 -->
<!-- Title: pixel::RGB Pages: 1 -->
<svg width="94pt" height="303pt"
 viewBox="0.00 0.00 94.00 303.00" xmlns="http://www.w3.org/2000/svg" xmlns:xlink="http://www.w3.org/1999/xlink">
<g id="graph0" class="graph" transform="scale(1 1) rotate(0) translate(4 299)">
<title>pixel::RGB</title>
<polygon fill="white" stroke="transparent" points="-4,4 -4,-299 90,-299 90,4 -4,4"/>
<!-- Node1 -->
<g id="node1" class="node">
<title>Node1</title>
<g id="a_node1"><a xlink:title="Classic RGB pixel format supporting both host and device operations.">
<polygon fill="#bfbfbf" stroke="black" points="0,-0.5 0,-167.5 86,-167.5 86,-0.5 0,-0.5"/>
<text text-anchor="middle" x="43" y="-155.5" font-family="Helvetica,sans-Serif" font-size="10.00">pixel::RGB</text>
<polyline fill="none" stroke="black" points="0,-148.5 86,-148.5 "/>
<text text-anchor="middle" x="43" y="-136.5" font-family="Helvetica,sans-Serif" font-size="10.00"> </text>
<polyline fill="none" stroke="black" points="0,-129.5 86,-129.5 "/>
<text text-anchor="start" x="8" y="-117.5" font-family="Helvetica,sans-Serif" font-size="10.00">+ RGB()</text>
<text text-anchor="start" x="8" y="-106.5" font-family="Helvetica,sans-Serif" font-size="10.00">+ RGB()</text>
<text text-anchor="start" x="8" y="-95.5" font-family="Helvetica,sans-Serif" font-size="10.00">+ RGB()</text>
<text text-anchor="start" x="8" y="-84.5" font-family="Helvetica,sans-Serif" font-size="10.00">+ RGB()</text>
<text text-anchor="start" x="8" y="-73.5" font-family="Helvetica,sans-Serif" font-size="10.00">+ operator+()</text>
<text text-anchor="start" x="8" y="-62.5" font-family="Helvetica,sans-Serif" font-size="10.00">+ operator&#45;()</text>
<text text-anchor="start" x="8" y="-51.5" font-family="Helvetica,sans-Serif" font-size="10.00">+ operator*()</text>
<text text-anchor="start" x="8" y="-40.5" font-family="Helvetica,sans-Serif" font-size="10.00">+ operator/()</text>
<text text-anchor="start" x="8" y="-29.5" font-family="Helvetica,sans-Serif" font-size="10.00">+ operator%()</text>
<text text-anchor="start" x="8" y="-18.5" font-family="Helvetica,sans-Serif" font-size="10.00">+ get()</text>
<text text-anchor="start" x="8" y="-7.5" font-family="Helvetica,sans-Serif" font-size="10.00">and 6 more...</text>
</a>
</g>
</g>
<!-- Node2 -->
<g id="node2" class="node">
<title>Node2</title>
<g id="a_node2"><a xlink:title=" ">
<polygon fill="white" stroke="#bfbfbf" points="28.5,-237.5 28.5,-294.5 57.5,-294.5 57.5,-237.5 28.5,-237.5"/>
<text text-anchor="middle" x="43" y="-282.5" font-family="Helvetica,sans-Serif" font-size="10.00">int</text>
<polyline fill="none" stroke="#bfbfbf" points="28.5,-275.5 57.5,-275.5 "/>
<text text-anchor="middle" x="43" y="-263.5" font-family="Helvetica,sans-Serif" font-size="10.00"> </text>
<polyline fill="none" stroke="#bfbfbf" points="28.5,-256.5 57.5,-256.5 "/>
<text text-anchor="middle" x="43" y="-244.5" font-family="Helvetica,sans-Serif" font-size="10.00"> </text>
</a>
</g>
</g>
<!-- Node2&#45;&gt;Node1 -->
<g id="edge1" class="edge">
<title>Node2&#45;&gt;Node1</title>
<path fill="none" stroke="#404040" d="M43,-237.27C43,-221.53 43,-200.82 43,-179.75"/>
<polygon fill="none" stroke="#404040" points="43,-179.69 39,-173.69 43,-167.69 47,-173.69 43,-179.69"/>
<text text-anchor="middle" x="49.5" y="-211" font-family="Helvetica,sans-Serif" font-size="10.00"> &#45;B</text>
<text text-anchor="middle" x="49.5" y="-200" font-family="Helvetica,sans-Serif" font-size="10.00">&#45;G</text>
<text text-anchor="middle" x="49.5" y="-189" font-family="Helvetica,sans-Serif" font-size="10.00">&#45;R</text>
</g>
</g>
</svg>
