<?xml version="1.0" encoding="UTF-8" standalone="no"?>
<!DOCTYPE svg PUBLIC "-//W3C//DTD SVG 1.1//EN"
 "http://www.w3.org/Graphics/SVG/1.1/DTD/svg11.dtd">
<!-- Generated by graphviz version 2.43.0 (0)
 -->
<!-- Title: pixel::RGB::getB Pages: 1 -->
<svg width="281pt" height="66pt"
 viewBox="0.00 0.00 281.00 66.00" xmlns="http://www.w3.org/2000/svg" xmlns:xlink="http://www.w3.org/1999/xlink">
<g id="graph0" class="graph" transform="scale(1 1) rotate(0) translate(4 62)">
<title>pixel::RGB::getB</title>
<polygon fill="white" stroke="transparent" points="-4,4 -4,-62 277,-62 277,4 -4,4"/>
<!-- Node1 -->
<g id="node1" class="node">
<title>Node1</title>
<g id="a_node1"><a xlink:title="Get blue channel value (clamped to 0&#45;255 range)">
<polygon fill="#bfbfbf" stroke="black" points="178,-19.5 178,-38.5 273,-38.5 273,-19.5 178,-19.5"/>
<text text-anchor="middle" x="225.5" y="-26.5" font-family="Helvetica,sans-Serif" font-size="10.00">pixel::RGB::getB</text>
</a>
</g>
</g>
<!-- Node2 -->
<g id="node2" class="node">
<title>Node2</title>
<g id="a_node2"><a xlink:href="ImageKernels_8cu.html#a4ac0a0c397995a307cd29b983f6107a3" target="_top" xlink:title=" ">
<polygon fill="white" stroke="black" points="0,-38.5 0,-57.5 142,-57.5 142,-38.5 0,-38.5"/>
<text text-anchor="middle" x="71" y="-45.5" font-family="Helvetica,sans-Serif" font-size="10.00">compute_row_prefix_sum</text>
</a>
</g>
</g>
<!-- Node1&#45;&gt;Node2 -->
<g id="edge1" class="edge">
<title>Node1&#45;&gt;Node2</title>
<path fill="none" stroke="midnightblue" d="M167.89,-36.05C159.51,-37.1 150.78,-38.18 142.16,-39.26"/>
<polygon fill="midnightblue" stroke="midnightblue" points="168.43,-39.51 177.92,-34.8 167.56,-32.57 168.43,-39.51"/>
</g>
<!-- Node3 -->
<g id="node3" class="node">
<title>Node3</title>
<g id="a_node3"><a xlink:href="namespacepixel.html#a75e337102b8a047671e6e5720128debd" target="_top" xlink:title="Component&#45;wise multiplication of two RGB colors.">
<polygon fill="white" stroke="black" points="25,-0.5 25,-19.5 117,-19.5 117,-0.5 25,-0.5"/>
<text text-anchor="middle" x="71" y="-7.5" font-family="Helvetica,sans-Serif" font-size="10.00">pixel::operator*</text>
</a>
</g>
</g>
<!-- Node1&#45;&gt;Node3 -->
<g id="edge2" class="edge">
<title>Node1&#45;&gt;Node3</title>
<path fill="none" stroke="midnightblue" d="M167.75,-21.93C151.08,-19.85 133.09,-17.61 117.25,-15.64"/>
<polygon fill="midnightblue" stroke="midnightblue" points="167.56,-25.43 177.92,-23.2 168.43,-18.49 167.56,-25.43"/>
</g>
</g>
</svg>
