<?xml version="1.0" encoding="UTF-8" standalone="no"?>
<!DOCTYPE svg PUBLIC "-//W3C//DTD SVG 1.1//EN"
 "http://www.w3.org/Graphics/SVG/1.1/DTD/svg11.dtd">
<!-- Generated by graphviz version 2.43.0 (0)
 -->
<!-- Title: device_view::View::set_pixel Pages: 1 -->
<svg width="298pt" height="382pt"
 viewBox="0.00 0.00 298.00 381.50" xmlns="http://www.w3.org/2000/svg" xmlns:xlink="http://www.w3.org/1999/xlink">
<g id="graph0" class="graph" transform="scale(1 1) rotate(0) translate(4 377.5)">
<title>device_view::View::set_pixel</title>
<polygon fill="white" stroke="transparent" points="-4,4 -4,-377.5 294,-377.5 294,4 -4,4"/>
<!-- Node1 -->
<g id="node1" class="node">
<title>Node1</title>
<g id="a_node1"><a xlink:title="Set pixel color at specified coordinates.">
<polygon fill="#bfbfbf" stroke="black" points="178,-177.5 178,-207.5 290,-207.5 290,-177.5 178,-177.5"/>
<text text-anchor="start" x="186" y="-195.5" font-family="Helvetica,sans-Serif" font-size="10.00">device_view::View::</text>
<text text-anchor="middle" x="234" y="-184.5" font-family="Helvetica,sans-Serif" font-size="10.00">set_pixel</text>
</a>
</g>
</g>
<!-- Node2 -->
<g id="node2" class="node">
<title>Node2</title>
<g id="a_node2"><a xlink:href="ImageKernels_8cu.html#a8bb405208a0489878ec44fc682f4c0c3" target="_top" xlink:title=" ">
<polygon fill="white" stroke="black" points="24,-354 24,-373 118,-373 118,-354 24,-354"/>
<text text-anchor="middle" x="71" y="-361" font-family="Helvetica,sans-Serif" font-size="10.00">box_blur_kernel</text>
</a>
</g>
</g>
<!-- Node1&#45;&gt;Node2 -->
<g id="edge1" class="edge">
<title>Node1&#45;&gt;Node2</title>
<path fill="none" stroke="midnightblue" d="M224.88,-217.24C212.48,-251.13 185.55,-311.52 142,-344.5 134.97,-349.82 126.56,-353.65 118.03,-356.41"/>
<polygon fill="midnightblue" stroke="midnightblue" points="228.24,-218.23 228.27,-207.64 221.64,-215.9 228.24,-218.23"/>
</g>
<!-- Node3 -->
<g id="node3" class="node">
<title>Node3</title>
<g id="a_node3"><a xlink:href="algos_8cu.html#a9e0e7707814678c9477665377596c3ed" target="_top" xlink:title="CUDA kernel for computing column&#45;wise prefix sum (integral image)">
<polygon fill="white" stroke="black" points="26,-316 26,-335 116,-335 116,-316 26,-316"/>
<text text-anchor="middle" x="71" y="-323" font-family="Helvetica,sans-Serif" font-size="10.00">col_prefix_sum</text>
</a>
</g>
</g>
<!-- Node1&#45;&gt;Node3 -->
<g id="edge2" class="edge">
<title>Node1&#45;&gt;Node3</title>
<path fill="none" stroke="midnightblue" d="M220.1,-216.47C204.85,-242.51 177.07,-283.47 142,-306.5 134.21,-311.62 125.08,-315.36 116.02,-318.1"/>
<polygon fill="midnightblue" stroke="midnightblue" points="223.24,-218.03 225.14,-207.61 217.15,-214.57 223.24,-218.03"/>
</g>
<!-- Node4 -->
<g id="node4" class="node">
<title>Node4</title>
<g id="a_node4"><a xlink:href="ImageKernels_8cu.html#a37b3b3d085ecabae40b1f26c8c73f52d" target="_top" xlink:title=" ">
<polygon fill="white" stroke="black" points="2,-278 2,-297 140,-297 140,-278 2,-278"/>
<text text-anchor="middle" x="71" y="-285" font-family="Helvetica,sans-Serif" font-size="10.00">compute_col_prefix_sum</text>
</a>
</g>
</g>
<!-- Node1&#45;&gt;Node4 -->
<g id="edge3" class="edge">
<title>Node1&#45;&gt;Node4</title>
<path fill="none" stroke="midnightblue" d="M211.68,-214.95C194.39,-231.94 168.59,-254.64 142,-268.5 134.63,-272.34 126.41,-275.46 118.26,-277.98"/>
<polygon fill="midnightblue" stroke="midnightblue" points="214.43,-217.16 219,-207.6 209.47,-212.22 214.43,-217.16"/>
</g>
<!-- Node5 -->
<g id="node5" class="node">
<title>Node5</title>
<g id="a_node5"><a xlink:href="ImageKernels_8cu.html#a4ac0a0c397995a307cd29b983f6107a3" target="_top" xlink:title=" ">
<polygon fill="white" stroke="black" points="0,-240 0,-259 142,-259 142,-240 0,-240"/>
<text text-anchor="middle" x="71" y="-247" font-family="Helvetica,sans-Serif" font-size="10.00">compute_row_prefix_sum</text>
</a>
</g>
</g>
<!-- Node1&#45;&gt;Node5 -->
<g id="edge4" class="edge">
<title>Node1&#45;&gt;Node5</title>
<path fill="none" stroke="midnightblue" d="M190.13,-211.75C175.08,-218.15 157.94,-225.03 142,-230.5 131.99,-233.93 121.02,-237.16 110.79,-239.94"/>
<polygon fill="midnightblue" stroke="midnightblue" points="191.89,-214.81 199.69,-207.64 189.13,-208.38 191.89,-214.81"/>
</g>
<!-- Node6 -->
<g id="node6" class="node">
<title>Node6</title>
<g id="a_node6"><a xlink:href="ImageKernels_8cu.html#a90f97e225605c895923c535cab9706fe" target="_top" xlink:title=" ">
<polygon fill="white" stroke="black" points="2.5,-202 2.5,-221 139.5,-221 139.5,-202 2.5,-202"/>
<text text-anchor="middle" x="71" y="-209" font-family="Helvetica,sans-Serif" font-size="10.00">gaussian_blur_2d_kernel</text>
</a>
</g>
</g>
<!-- Node1&#45;&gt;Node6 -->
<g id="edge5" class="edge">
<title>Node1&#45;&gt;Node6</title>
<path fill="none" stroke="midnightblue" d="M167.43,-200.24C158.3,-201.32 148.91,-202.42 139.75,-203.5"/>
<polygon fill="midnightblue" stroke="midnightblue" points="168.07,-203.69 177.59,-199.04 167.25,-196.73 168.07,-203.69"/>
</g>
<!-- Node7 -->
<g id="node7" class="node">
<title>Node7</title>
<g id="a_node7"><a xlink:href="ImageKernels_8cu.html#abc394a6b09c783631e102d153a63a8c9" target="_top" xlink:title=" ">
<polygon fill="white" stroke="black" points="2,-164 2,-183 140,-183 140,-164 2,-164"/>
<text text-anchor="middle" x="71" y="-171" font-family="Helvetica,sans-Serif" font-size="10.00">gaussian_blur_horizontal</text>
</a>
</g>
</g>
<!-- Node1&#45;&gt;Node7 -->
<g id="edge6" class="edge">
<title>Node1&#45;&gt;Node7</title>
<path fill="none" stroke="midnightblue" d="M167.51,-184.77C158.45,-183.7 149.13,-182.6 140.03,-181.53"/>
<polygon fill="midnightblue" stroke="midnightblue" points="167.25,-188.27 177.59,-185.96 168.07,-181.31 167.25,-188.27"/>
</g>
<!-- Node8 -->
<g id="node8" class="node">
<title>Node8</title>
<g id="a_node8"><a xlink:href="ImageKernels_8cu.html#a5b49e6a67c25313ba457e1c52be5bb2d" target="_top" xlink:title=" ">
<polygon fill="white" stroke="black" points="8,-126 8,-145 134,-145 134,-126 8,-126"/>
<text text-anchor="middle" x="71" y="-133" font-family="Helvetica,sans-Serif" font-size="10.00">gaussian_blur_vertical</text>
</a>
</g>
</g>
<!-- Node1&#45;&gt;Node8 -->
<g id="edge7" class="edge">
<title>Node1&#45;&gt;Node8</title>
<path fill="none" stroke="midnightblue" d="M190.13,-173.25C175.08,-166.85 157.94,-159.97 142,-154.5 131.99,-151.07 121.02,-147.84 110.79,-145.06"/>
<polygon fill="midnightblue" stroke="midnightblue" points="189.13,-176.62 199.69,-177.36 191.89,-170.19 189.13,-176.62"/>
</g>
<!-- Node9 -->
<g id="node9" class="node">
<title>Node9</title>
<g id="a_node9"><a xlink:href="ImageKernels_8cu.html#ae9a486a936b4960ff59ca254b4b677e0" target="_top" xlink:title=" ">
<polygon fill="white" stroke="black" points="2.5,-88 2.5,-107 139.5,-107 139.5,-88 2.5,-88"/>
<text text-anchor="middle" x="71" y="-95" font-family="Helvetica,sans-Serif" font-size="10.00">integral_box_blur_kernel</text>
</a>
</g>
</g>
<!-- Node1&#45;&gt;Node9 -->
<g id="edge8" class="edge">
<title>Node1&#45;&gt;Node9</title>
<path fill="none" stroke="midnightblue" d="M211.68,-170.05C194.39,-153.06 168.59,-130.36 142,-116.5 134.63,-112.66 126.41,-109.54 118.26,-107.02"/>
<polygon fill="midnightblue" stroke="midnightblue" points="209.47,-172.78 219,-177.4 214.43,-167.84 209.47,-172.78"/>
</g>
<!-- Node10 -->
<g id="node10" class="node">
<title>Node10</title>
<g id="a_node10"><a xlink:href="algos_8cu.html#afe1483709579e75791ff93a6b7f5ca40" target="_top" xlink:title="CUDA kernel for computing row&#45;wise prefix sum (integral image)">
<polygon fill="white" stroke="black" points="24,-50 24,-69 118,-69 118,-50 24,-50"/>
<text text-anchor="middle" x="71" y="-57" font-family="Helvetica,sans-Serif" font-size="10.00">row_prefix_sum</text>
</a>
</g>
</g>
<!-- Node1&#45;&gt;Node10 -->
<g id="edge9" class="edge">
<title>Node1&#45;&gt;Node10</title>
<path fill="none" stroke="midnightblue" d="M220.1,-168.53C204.85,-142.49 177.07,-101.53 142,-78.5 134.84,-73.8 126.55,-70.26 118.23,-67.59"/>
<polygon fill="midnightblue" stroke="midnightblue" points="217.15,-170.43 225.14,-177.39 223.24,-166.97 217.15,-170.43"/>
</g>
<!-- Node11 -->
<g id="node11" class="node">
<title>Node11</title>
<g id="a_node11"><a xlink:href="ImageKernels_8cu.html#ad4f040c2d2e39d29e451122edaf3e668" target="_top" xlink:title=" ">
<polygon fill="white" stroke="black" points="9.5,-0.5 9.5,-30.5 132.5,-30.5 132.5,-0.5 9.5,-0.5"/>
<text text-anchor="start" x="17.5" y="-18.5" font-family="Helvetica,sans-Serif" font-size="10.00">sobel_edge_detection</text>
<text text-anchor="middle" x="71" y="-7.5" font-family="Helvetica,sans-Serif" font-size="10.00">_kernel</text>
</a>
</g>
</g>
<!-- Node1&#45;&gt;Node11 -->
<g id="edge10" class="edge">
<title>Node1&#45;&gt;Node11</title>
<path fill="none" stroke="midnightblue" d="M224.31,-167.72C211.39,-134.29 184.02,-74.98 142,-40.5 137.31,-36.65 131.98,-33.38 126.41,-30.59"/>
<polygon fill="midnightblue" stroke="midnightblue" points="221.08,-169.06 227.86,-177.2 227.64,-166.61 221.08,-169.06"/>
</g>
</g>
</svg>
