<?xml version="1.0" encoding="UTF-8" standalone="no"?>
<!DOCTYPE svg PUBLIC "-//W3C//DTD SVG 1.1//EN"
 "http://www.w3.org/Graphics/SVG/1.1/DTD/svg11.dtd">
<!-- Generated by graphviz version 2.43.0 (0)
 -->
<!-- Title: render::ImageBase Pages: 1 -->
<!--zoomable 656 -->
<svg id="main" version="1.1" xmlns="http://www.w3.org/2000/svg" xmlns:xlink="http://www.w3.org/1999/xlink" xml:space="preserve" onload="init(evt)">
<style type="text/css"><![CDATA[
.edge:hover path { stroke: red; }
.edge:hover polygon { stroke: red; fill: red; }
]]></style>
<script type="text/javascript"><![CDATA[
var edges = document.getElementsByTagName('g');
if (edges && edges.length) {
  for (var i=0;i<edges.length;i++) {
    if (edges[i].id.substr(0,4)=='edge') {
      edges[i].setAttribute('class','edge');
    }
  }
}
]]></script>
        <defs>
                <circle id="rim" cx="0" cy="0" r="7"/>
                <circle id="rim2" cx="0" cy="0" r="3.5"/>
                <g id="zoomPlus">
                        <use xlink:href="#rim" fill="#404040">
                                <set attributeName="fill" to="#808080" begin="zoomplus.mouseover" end="zoomplus.mouseout"/>
                        </use>
                        <path d="M-4,0h8M0,-4v8" fill="none" stroke="white" stroke-width="1.5" pointer-events="none"/>
                </g>
                <g id="zoomMin">
                        <use xlink:href="#rim" fill="#404040">
                                <set attributeName="fill" to="#808080" begin="zoomminus.mouseover" end="zoomminus.mouseout"/>
                        </use>
                        <path d="M-4,0h8" fill="none" stroke="white" stroke-width="1.5" pointer-events="none"/>
                </g>
                <g id="dirArrow">
                        <path fill="none" stroke="white" stroke-width="1.5" d="M0,-3.0v7 M-2.5,-0.5L0,-3.0L2.5,-0.5"/>
                </g>
               <g id="resetDef">
                       <use xlink:href="#rim2" fill="#404040">
                               <set attributeName="fill" to="#808080" begin="reset.mouseover" end="reset.mouseout"/>
                       </use>
               </g>
        </defs>

<script type="text/javascript">
var viewWidth = 381;
var viewHeight = 656;
var sectionId = 'dynsection-1';
</script>
<script xlink:href="svgpan.js"/>
<svg id="graph" class="graph">
<g id="viewport">
<title>render::ImageBase</title>
<polygon fill="white" stroke="transparent" points="-4,4 -4,-652 376.5,-652 376.5,4 -4,4"/>
<!-- Node1 -->
<g id="node1" class="node">
<title>Node1</title>
<g id="a_node1"><a xlink:title="Abstract base class for all image types.">
<polygon fill="#bfbfbf" stroke="black" points="162,-0.5 162,-178.5 279,-178.5 279,-0.5 162,-0.5"/>
<text text-anchor="middle" x="220.5" y="-166.5" font-family="Helvetica,sans-Serif" font-size="10.00">render::ImageBase</text>
<polyline fill="none" stroke="black" points="162,-159.5 279,-159.5 "/>
<text text-anchor="middle" x="220.5" y="-147.5" font-family="Helvetica,sans-Serif" font-size="10.00"> </text>
<polyline fill="none" stroke="black" points="162,-140.5 279,-140.5 "/>
<text text-anchor="start" x="170" y="-128.5" font-family="Helvetica,sans-Serif" font-size="10.00">+ ImageBase()</text>
<text text-anchor="start" x="170" y="-117.5" font-family="Helvetica,sans-Serif" font-size="10.00">+ ~ImageBase()</text>
<text text-anchor="start" x="170" y="-106.5" font-family="Helvetica,sans-Serif" font-size="10.00">+ save()</text>
<text text-anchor="start" x="170" y="-95.5" font-family="Helvetica,sans-Serif" font-size="10.00">+ get_size()</text>
<text text-anchor="start" x="170" y="-84.5" font-family="Helvetica,sans-Serif" font-size="10.00">+ get_height()</text>
<text text-anchor="start" x="170" y="-73.5" font-family="Helvetica,sans-Serif" font-size="10.00">+ get_width()</text>
<text text-anchor="start" x="170" y="-62.5" font-family="Helvetica,sans-Serif" font-size="10.00">+ get_grid_size()</text>
<text text-anchor="start" x="170" y="-51.5" font-family="Helvetica,sans-Serif" font-size="10.00">+ get_pixel()</text>
<text text-anchor="start" x="170" y="-40.5" font-family="Helvetica,sans-Serif" font-size="10.00">+ get_device_view()</text>
<text text-anchor="start" x="170" y="-29.5" font-family="Helvetica,sans-Serif" font-size="10.00"># copyToGPU()</text>
<text text-anchor="start" x="170" y="-18.5" font-family="Helvetica,sans-Serif" font-size="10.00"># copyFromGPU()</text>
<text text-anchor="start" x="170" y="-7.5" font-family="Helvetica,sans-Serif" font-size="10.00"># freeGPUMemory()</text>
</a>
</g>
</g>
<!-- Node2 -->
<g id="node2" class="node">
<title>Node2</title>
<g id="a_node2"><a xlink:href="classpixel_1_1RGB.html" target="_top" xlink:title="Classic RGB pixel format supporting both host and device operations.">
<polygon fill="white" stroke="black" points="177.5,-353.5 177.5,-520.5 263.5,-520.5 263.5,-353.5 177.5,-353.5"/>
<text text-anchor="middle" x="220.5" y="-508.5" font-family="Helvetica,sans-Serif" font-size="10.00">pixel::RGB</text>
<polyline fill="none" stroke="black" points="177.5,-501.5 263.5,-501.5 "/>
<text text-anchor="middle" x="220.5" y="-489.5" font-family="Helvetica,sans-Serif" font-size="10.00"> </text>
<polyline fill="none" stroke="black" points="177.5,-482.5 263.5,-482.5 "/>
<text text-anchor="start" x="185.5" y="-470.5" font-family="Helvetica,sans-Serif" font-size="10.00">+ RGB()</text>
<text text-anchor="start" x="185.5" y="-459.5" font-family="Helvetica,sans-Serif" font-size="10.00">+ RGB()</text>
<text text-anchor="start" x="185.5" y="-448.5" font-family="Helvetica,sans-Serif" font-size="10.00">+ RGB()</text>
<text text-anchor="start" x="185.5" y="-437.5" font-family="Helvetica,sans-Serif" font-size="10.00">+ RGB()</text>
<text text-anchor="start" x="185.5" y="-426.5" font-family="Helvetica,sans-Serif" font-size="10.00">+ operator+()</text>
<text text-anchor="start" x="185.5" y="-415.5" font-family="Helvetica,sans-Serif" font-size="10.00">+ operator&#45;()</text>
<text text-anchor="start" x="185.5" y="-404.5" font-family="Helvetica,sans-Serif" font-size="10.00">+ operator*()</text>
<text text-anchor="start" x="185.5" y="-393.5" font-family="Helvetica,sans-Serif" font-size="10.00">+ operator/()</text>
<text text-anchor="start" x="185.5" y="-382.5" font-family="Helvetica,sans-Serif" font-size="10.00">+ operator%()</text>
<text text-anchor="start" x="185.5" y="-371.5" font-family="Helvetica,sans-Serif" font-size="10.00">+ get()</text>
<text text-anchor="start" x="185.5" y="-360.5" font-family="Helvetica,sans-Serif" font-size="10.00">and 6 more...</text>
</a>
</g>
</g>
<!-- Node2&#45;&gt;Node1 -->
<g id="edge1" class="edge">
<title>Node2&#45;&gt;Node1</title>
<path fill="none" stroke="#404040" d="M220.5,-353.24C220.5,-304.45 220.5,-242.37 220.5,-190.81"/>
<polygon fill="none" stroke="#404040" points="220.5,-190.62 216.5,-184.62 220.5,-178.62 224.5,-184.62 220.5,-190.62"/>
<text text-anchor="middle" x="263.5" y="-258" font-family="Helvetica,sans-Serif" font-size="10.00"> #device_content</text>
</g>
<!-- Node4 -->
<g id="node4" class="node">
<title>Node4</title>
<g id="a_node4"><a xlink:title=" ">
<polygon fill="white" stroke="#bfbfbf" points="79,-226.5 79,-294.5 182,-294.5 182,-226.5 79,-226.5"/>
<text text-anchor="start" x="87" y="-282.5" font-family="Helvetica,sans-Serif" font-size="10.00">std::vector&lt; pixel</text>
<text text-anchor="middle" x="130.5" y="-271.5" font-family="Helvetica,sans-Serif" font-size="10.00">::RGB &gt;</text>
<polyline fill="none" stroke="#bfbfbf" points="79,-264.5 182,-264.5 "/>
<text text-anchor="middle" x="130.5" y="-252.5" font-family="Helvetica,sans-Serif" font-size="10.00"> </text>
<polyline fill="none" stroke="#bfbfbf" points="79,-245.5 182,-245.5 "/>
<text text-anchor="middle" x="130.5" y="-233.5" font-family="Helvetica,sans-Serif" font-size="10.00"> </text>
</a>
</g>
</g>
<!-- Node2&#45;&gt;Node4 -->
<g id="edge4" class="edge">
<title>Node2&#45;&gt;Node4</title>
<path fill="none" stroke="#404040" d="M177.44,-383.55C166.75,-368.56 156.17,-351.74 148.5,-335 144.42,-326.1 141.19,-316.15 138.66,-306.52"/>
<polygon fill="none" stroke="#404040" points="138.6,-306.27 133.32,-301.36 135.82,-294.59 141.1,-299.5 138.6,-306.27"/>
<text text-anchor="middle" x="177.5" y="-321.5" font-family="Helvetica,sans-Serif" font-size="10.00"> +elements</text>
</g>
<!-- Node3 -->
<g id="node3" class="node">
<title>Node3</title>
<g id="a_node3"><a xlink:title=" ">
<polygon fill="white" stroke="#bfbfbf" points="284,-590.5 284,-647.5 313,-647.5 313,-590.5 284,-590.5"/>
<text text-anchor="middle" x="298.5" y="-635.5" font-family="Helvetica,sans-Serif" font-size="10.00">int</text>
<polyline fill="none" stroke="#bfbfbf" points="284,-628.5 313,-628.5 "/>
<text text-anchor="middle" x="298.5" y="-616.5" font-family="Helvetica,sans-Serif" font-size="10.00"> </text>
<polyline fill="none" stroke="#bfbfbf" points="284,-609.5 313,-609.5 "/>
<text text-anchor="middle" x="298.5" y="-597.5" font-family="Helvetica,sans-Serif" font-size="10.00"> </text>
</a>
</g>
</g>
<!-- Node3&#45;&gt;Node1 -->
<g id="edge7" class="edge">
<title>Node3&#45;&gt;Node1</title>
<path fill="none" stroke="#404040" d="M305.29,-590.12C319.95,-524.78 350.15,-357.34 310.5,-226 304.92,-207.53 295.92,-189.27 285.7,-172.42"/>
<polygon fill="none" stroke="#404040" points="285.61,-172.27 279.02,-169.33 279.21,-162.12 285.79,-165.06 285.61,-172.27"/>
<text text-anchor="middle" x="351" y="-327" font-family="Helvetica,sans-Serif" font-size="10.00"> #height</text>
<text text-anchor="middle" x="351" y="-316" font-family="Helvetica,sans-Serif" font-size="10.00">#width</text>
</g>
<!-- Node3&#45;&gt;Node2 -->
<g id="edge2" class="edge">
<title>Node3&#45;&gt;Node2</title>
<path fill="none" stroke="#404040" d="M286.48,-590.27C279.57,-574.31 270.44,-553.24 261.18,-531.87"/>
<polygon fill="none" stroke="#404040" points="261.1,-531.7 255.05,-527.79 256.33,-520.69 262.39,-524.61 261.1,-531.7"/>
<text text-anchor="middle" x="285" y="-564" font-family="Helvetica,sans-Serif" font-size="10.00"> &#45;B</text>
<text text-anchor="middle" x="285" y="-553" font-family="Helvetica,sans-Serif" font-size="10.00">&#45;G</text>
<text text-anchor="middle" x="285" y="-542" font-family="Helvetica,sans-Serif" font-size="10.00">&#45;R</text>
</g>
<!-- Node4&#45;&gt;Node1 -->
<g id="edge3" class="edge">
<title>Node4&#45;&gt;Node1</title>
<path fill="none" stroke="#404040" d="M126.92,-226.29C126.96,-216.6 128.1,-206.15 131.5,-197 136.89,-182.51 145.16,-168.6 154.54,-155.88"/>
<polygon fill="none" stroke="#404040" points="154.54,-155.88 155.06,-148.69 161.9,-146.4 161.38,-153.59 154.54,-155.88"/>
<text text-anchor="middle" x="169" y="-200" font-family="Helvetica,sans-Serif" font-size="10.00"> #host_content</text>
</g>
<!-- Node5 -->
<g id="node5" class="node">
<title>Node5</title>
<g id="a_node5"><a xlink:title=" ">
<polygon fill="white" stroke="#bfbfbf" points="0,-408.5 0,-465.5 97,-465.5 97,-408.5 0,-408.5"/>
<text text-anchor="middle" x="48.5" y="-453.5" font-family="Helvetica,sans-Serif" font-size="10.00">std::vector&lt; T &gt;</text>
<polyline fill="none" stroke="#bfbfbf" points="0,-446.5 97,-446.5 "/>
<text text-anchor="middle" x="48.5" y="-434.5" font-family="Helvetica,sans-Serif" font-size="10.00"> </text>
<polyline fill="none" stroke="#bfbfbf" points="0,-427.5 97,-427.5 "/>
<text text-anchor="middle" x="48.5" y="-415.5" font-family="Helvetica,sans-Serif" font-size="10.00"> </text>
</a>
</g>
</g>
<!-- Node5&#45;&gt;Node4 -->
<g id="edge5" class="edge">
<title>Node5&#45;&gt;Node4</title>
<path fill="none" stroke="orange" d="M39.87,-398.36C36.04,-372.71 35.16,-338.85 49.5,-313 56.21,-300.9 67.08,-291.24 78.71,-283.7"/>
<polygon fill="orange" stroke="orange" points="36.46,-399.18 41.59,-408.45 43.36,-398 36.46,-399.18"/>
<text text-anchor="middle" x="87.5" y="-321.5" font-family="Helvetica,sans-Serif" font-size="10.00"> &lt; pixel::RGB &gt;</text>
</g>
<!-- Node6 -->
<g id="node6" class="node">
<title>Node6</title>
<g id="a_node6"><a xlink:title=" ">
<polygon fill="white" stroke="#bfbfbf" points="34,-590.5 34,-647.5 63,-647.5 63,-590.5 34,-590.5"/>
<text text-anchor="middle" x="48.5" y="-635.5" font-family="Helvetica,sans-Serif" font-size="10.00">T</text>
<polyline fill="none" stroke="#bfbfbf" points="34,-628.5 63,-628.5 "/>
<text text-anchor="middle" x="48.5" y="-616.5" font-family="Helvetica,sans-Serif" font-size="10.00"> </text>
<polyline fill="none" stroke="#bfbfbf" points="34,-609.5 63,-609.5 "/>
<text text-anchor="middle" x="48.5" y="-597.5" font-family="Helvetica,sans-Serif" font-size="10.00"> </text>
</a>
</g>
</g>
<!-- Node6&#45;&gt;Node5 -->
<g id="edge6" class="edge">
<title>Node6&#45;&gt;Node5</title>
<path fill="none" stroke="#404040" d="M48.5,-590.27C48.5,-560.28 48.5,-512.18 48.5,-478.08"/>
<polygon fill="none" stroke="#404040" points="48.5,-477.76 44.5,-471.76 48.5,-465.76 52.5,-471.76 48.5,-477.76"/>
<text text-anchor="middle" x="77.5" y="-553" font-family="Helvetica,sans-Serif" font-size="10.00"> +elements</text>
</g>
</g>
</svg>
        <g id="navigator" transform="translate(0 0)" fill="#404254">
                <rect fill="#f2f5e9" fill-opacity="0.5" stroke="#606060" stroke-width=".5" x="0" y="0" width="60" height="60"/>
                <use id="zoomplus" xlink:href="#zoomPlus" x="17" y="9" onmousedown="handleZoom(evt,'in')"/>
                <use id="zoomminus" xlink:href="#zoomMin" x="42" y="9" onmousedown="handleZoom(evt,'out')"/>
                <use id="reset" xlink:href="#resetDef" x="30" y="36" onmousedown="handleReset()"/>
                <g id="arrowUp" xlink:href="#dirArrow" transform="translate(30 24)" onmousedown="handlePan(0,-1)">
                  <use xlink:href="#rim" fill="#404040">
                        <set attributeName="fill" to="#808080" begin="arrowUp.mouseover" end="arrowUp.mouseout"/>
                  </use>
                  <path fill="none" stroke="white" stroke-width="1.5" d="M0,-3.0v7 M-2.5,-0.5L0,-3.0L2.5,-0.5"/>
                </g>
                <g id="arrowRight" xlink:href="#dirArrow" transform="rotate(90) translate(36 -43)" onmousedown="handlePan(1,0)">
                  <use xlink:href="#rim" fill="#404040">
                        <set attributeName="fill" to="#808080" begin="arrowRight.mouseover" end="arrowRight.mouseout"/>
                  </use>
                  <path fill="none" stroke="white" stroke-width="1.5" d="M0,-3.0v7 M-2.5,-0.5L0,-3.0L2.5,-0.5"/>
                </g>
                <g id="arrowDown" xlink:href="#dirArrow" transform="rotate(180) translate(-30 -48)" onmousedown="handlePan(0,1)">
                  <use xlink:href="#rim" fill="#404040">
                        <set attributeName="fill" to="#808080" begin="arrowDown.mouseover" end="arrowDown.mouseout"/>
                  </use>
                  <path fill="none" stroke="white" stroke-width="1.5" d="M0,-3.0v7 M-2.5,-0.5L0,-3.0L2.5,-0.5"/>
                </g>
                <g id="arrowLeft" xlink:href="#dirArrow" transform="rotate(270) translate(-36 17)" onmousedown="handlePan(-1,0)">
                  <use xlink:href="#rim" fill="#404040">
                        <set attributeName="fill" to="#808080" begin="arrowLeft.mouseover" end="arrowLeft.mouseout"/>
                  </use>
                  <path fill="none" stroke="white" stroke-width="1.5" d="M0,-3.0v7 M-2.5,-0.5L0,-3.0L2.5,-0.5"/>
                </g>
        </g>
        <svg viewBox="0 0 15 15" width="100%" height="30px" preserveAspectRatio="xMaxYMin meet">
         <g id="arrow_out" transform="scale(0.3 0.3)">
          <a xlink:href="classrender_1_1ImageBase__coll__graph_org.svg" target="_base">
           <rect id="button" ry="5" rx="5" y="6" x="6" height="38" width="38"
                fill="#f2f5e9" fill-opacity="0.5" stroke="#606060" stroke-width="1.0"/>
           <path id="arrow"
             d="M 11.500037,31.436501 C 11.940474,20.09759 22.043105,11.32322 32.158766,21.979434 L 37.068811,17.246167 C 37.068811,17.246167 37.088388,32 37.088388,32 L 22.160133,31.978069 C 22.160133,31.978069 26.997745,27.140456 26.997745,27.140456 C 18.528582,18.264221 13.291696,25.230495 11.500037,31.436501 z"
             style="fill:#404040;"/>
          </a>
         </g>
        </svg>
</svg>
