<?xml version="1.0" encoding="UTF-8" standalone="no"?>
<!DOCTYPE svg PUBLIC "-//W3C//DTD SVG 1.1//EN"
 "http://www.w3.org/Graphics/SVG/1.1/DTD/svg11.dtd">
<!-- Generated by graphviz version 2.43.0 (0)
 -->
<!-- Title: sobel_edge_detection_kernel Pages: 1 -->
<svg width="279pt" height="186pt"
 viewBox="0.00 0.00 279.00 186.00" xmlns="http://www.w3.org/2000/svg" xmlns:xlink="http://www.w3.org/1999/xlink">
<g id="graph0" class="graph" transform="scale(1 1) rotate(0) translate(4 182)">
<title>sobel_edge_detection_kernel</title>
<polygon fill="white" stroke="transparent" points="-4,4 -4,-182 275,-182 275,4 -4,4"/>
<!-- Node1 -->
<g id="node1" class="node">
<title>Node1</title>
<g id="a_node1"><a xlink:title=" ">
<polygon fill="#bfbfbf" stroke="black" points="0,-73.5 0,-103.5 123,-103.5 123,-73.5 0,-73.5"/>
<text text-anchor="start" x="8" y="-91.5" font-family="Helvetica,sans-Serif" font-size="10.00">sobel_edge_detection</text>
<text text-anchor="middle" x="61.5" y="-80.5" font-family="Helvetica,sans-Serif" font-size="10.00">_kernel</text>
</a>
</g>
</g>
<!-- Node2 -->
<g id="node2" class="node">
<title>Node2</title>
<g id="a_node2"><a xlink:href="classdevice__view_1_1View.html#a9c7e4ca344806f60324e417bbf516250" target="_top" xlink:title="Get image height.">
<polygon fill="white" stroke="black" points="159,-147.5 159,-177.5 271,-177.5 271,-147.5 159,-147.5"/>
<text text-anchor="start" x="167" y="-165.5" font-family="Helvetica,sans-Serif" font-size="10.00">device_view::View::</text>
<text text-anchor="middle" x="215" y="-154.5" font-family="Helvetica,sans-Serif" font-size="10.00">get_height</text>
</a>
</g>
</g>
<!-- Node1&#45;&gt;Node2 -->
<g id="edge1" class="edge">
<title>Node1&#45;&gt;Node2</title>
<path fill="none" stroke="midnightblue" d="M90.54,-103.66C109.67,-113.84 135.66,-127.38 159,-138.5 162.35,-140.1 165.83,-141.71 169.34,-143.31"/>
<polygon fill="midnightblue" stroke="midnightblue" points="168.08,-146.58 178.63,-147.48 170.94,-140.19 168.08,-146.58"/>
</g>
<!-- Node3 -->
<g id="node3" class="node">
<title>Node3</title>
<g id="a_node3"><a xlink:href="classdevice__view_1_1View.html#acc975b14c705590b4363be6aaeb91d74" target="_top" xlink:title="Get pixel color at specified coordinates (no bounds checking)">
<polygon fill="white" stroke="black" points="159,-98.5 159,-128.5 271,-128.5 271,-98.5 159,-98.5"/>
<text text-anchor="start" x="167" y="-116.5" font-family="Helvetica,sans-Serif" font-size="10.00">device_view::View::</text>
<text text-anchor="middle" x="215" y="-105.5" font-family="Helvetica,sans-Serif" font-size="10.00">get_pixel</text>
</a>
</g>
</g>
<!-- Node1&#45;&gt;Node3 -->
<g id="edge2" class="edge">
<title>Node1&#45;&gt;Node3</title>
<path fill="none" stroke="midnightblue" d="M123.25,-98.52C131.56,-99.9 140.12,-101.31 148.51,-102.69"/>
<polygon fill="midnightblue" stroke="midnightblue" points="148.2,-106.19 158.63,-104.36 149.34,-99.28 148.2,-106.19"/>
</g>
<!-- Node4 -->
<g id="node4" class="node">
<title>Node4</title>
<g id="a_node4"><a xlink:href="classdevice__view_1_1View.html#a499e9c9d21980d9a28d5327a1f33b913" target="_top" xlink:title="Get image width.">
<polygon fill="white" stroke="black" points="159,-49.5 159,-79.5 271,-79.5 271,-49.5 159,-49.5"/>
<text text-anchor="start" x="167" y="-67.5" font-family="Helvetica,sans-Serif" font-size="10.00">device_view::View::</text>
<text text-anchor="middle" x="215" y="-56.5" font-family="Helvetica,sans-Serif" font-size="10.00">get_width</text>
</a>
</g>
</g>
<!-- Node1&#45;&gt;Node4 -->
<g id="edge3" class="edge">
<title>Node1&#45;&gt;Node4</title>
<path fill="none" stroke="midnightblue" d="M123.25,-78.88C131.56,-77.56 140.12,-76.2 148.51,-74.87"/>
<polygon fill="midnightblue" stroke="midnightblue" points="149.3,-78.29 158.63,-73.27 148.21,-71.38 149.3,-78.29"/>
</g>
<!-- Node5 -->
<g id="node5" class="node">
<title>Node5</title>
<g id="a_node5"><a xlink:href="classdevice__view_1_1View.html#ad71c34006984accf7ceb986a43983b5f" target="_top" xlink:title="Set pixel color at specified coordinates.">
<polygon fill="white" stroke="black" points="159,-0.5 159,-30.5 271,-30.5 271,-0.5 159,-0.5"/>
<text text-anchor="start" x="167" y="-18.5" font-family="Helvetica,sans-Serif" font-size="10.00">device_view::View::</text>
<text text-anchor="middle" x="215" y="-7.5" font-family="Helvetica,sans-Serif" font-size="10.00">set_pixel</text>
</a>
</g>
</g>
<!-- Node1&#45;&gt;Node5 -->
<g id="edge4" class="edge">
<title>Node1&#45;&gt;Node5</title>
<path fill="none" stroke="midnightblue" d="M92.36,-73.31C111.36,-63.73 136.53,-51.19 159,-40.5 163,-38.6 167.17,-36.64 171.36,-34.71"/>
<polygon fill="midnightblue" stroke="midnightblue" points="172.84,-37.87 180.47,-30.52 169.92,-31.51 172.84,-37.87"/>
</g>
</g>
</svg>
