<?xml version="1.0" encoding="UTF-8" standalone="no"?>
<!DOCTYPE svg PUBLIC "-//W3C//DTD SVG 1.1//EN"
 "http://www.w3.org/Graphics/SVG/1.1/DTD/svg11.dtd">
<!-- Generated by graphviz version 2.43.0 (0)
 -->
<!-- Title: src/Image/ImageKernels.cu Pages: 1 -->
<svg width="460pt" height="252pt"
 viewBox="0.00 0.00 460.00 252.00" xmlns="http://www.w3.org/2000/svg" xmlns:xlink="http://www.w3.org/1999/xlink">
<g id="graph0" class="graph" transform="scale(1 1) rotate(0) translate(4 248)">
<title>src/Image/ImageKernels.cu</title>
<polygon fill="white" stroke="transparent" points="-4,4 -4,-248 456,-248 456,4 -4,4"/>
<!-- Node1 -->
<g id="node1" class="node">
<title>Node1</title>
<g id="a_node1"><a xlink:title=" ">
<polygon fill="#bfbfbf" stroke="black" points="177.5,-224.5 177.5,-243.5 326.5,-243.5 326.5,-224.5 177.5,-224.5"/>
<text text-anchor="middle" x="252" y="-231.5" font-family="Helvetica,sans-Serif" font-size="10.00">src/Image/ImageKernels.cu</text>
</a>
</g>
</g>
<!-- Node2 -->
<g id="node2" class="node">
<title>Node2</title>
<g id="a_node2"><a xlink:href="Pixel_8cuh.html" target="_top" xlink:title="Wrapper class for pixels of different color formats.">
<polygon fill="white" stroke="black" points="0,-56.5 0,-75.5 60,-75.5 60,-56.5 0,-56.5"/>
<text text-anchor="middle" x="30" y="-63.5" font-family="Helvetica,sans-Serif" font-size="10.00">Pixel.cuh</text>
</a>
</g>
</g>
<!-- Node1&#45;&gt;Node2 -->
<g id="edge1" class="edge">
<title>Node1&#45;&gt;Node2</title>
<path fill="none" stroke="midnightblue" d="M191.22,-224.47C138.38,-213.37 65.5,-188.22 34,-132 26.14,-117.98 25.78,-99.48 27.01,-85.8"/>
<polygon fill="midnightblue" stroke="midnightblue" points="30.51,-86.01 28.29,-75.65 23.57,-85.14 30.51,-86.01"/>
</g>
<!-- Node4 -->
<g id="node4" class="node">
<title>Node4</title>
<g id="a_node4"><a xlink:href="Image_8cuh.html" target="_top" xlink:title="Image processing classes for CUDA&#45;based operations.">
<polygon fill="white" stroke="black" points="122.5,-168.5 122.5,-187.5 223.5,-187.5 223.5,-168.5 122.5,-168.5"/>
<text text-anchor="middle" x="173" y="-175.5" font-family="Helvetica,sans-Serif" font-size="10.00">image/Image.cuh</text>
</a>
</g>
</g>
<!-- Node1&#45;&gt;Node4 -->
<g id="edge3" class="edge">
<title>Node1&#45;&gt;Node4</title>
<path fill="none" stroke="midnightblue" d="M239.31,-224.32C227.1,-215.98 208.42,-203.21 194,-193.35"/>
<polygon fill="midnightblue" stroke="midnightblue" points="195.89,-190.41 185.66,-187.65 191.94,-196.19 195.89,-190.41"/>
</g>
<!-- Node8 -->
<g id="node8" class="node">
<title>Node8</title>
<g id="a_node8"><a xlink:href="View_8cuh.html" target="_top" xlink:title="Device&#45;side view interface for image processing kernels.">
<polygon fill="white" stroke="black" points="286,-112.5 286,-131.5 346,-131.5 346,-112.5 286,-112.5"/>
<text text-anchor="middle" x="316" y="-119.5" font-family="Helvetica,sans-Serif" font-size="10.00">View.cuh</text>
</a>
</g>
</g>
<!-- Node1&#45;&gt;Node8 -->
<g id="edge10" class="edge">
<title>Node1&#45;&gt;Node8</title>
<path fill="none" stroke="midnightblue" d="M253.29,-224.48C255.54,-211.53 261.02,-186.47 272,-168 278.67,-156.78 288.69,-146.24 297.49,-138.18"/>
<polygon fill="midnightblue" stroke="midnightblue" points="299.87,-140.75 305.09,-131.53 295.26,-135.48 299.87,-140.75"/>
</g>
<!-- Node9 -->
<g id="node9" class="node">
<title>Node9</title>
<g id="a_node9"><a xlink:title=" ">
<polygon fill="white" stroke="#bfbfbf" points="280.5,-168.5 280.5,-187.5 339.5,-187.5 339.5,-168.5 280.5,-168.5"/>
<text text-anchor="middle" x="310" y="-175.5" font-family="Helvetica,sans-Serif" font-size="10.00">curand.h</text>
</a>
</g>
</g>
<!-- Node1&#45;&gt;Node9 -->
<g id="edge11" class="edge">
<title>Node1&#45;&gt;Node9</title>
<path fill="none" stroke="midnightblue" d="M261.32,-224.32C269.89,-216.34 282.81,-204.31 293.19,-194.65"/>
<polygon fill="midnightblue" stroke="midnightblue" points="295.58,-197.21 300.51,-187.83 290.81,-192.09 295.58,-197.21"/>
</g>
<!-- Node10 -->
<g id="node10" class="node">
<title>Node10</title>
<g id="a_node10"><a xlink:title=" ">
<polygon fill="white" stroke="#bfbfbf" points="358,-168.5 358,-187.5 452,-187.5 452,-168.5 358,-168.5"/>
<text text-anchor="middle" x="405" y="-175.5" font-family="Helvetica,sans-Serif" font-size="10.00">curand_kernel.h</text>
</a>
</g>
</g>
<!-- Node1&#45;&gt;Node10 -->
<g id="edge12" class="edge">
<title>Node1&#45;&gt;Node10</title>
<path fill="none" stroke="midnightblue" d="M276.24,-224.44C301.87,-215.4 342.49,-201.06 371.24,-190.92"/>
<polygon fill="midnightblue" stroke="midnightblue" points="372.61,-194.15 380.87,-187.52 370.28,-187.54 372.61,-194.15"/>
</g>
<!-- Node3 -->
<g id="node3" class="node">
<title>Node3</title>
<g id="a_node3"><a xlink:title=" ">
<polygon fill="white" stroke="#bfbfbf" points="5,-0.5 5,-19.5 55,-19.5 55,-0.5 5,-0.5"/>
<text text-anchor="middle" x="30" y="-7.5" font-family="Helvetica,sans-Serif" font-size="10.00">stdio.h</text>
</a>
</g>
</g>
<!-- Node2&#45;&gt;Node3 -->
<g id="edge2" class="edge">
<title>Node2&#45;&gt;Node3</title>
<path fill="none" stroke="midnightblue" d="M30,-56.08C30,-49.01 30,-38.86 30,-29.99"/>
<polygon fill="midnightblue" stroke="midnightblue" points="33.5,-29.75 30,-19.75 26.5,-29.75 33.5,-29.75"/>
</g>
<!-- Node4&#45;&gt;Node2 -->
<g id="edge7" class="edge">
<title>Node4&#45;&gt;Node2</title>
<path fill="none" stroke="midnightblue" d="M122.36,-169.67C97.17,-163.55 68.12,-152.38 49,-132 37.32,-119.55 32.78,-100.32 31.03,-86"/>
<polygon fill="midnightblue" stroke="midnightblue" points="34.5,-85.45 30.15,-75.79 27.53,-86.05 34.5,-85.45"/>
</g>
<!-- Node5 -->
<g id="node5" class="node">
<title>Node5</title>
<g id="a_node5"><a xlink:title=" ">
<polygon fill="white" stroke="#bfbfbf" points="58,-112.5 58,-131.5 126,-131.5 126,-112.5 58,-112.5"/>
<text text-anchor="middle" x="92" y="-119.5" font-family="Helvetica,sans-Serif" font-size="10.00">filesystem</text>
</a>
</g>
</g>
<!-- Node4&#45;&gt;Node5 -->
<g id="edge4" class="edge">
<title>Node4&#45;&gt;Node5</title>
<path fill="none" stroke="midnightblue" d="M159.99,-168.32C147.47,-159.98 128.32,-147.21 113.53,-137.35"/>
<polygon fill="midnightblue" stroke="midnightblue" points="115.24,-134.29 104.98,-131.65 111.36,-140.11 115.24,-134.29"/>
</g>
<!-- Node6 -->
<g id="node6" class="node">
<title>Node6</title>
<g id="a_node6"><a xlink:title=" ">
<polygon fill="white" stroke="#bfbfbf" points="144,-112.5 144,-131.5 202,-131.5 202,-112.5 144,-112.5"/>
<text text-anchor="middle" x="173" y="-119.5" font-family="Helvetica,sans-Serif" font-size="10.00">memory</text>
</a>
</g>
</g>
<!-- Node4&#45;&gt;Node6 -->
<g id="edge5" class="edge">
<title>Node4&#45;&gt;Node6</title>
<path fill="none" stroke="midnightblue" d="M173,-168.08C173,-161.01 173,-150.86 173,-141.99"/>
<polygon fill="midnightblue" stroke="midnightblue" points="176.5,-141.75 173,-131.75 169.5,-141.75 176.5,-141.75"/>
</g>
<!-- Node7 -->
<g id="node7" class="node">
<title>Node7</title>
<g id="a_node7"><a xlink:title=" ">
<polygon fill="white" stroke="#bfbfbf" points="220.5,-112.5 220.5,-131.5 267.5,-131.5 267.5,-112.5 220.5,-112.5"/>
<text text-anchor="middle" x="244" y="-119.5" font-family="Helvetica,sans-Serif" font-size="10.00">vector</text>
</a>
</g>
</g>
<!-- Node4&#45;&gt;Node7 -->
<g id="edge6" class="edge">
<title>Node4&#45;&gt;Node7</title>
<path fill="none" stroke="midnightblue" d="M184.41,-168.32C195.11,-160.18 211.34,-147.84 224.16,-138.09"/>
<polygon fill="midnightblue" stroke="midnightblue" points="226.54,-140.67 232.39,-131.83 222.31,-135.1 226.54,-140.67"/>
</g>
<!-- Node4&#45;&gt;Node8 -->
<g id="edge8" class="edge">
<title>Node4&#45;&gt;Node8</title>
<path fill="none" stroke="midnightblue" d="M195.66,-168.44C219.4,-159.48 256.91,-145.31 283.74,-135.18"/>
<polygon fill="midnightblue" stroke="midnightblue" points="285.33,-138.32 293.45,-131.52 282.86,-131.77 285.33,-138.32"/>
</g>
<!-- Node8&#45;&gt;Node2 -->
<g id="edge9" class="edge">
<title>Node8&#45;&gt;Node2</title>
<path fill="none" stroke="midnightblue" d="M285.8,-113.88C282.83,-113.23 279.86,-112.59 277,-112 204.27,-96.99 118.94,-82.03 70,-73.7"/>
<polygon fill="midnightblue" stroke="midnightblue" points="70.57,-70.24 60.12,-72.02 69.4,-77.15 70.57,-70.24"/>
</g>
</g>
</svg>
