<?xml version="1.0" encoding="UTF-8" standalone="no"?>
<!DOCTYPE svg PUBLIC "-//W3C//DTD SVG 1.1//EN"
 "http://www.w3.org/Graphics/SVG/1.1/DTD/svg11.dtd">
<!-- Generated by graphviz version 2.43.0 (0)
 -->
<!-- Title: gaussian_blur_horizontal Pages: 1 -->
<svg width="294pt" height="186pt"
 viewBox="0.00 0.00 294.00 186.00" xmlns="http://www.w3.org/2000/svg" xmlns:xlink="http://www.w3.org/1999/xlink">
<g id="graph0" class="graph" transform="scale(1 1) rotate(0) translate(4 182)">
<title>gaussian_blur_horizontal</title>
<polygon fill="white" stroke="transparent" points="-4,4 -4,-182 290,-182 290,4 -4,4"/>
<!-- Node1 -->
<g id="node1" class="node">
<title>Node1</title>
<g id="a_node1"><a xlink:title=" ">
<polygon fill="#bfbfbf" stroke="black" points="0,-79 0,-98 138,-98 138,-79 0,-79"/>
<text text-anchor="middle" x="69" y="-86" font-family="Helvetica,sans-Serif" font-size="10.00">gaussian_blur_horizontal</text>
</a>
</g>
</g>
<!-- Node2 -->
<g id="node2" class="node">
<title>Node2</title>
<g id="a_node2"><a xlink:href="classdevice__view_1_1View.html#a9c7e4ca344806f60324e417bbf516250" target="_top" xlink:title="Get image height.">
<polygon fill="white" stroke="black" points="174,-147.5 174,-177.5 286,-177.5 286,-147.5 174,-147.5"/>
<text text-anchor="start" x="182" y="-165.5" font-family="Helvetica,sans-Serif" font-size="10.00">device_view::View::</text>
<text text-anchor="middle" x="230" y="-154.5" font-family="Helvetica,sans-Serif" font-size="10.00">get_height</text>
</a>
</g>
</g>
<!-- Node1&#45;&gt;Node2 -->
<g id="edge1" class="edge">
<title>Node1&#45;&gt;Node2</title>
<path fill="none" stroke="midnightblue" d="M89.45,-98.11C110.27,-108.34 144.31,-124.89 174,-138.5 177.42,-140.07 180.97,-141.67 184.55,-143.27"/>
<polygon fill="midnightblue" stroke="midnightblue" points="183.44,-146.61 194,-147.46 186.27,-140.21 183.44,-146.61"/>
</g>
<!-- Node3 -->
<g id="node3" class="node">
<title>Node3</title>
<g id="a_node3"><a xlink:href="classdevice__view_1_1View.html#acc975b14c705590b4363be6aaeb91d74" target="_top" xlink:title="Get pixel color at specified coordinates (no bounds checking)">
<polygon fill="white" stroke="black" points="174,-98.5 174,-128.5 286,-128.5 286,-98.5 174,-98.5"/>
<text text-anchor="start" x="182" y="-116.5" font-family="Helvetica,sans-Serif" font-size="10.00">device_view::View::</text>
<text text-anchor="middle" x="230" y="-105.5" font-family="Helvetica,sans-Serif" font-size="10.00">get_pixel</text>
</a>
</g>
</g>
<!-- Node1&#45;&gt;Node3 -->
<g id="edge2" class="edge">
<title>Node1&#45;&gt;Node3</title>
<path fill="none" stroke="midnightblue" d="M130.56,-98.02C141.45,-99.73 152.84,-101.52 163.85,-103.26"/>
<polygon fill="midnightblue" stroke="midnightblue" points="163.4,-106.73 173.82,-104.82 164.49,-99.81 163.4,-106.73"/>
</g>
<!-- Node4 -->
<g id="node4" class="node">
<title>Node4</title>
<g id="a_node4"><a xlink:href="classdevice__view_1_1View.html#a499e9c9d21980d9a28d5327a1f33b913" target="_top" xlink:title="Get image width.">
<polygon fill="white" stroke="black" points="174,-49.5 174,-79.5 286,-79.5 286,-49.5 174,-49.5"/>
<text text-anchor="start" x="182" y="-67.5" font-family="Helvetica,sans-Serif" font-size="10.00">device_view::View::</text>
<text text-anchor="middle" x="230" y="-56.5" font-family="Helvetica,sans-Serif" font-size="10.00">get_width</text>
</a>
</g>
</g>
<!-- Node1&#45;&gt;Node4 -->
<g id="edge3" class="edge">
<title>Node1&#45;&gt;Node4</title>
<path fill="none" stroke="midnightblue" d="M133.3,-78.95C143.37,-77.43 153.79,-75.85 163.9,-74.33"/>
<polygon fill="midnightblue" stroke="midnightblue" points="164.51,-77.77 173.88,-72.82 163.47,-70.85 164.51,-77.77"/>
</g>
<!-- Node5 -->
<g id="node5" class="node">
<title>Node5</title>
<g id="a_node5"><a xlink:href="classdevice__view_1_1View.html#ad71c34006984accf7ceb986a43983b5f" target="_top" xlink:title="Set pixel color at specified coordinates.">
<polygon fill="white" stroke="black" points="174,-0.5 174,-30.5 286,-30.5 286,-0.5 174,-0.5"/>
<text text-anchor="start" x="182" y="-18.5" font-family="Helvetica,sans-Serif" font-size="10.00">device_view::View::</text>
<text text-anchor="middle" x="230" y="-7.5" font-family="Helvetica,sans-Serif" font-size="10.00">set_pixel</text>
</a>
</g>
</g>
<!-- Node1&#45;&gt;Node5 -->
<g id="edge4" class="edge">
<title>Node1&#45;&gt;Node5</title>
<path fill="none" stroke="midnightblue" d="M90.7,-78.9C111.68,-69.19 145.07,-53.75 174,-40.5 178.08,-38.63 182.33,-36.69 186.58,-34.75"/>
<polygon fill="midnightblue" stroke="midnightblue" points="188.18,-37.87 195.83,-30.54 185.28,-31.5 188.18,-37.87"/>
</g>
</g>
</svg>
