<?xml version="1.0" encoding="UTF-8" standalone="no"?>
<!DOCTYPE svg PUBLIC "-//W3C//DTD SVG 1.1//EN"
 "http://www.w3.org/Graphics/SVG/1.1/DTD/svg11.dtd">
<!-- Generated by graphviz version 2.43.0 (0)
 -->
<!-- Title: integral_box_blur_kernel Pages: 1 -->
<svg width="298pt" height="301pt"
 viewBox="0.00 0.00 298.00 301.00" xmlns="http://www.w3.org/2000/svg" xmlns:xlink="http://www.w3.org/1999/xlink">
<g id="graph0" class="graph" transform="scale(1 1) rotate(0) translate(4 297)">
<title>integral_box_blur_kernel</title>
<polygon fill="white" stroke="transparent" points="-4,4 -4,-297 294,-297 294,4 -4,4"/>
<!-- Node1 -->
<g id="node1" class="node">
<title>Node1</title>
<g id="a_node1"><a xlink:title=" ">
<polygon fill="#bfbfbf" stroke="black" points="0,-126 0,-145 137,-145 137,-126 0,-126"/>
<text text-anchor="middle" x="68.5" y="-133" font-family="Helvetica,sans-Serif" font-size="10.00">integral_box_blur_kernel</text>
</a>
</g>
</g>
<!-- Node2 -->
<g id="node2" class="node">
<title>Node2</title>
<g id="a_node2"><a xlink:href="classdevice__view_1_1View.html#a9c7e4ca344806f60324e417bbf516250" target="_top" xlink:title="Get image height.">
<polygon fill="white" stroke="black" points="175.5,-262.5 175.5,-292.5 287.5,-292.5 287.5,-262.5 175.5,-262.5"/>
<text text-anchor="start" x="183.5" y="-280.5" font-family="Helvetica,sans-Serif" font-size="10.00">device_view::View::</text>
<text text-anchor="middle" x="231.5" y="-269.5" font-family="Helvetica,sans-Serif" font-size="10.00">get_height</text>
</a>
</g>
</g>
<!-- Node1&#45;&gt;Node2 -->
<g id="edge1" class="edge">
<title>Node1&#45;&gt;Node2</title>
<path fill="none" stroke="midnightblue" d="M75.62,-145.07C90.08,-167.02 128.52,-221.54 173,-253.5 174.89,-254.86 176.87,-256.16 178.91,-257.4"/>
<polygon fill="midnightblue" stroke="midnightblue" points="177.7,-260.73 188.16,-262.47 181.07,-254.59 177.7,-260.73"/>
</g>
<!-- Node3 -->
<g id="node3" class="node">
<title>Node3</title>
<g id="a_node3"><a xlink:href="classdevice__view_1_1View.html#acc975b14c705590b4363be6aaeb91d74" target="_top" xlink:title="Get pixel color at specified coordinates (no bounds checking)">
<polygon fill="white" stroke="black" points="175.5,-213.5 175.5,-243.5 287.5,-243.5 287.5,-213.5 175.5,-213.5"/>
<text text-anchor="start" x="183.5" y="-231.5" font-family="Helvetica,sans-Serif" font-size="10.00">device_view::View::</text>
<text text-anchor="middle" x="231.5" y="-220.5" font-family="Helvetica,sans-Serif" font-size="10.00">get_pixel</text>
</a>
</g>
</g>
<!-- Node1&#45;&gt;Node3 -->
<g id="edge2" class="edge">
<title>Node1&#45;&gt;Node3</title>
<path fill="none" stroke="midnightblue" d="M82.07,-145.04C101.07,-159.19 138.54,-186.05 173,-204.5 176.05,-206.13 179.23,-207.73 182.47,-209.28"/>
<polygon fill="midnightblue" stroke="midnightblue" points="181.12,-212.51 191.67,-213.5 184.04,-206.15 181.12,-212.51"/>
</g>
<!-- Node4 -->
<g id="node4" class="node">
<title>Node4</title>
<g id="a_node4"><a xlink:href="classdevice__view_1_1View.html#a499e9c9d21980d9a28d5327a1f33b913" target="_top" xlink:title="Get image width.">
<polygon fill="white" stroke="black" points="175.5,-164.5 175.5,-194.5 287.5,-194.5 287.5,-164.5 175.5,-164.5"/>
<text text-anchor="start" x="183.5" y="-182.5" font-family="Helvetica,sans-Serif" font-size="10.00">device_view::View::</text>
<text text-anchor="middle" x="231.5" y="-171.5" font-family="Helvetica,sans-Serif" font-size="10.00">get_width</text>
</a>
</g>
</g>
<!-- Node1&#45;&gt;Node4 -->
<g id="edge3" class="edge">
<title>Node1&#45;&gt;Node4</title>
<path fill="none" stroke="midnightblue" d="M104.43,-145.05C122.32,-149.93 144.68,-156.05 165.58,-161.76"/>
<polygon fill="midnightblue" stroke="midnightblue" points="164.81,-165.17 175.37,-164.43 166.65,-158.42 164.81,-165.17"/>
</g>
<!-- Node5 -->
<g id="node5" class="node">
<title>Node5</title>
<g id="a_node5"><a xlink:href="classpixel_1_1RGB.html#ae7ba1d9dc07647ec352fdbf74ab7a8de" target="_top" xlink:title="Get raw blue channel value (no clamping &#45; for integral image calculations)">
<polygon fill="white" stroke="black" points="173.5,-126 173.5,-145 289.5,-145 289.5,-126 173.5,-126"/>
<text text-anchor="middle" x="231.5" y="-133" font-family="Helvetica,sans-Serif" font-size="10.00">pixel::RGB::getBRaw</text>
</a>
</g>
</g>
<!-- Node1&#45;&gt;Node5 -->
<g id="edge4" class="edge">
<title>Node1&#45;&gt;Node5</title>
<path fill="none" stroke="midnightblue" d="M137.31,-135.5C145.96,-135.5 154.81,-135.5 163.44,-135.5"/>
<polygon fill="midnightblue" stroke="midnightblue" points="163.46,-139 173.46,-135.5 163.46,-132 163.46,-139"/>
</g>
<!-- Node6 -->
<g id="node6" class="node">
<title>Node6</title>
<g id="a_node6"><a xlink:href="classpixel_1_1RGB.html#a45187bdda20cd46cadd942d8af85b504" target="_top" xlink:title="Get raw green channel value (no clamping &#45; for integral image calculations)">
<polygon fill="white" stroke="black" points="173,-88 173,-107 290,-107 290,-88 173,-88"/>
<text text-anchor="middle" x="231.5" y="-95" font-family="Helvetica,sans-Serif" font-size="10.00">pixel::RGB::getGRaw</text>
</a>
</g>
</g>
<!-- Node1&#45;&gt;Node6 -->
<g id="edge5" class="edge">
<title>Node1&#45;&gt;Node6</title>
<path fill="none" stroke="midnightblue" d="M110.13,-125.91C131.47,-120.87 157.81,-114.66 180.41,-109.32"/>
<polygon fill="midnightblue" stroke="midnightblue" points="181.24,-112.72 190.17,-107.02 179.63,-105.91 181.24,-112.72"/>
</g>
<!-- Node7 -->
<g id="node7" class="node">
<title>Node7</title>
<g id="a_node7"><a xlink:href="classpixel_1_1RGB.html#a1015e651c304e9494b3d3331b67a3a2e" target="_top" xlink:title="Get raw red channel value (no clamping &#45; for integral image calculations)">
<polygon fill="white" stroke="black" points="173.5,-50 173.5,-69 289.5,-69 289.5,-50 173.5,-50"/>
<text text-anchor="middle" x="231.5" y="-57" font-family="Helvetica,sans-Serif" font-size="10.00">pixel::RGB::getRRaw</text>
</a>
</g>
</g>
<!-- Node1&#45;&gt;Node7 -->
<g id="edge6" class="edge">
<title>Node1&#45;&gt;Node7</title>
<path fill="none" stroke="midnightblue" d="M84.83,-125.88C104.64,-113.73 140.47,-92.69 173,-78.5 178,-76.32 183.33,-74.24 188.66,-72.32"/>
<polygon fill="midnightblue" stroke="midnightblue" points="189.87,-75.6 198.17,-69.02 187.58,-68.99 189.87,-75.6"/>
</g>
<!-- Node8 -->
<g id="node8" class="node">
<title>Node8</title>
<g id="a_node8"><a xlink:href="classdevice__view_1_1View.html#ad71c34006984accf7ceb986a43983b5f" target="_top" xlink:title="Set pixel color at specified coordinates.">
<polygon fill="white" stroke="black" points="175.5,-0.5 175.5,-30.5 287.5,-30.5 287.5,-0.5 175.5,-0.5"/>
<text text-anchor="start" x="183.5" y="-18.5" font-family="Helvetica,sans-Serif" font-size="10.00">device_view::View::</text>
<text text-anchor="middle" x="231.5" y="-7.5" font-family="Helvetica,sans-Serif" font-size="10.00">set_pixel</text>
</a>
</g>
</g>
<!-- Node1&#45;&gt;Node8 -->
<g id="edge7" class="edge">
<title>Node1&#45;&gt;Node8</title>
<path fill="none" stroke="midnightblue" d="M78.05,-125.73C94.75,-107.12 133.53,-66.15 173,-40.5 175.78,-38.69 178.72,-36.96 181.73,-35.31"/>
<polygon fill="midnightblue" stroke="midnightblue" points="183.61,-38.28 190.93,-30.62 180.43,-32.04 183.61,-38.28"/>
</g>
</g>
</svg>
