<?xml version="1.0" encoding="UTF-8" standalone="no"?>
<!DOCTYPE svg PUBLIC "-//W3C//DTD SVG 1.1//EN"
 "http://www.w3.org/Graphics/SVG/1.1/DTD/svg11.dtd">
<!-- Generated by graphviz version 2.43.0 (0)
 -->
<!-- Title: include/image/ImageCuda.cuh Pages: 1 -->
<svg width="387pt" height="252pt"
 viewBox="0.00 0.00 387.00 252.00" xmlns="http://www.w3.org/2000/svg" xmlns:xlink="http://www.w3.org/1999/xlink">
<g id="graph0" class="graph" transform="scale(1 1) rotate(0) translate(4 248)">
<title>include/image/ImageCuda.cuh</title>
<polygon fill="white" stroke="transparent" points="-4,4 -4,-248 383,-248 383,4 -4,4"/>
<!-- Node1 -->
<g id="node1" class="node">
<title>Node1</title>
<g id="a_node1"><a xlink:title=" ">
<polygon fill="#bfbfbf" stroke="black" points="106,-224.5 106,-243.5 270,-243.5 270,-224.5 106,-224.5"/>
<text text-anchor="middle" x="188" y="-231.5" font-family="Helvetica,sans-Serif" font-size="10.00">include/image/ImageCuda.cuh</text>
</a>
</g>
</g>
<!-- Node2 -->
<g id="node2" class="node">
<title>Node2</title>
<g id="a_node2"><a xlink:href="View_8cuh.html" target="_top" xlink:title="Device&#45;side view interface for image processing kernels.">
<polygon fill="white" stroke="black" points="0,-112.5 0,-131.5 60,-131.5 60,-112.5 0,-112.5"/>
<text text-anchor="middle" x="30" y="-119.5" font-family="Helvetica,sans-Serif" font-size="10.00">View.cuh</text>
</a>
</g>
</g>
<!-- Node1&#45;&gt;Node2 -->
<g id="edge1" class="edge">
<title>Node1&#45;&gt;Node2</title>
<path fill="none" stroke="midnightblue" d="M155.11,-224.45C132.15,-217.35 101.67,-205.53 79,-188 62.29,-175.08 48.38,-155.08 39.71,-140.68"/>
<polygon fill="midnightblue" stroke="midnightblue" points="42.59,-138.67 34.57,-131.76 36.53,-142.17 42.59,-138.67"/>
</g>
<!-- Node5 -->
<g id="node5" class="node">
<title>Node5</title>
<g id="a_node5"><a xlink:href="Image_8cuh.html" target="_top" xlink:title="Image processing classes for CUDA&#45;based operations.">
<polygon fill="white" stroke="black" points="88.5,-168.5 88.5,-187.5 189.5,-187.5 189.5,-168.5 88.5,-168.5"/>
<text text-anchor="middle" x="139" y="-175.5" font-family="Helvetica,sans-Serif" font-size="10.00">image/Image.cuh</text>
</a>
</g>
</g>
<!-- Node1&#45;&gt;Node5 -->
<g id="edge4" class="edge">
<title>Node1&#45;&gt;Node5</title>
<path fill="none" stroke="midnightblue" d="M179.91,-224.08C172.84,-216.3 162.41,-204.8 153.85,-195.37"/>
<polygon fill="midnightblue" stroke="midnightblue" points="156.25,-192.8 146.94,-187.75 151.07,-197.51 156.25,-192.8"/>
</g>
<!-- Node9 -->
<g id="node9" class="node">
<title>Node9</title>
<g id="a_node9"><a xlink:title=" ">
<polygon fill="white" stroke="#bfbfbf" points="207.5,-168.5 207.5,-187.5 266.5,-187.5 266.5,-168.5 207.5,-168.5"/>
<text text-anchor="middle" x="237" y="-175.5" font-family="Helvetica,sans-Serif" font-size="10.00">curand.h</text>
</a>
</g>
</g>
<!-- Node1&#45;&gt;Node9 -->
<g id="edge10" class="edge">
<title>Node1&#45;&gt;Node9</title>
<path fill="none" stroke="midnightblue" d="M196.09,-224.08C203.16,-216.3 213.59,-204.8 222.15,-195.37"/>
<polygon fill="midnightblue" stroke="midnightblue" points="224.93,-197.51 229.06,-187.75 219.75,-192.8 224.93,-197.51"/>
</g>
<!-- Node10 -->
<g id="node10" class="node">
<title>Node10</title>
<g id="a_node10"><a xlink:title=" ">
<polygon fill="white" stroke="#bfbfbf" points="285,-168.5 285,-187.5 379,-187.5 379,-168.5 285,-168.5"/>
<text text-anchor="middle" x="332" y="-175.5" font-family="Helvetica,sans-Serif" font-size="10.00">curand_kernel.h</text>
</a>
</g>
</g>
<!-- Node1&#45;&gt;Node10 -->
<g id="edge11" class="edge">
<title>Node1&#45;&gt;Node10</title>
<path fill="none" stroke="midnightblue" d="M210.82,-224.44C234.83,-215.44 272.83,-201.19 299.87,-191.05"/>
<polygon fill="midnightblue" stroke="midnightblue" points="301.16,-194.3 309.29,-187.52 298.7,-187.75 301.16,-194.3"/>
</g>
<!-- Node3 -->
<g id="node3" class="node">
<title>Node3</title>
<g id="a_node3"><a xlink:href="Pixel_8cuh.html" target="_top" xlink:title="Wrapper class for pixels of different color formats.">
<polygon fill="white" stroke="black" points="29,-56.5 29,-75.5 89,-75.5 89,-56.5 29,-56.5"/>
<text text-anchor="middle" x="59" y="-63.5" font-family="Helvetica,sans-Serif" font-size="10.00">Pixel.cuh</text>
</a>
</g>
</g>
<!-- Node2&#45;&gt;Node3 -->
<g id="edge2" class="edge">
<title>Node2&#45;&gt;Node3</title>
<path fill="none" stroke="midnightblue" d="M34.79,-112.08C38.76,-104.69 44.53,-93.95 49.43,-84.81"/>
<polygon fill="midnightblue" stroke="midnightblue" points="52.65,-86.22 54.3,-75.75 46.49,-82.91 52.65,-86.22"/>
</g>
<!-- Node4 -->
<g id="node4" class="node">
<title>Node4</title>
<g id="a_node4"><a xlink:title=" ">
<polygon fill="white" stroke="#bfbfbf" points="34,-0.5 34,-19.5 84,-19.5 84,-0.5 34,-0.5"/>
<text text-anchor="middle" x="59" y="-7.5" font-family="Helvetica,sans-Serif" font-size="10.00">stdio.h</text>
</a>
</g>
</g>
<!-- Node3&#45;&gt;Node4 -->
<g id="edge3" class="edge">
<title>Node3&#45;&gt;Node4</title>
<path fill="none" stroke="midnightblue" d="M59,-56.08C59,-49.01 59,-38.86 59,-29.99"/>
<polygon fill="midnightblue" stroke="midnightblue" points="62.5,-29.75 59,-19.75 55.5,-29.75 62.5,-29.75"/>
</g>
<!-- Node5&#45;&gt;Node2 -->
<g id="edge9" class="edge">
<title>Node5&#45;&gt;Node2</title>
<path fill="none" stroke="midnightblue" d="M121.49,-168.32C103.93,-159.62 76.67,-146.12 56.47,-136.11"/>
<polygon fill="midnightblue" stroke="midnightblue" points="57.98,-132.96 47.47,-131.65 54.88,-139.23 57.98,-132.96"/>
</g>
<!-- Node5&#45;&gt;Node3 -->
<g id="edge8" class="edge">
<title>Node5&#45;&gt;Node3</title>
<path fill="none" stroke="midnightblue" d="M132.72,-168.37C119.52,-150.22 88.67,-107.8 71.36,-83.99"/>
<polygon fill="midnightblue" stroke="midnightblue" points="73.96,-81.62 65.25,-75.59 68.3,-85.74 73.96,-81.62"/>
</g>
<!-- Node6 -->
<g id="node6" class="node">
<title>Node6</title>
<g id="a_node6"><a xlink:title=" ">
<polygon fill="white" stroke="#bfbfbf" points="116,-112.5 116,-131.5 184,-131.5 184,-112.5 116,-112.5"/>
<text text-anchor="middle" x="150" y="-119.5" font-family="Helvetica,sans-Serif" font-size="10.00">filesystem</text>
</a>
</g>
</g>
<!-- Node5&#45;&gt;Node6 -->
<g id="edge5" class="edge">
<title>Node5&#45;&gt;Node6</title>
<path fill="none" stroke="midnightblue" d="M140.82,-168.08C142.27,-160.93 144.37,-150.64 146.19,-141.69"/>
<polygon fill="midnightblue" stroke="midnightblue" points="149.65,-142.25 148.22,-131.75 142.79,-140.85 149.65,-142.25"/>
</g>
<!-- Node7 -->
<g id="node7" class="node">
<title>Node7</title>
<g id="a_node7"><a xlink:title=" ">
<polygon fill="white" stroke="#bfbfbf" points="202,-112.5 202,-131.5 260,-131.5 260,-112.5 202,-112.5"/>
<text text-anchor="middle" x="231" y="-119.5" font-family="Helvetica,sans-Serif" font-size="10.00">memory</text>
</a>
</g>
</g>
<!-- Node5&#45;&gt;Node7 -->
<g id="edge6" class="edge">
<title>Node5&#45;&gt;Node7</title>
<path fill="none" stroke="midnightblue" d="M153.78,-168.32C168.27,-159.82 190.57,-146.73 207.49,-136.8"/>
<polygon fill="midnightblue" stroke="midnightblue" points="209.4,-139.74 216.26,-131.65 205.86,-133.7 209.4,-139.74"/>
</g>
<!-- Node8 -->
<g id="node8" class="node">
<title>Node8</title>
<g id="a_node8"><a xlink:title=" ">
<polygon fill="white" stroke="#bfbfbf" points="278.5,-112.5 278.5,-131.5 325.5,-131.5 325.5,-112.5 278.5,-112.5"/>
<text text-anchor="middle" x="302" y="-119.5" font-family="Helvetica,sans-Serif" font-size="10.00">vector</text>
</a>
</g>
</g>
<!-- Node5&#45;&gt;Node8 -->
<g id="edge7" class="edge">
<title>Node5&#45;&gt;Node8</title>
<path fill="none" stroke="midnightblue" d="M164.83,-168.44C192.89,-159.15 237.83,-144.26 268.57,-134.07"/>
<polygon fill="midnightblue" stroke="midnightblue" points="270.02,-137.28 278.41,-130.82 267.82,-130.64 270.02,-137.28"/>
</g>
</g>
</svg>
