<?xml version="1.0" encoding="UTF-8" standalone="no"?>
<!DOCTYPE svg PUBLIC "-//W3C//DTD SVG 1.1//EN"
 "http://www.w3.org/Graphics/SVG/1.1/DTD/svg11.dtd">
<!-- Generated by graphviz version 2.43.0 (0)
 -->
<!-- Title: include/image/Image.cuh Pages: 1 -->
<svg width="334pt" height="196pt"
 viewBox="0.00 0.00 334.00 196.00" xmlns="http://www.w3.org/2000/svg" xmlns:xlink="http://www.w3.org/1999/xlink">
<g id="graph0" class="graph" transform="scale(1 1) rotate(0) translate(4 192)">
<title>include/image/Image.cuh</title>
<polygon fill="white" stroke="transparent" points="-4,4 -4,-192 330,-192 330,4 -4,4"/>
<!-- Node1 -->
<g id="node1" class="node">
<title>Node1</title>
<g id="a_node1"><a xlink:title="Image processing classes for CUDA&#45;based operations.">
<polygon fill="#bfbfbf" stroke="black" points="116,-168.5 116,-187.5 256,-187.5 256,-168.5 116,-168.5"/>
<text text-anchor="middle" x="186" y="-175.5" font-family="Helvetica,sans-Serif" font-size="10.00">include/image/Image.cuh</text>
</a>
</g>
</g>
<!-- Node2 -->
<g id="node2" class="node">
<title>Node2</title>
<g id="a_node2"><a xlink:title=" ">
<polygon fill="white" stroke="#bfbfbf" points="0,-112.5 0,-131.5 68,-131.5 68,-112.5 0,-112.5"/>
<text text-anchor="middle" x="34" y="-119.5" font-family="Helvetica,sans-Serif" font-size="10.00">filesystem</text>
</a>
</g>
</g>
<!-- Node1&#45;&gt;Node2 -->
<g id="edge1" class="edge">
<title>Node1&#45;&gt;Node2</title>
<path fill="none" stroke="midnightblue" d="M161.92,-168.44C136.46,-159.4 96.11,-145.06 67.54,-134.92"/>
<polygon fill="midnightblue" stroke="midnightblue" points="68.57,-131.57 57.97,-131.52 66.22,-138.16 68.57,-131.57"/>
</g>
<!-- Node3 -->
<g id="node3" class="node">
<title>Node3</title>
<g id="a_node3"><a xlink:title=" ">
<polygon fill="white" stroke="#bfbfbf" points="86,-112.5 86,-131.5 144,-131.5 144,-112.5 86,-112.5"/>
<text text-anchor="middle" x="115" y="-119.5" font-family="Helvetica,sans-Serif" font-size="10.00">memory</text>
</a>
</g>
</g>
<!-- Node1&#45;&gt;Node3 -->
<g id="edge2" class="edge">
<title>Node1&#45;&gt;Node3</title>
<path fill="none" stroke="midnightblue" d="M174.59,-168.32C163.89,-160.18 147.66,-147.84 134.84,-138.09"/>
<polygon fill="midnightblue" stroke="midnightblue" points="136.69,-135.1 126.61,-131.83 132.46,-140.67 136.69,-135.1"/>
</g>
<!-- Node4 -->
<g id="node4" class="node">
<title>Node4</title>
<g id="a_node4"><a xlink:title=" ">
<polygon fill="white" stroke="#bfbfbf" points="162.5,-112.5 162.5,-131.5 209.5,-131.5 209.5,-112.5 162.5,-112.5"/>
<text text-anchor="middle" x="186" y="-119.5" font-family="Helvetica,sans-Serif" font-size="10.00">vector</text>
</a>
</g>
</g>
<!-- Node1&#45;&gt;Node4 -->
<g id="edge3" class="edge">
<title>Node1&#45;&gt;Node4</title>
<path fill="none" stroke="midnightblue" d="M186,-168.08C186,-161.01 186,-150.86 186,-141.99"/>
<polygon fill="midnightblue" stroke="midnightblue" points="189.5,-141.75 186,-131.75 182.5,-141.75 189.5,-141.75"/>
</g>
<!-- Node5 -->
<g id="node5" class="node">
<title>Node5</title>
<g id="a_node5"><a xlink:href="Pixel_8cuh.html" target="_top" xlink:title="Wrapper class for pixels of different color formats.">
<polygon fill="white" stroke="black" points="237,-56.5 237,-75.5 297,-75.5 297,-56.5 237,-56.5"/>
<text text-anchor="middle" x="267" y="-63.5" font-family="Helvetica,sans-Serif" font-size="10.00">Pixel.cuh</text>
</a>
</g>
</g>
<!-- Node1&#45;&gt;Node5 -->
<g id="edge4" class="edge">
<title>Node1&#45;&gt;Node5</title>
<path fill="none" stroke="midnightblue" d="M192.36,-168.37C205.78,-150.14 237.23,-107.43 254.72,-83.68"/>
<polygon fill="midnightblue" stroke="midnightblue" points="257.56,-85.72 260.67,-75.59 251.93,-81.57 257.56,-85.72"/>
</g>
<!-- Node7 -->
<g id="node7" class="node">
<title>Node7</title>
<g id="a_node7"><a xlink:href="View_8cuh.html" target="_top" xlink:title="Device&#45;side view interface for image processing kernels.">
<polygon fill="white" stroke="black" points="266,-112.5 266,-131.5 326,-131.5 326,-112.5 266,-112.5"/>
<text text-anchor="middle" x="296" y="-119.5" font-family="Helvetica,sans-Serif" font-size="10.00">View.cuh</text>
</a>
</g>
</g>
<!-- Node1&#45;&gt;Node7 -->
<g id="edge6" class="edge">
<title>Node1&#45;&gt;Node7</title>
<path fill="none" stroke="midnightblue" d="M203.67,-168.32C221.39,-159.62 248.9,-146.12 269.29,-136.11"/>
<polygon fill="midnightblue" stroke="midnightblue" points="270.94,-139.2 278.37,-131.65 267.85,-132.92 270.94,-139.2"/>
</g>
<!-- Node6 -->
<g id="node6" class="node">
<title>Node6</title>
<g id="a_node6"><a xlink:title=" ">
<polygon fill="white" stroke="#bfbfbf" points="242,-0.5 242,-19.5 292,-19.5 292,-0.5 242,-0.5"/>
<text text-anchor="middle" x="267" y="-7.5" font-family="Helvetica,sans-Serif" font-size="10.00">stdio.h</text>
</a>
</g>
</g>
<!-- Node5&#45;&gt;Node6 -->
<g id="edge5" class="edge">
<title>Node5&#45;&gt;Node6</title>
<path fill="none" stroke="midnightblue" d="M267,-56.08C267,-49.01 267,-38.86 267,-29.99"/>
<polygon fill="midnightblue" stroke="midnightblue" points="270.5,-29.75 267,-19.75 263.5,-29.75 270.5,-29.75"/>
</g>
<!-- Node7&#45;&gt;Node5 -->
<g id="edge7" class="edge">
<title>Node7&#45;&gt;Node5</title>
<path fill="none" stroke="midnightblue" d="M291.21,-112.08C287.24,-104.69 281.47,-93.95 276.57,-84.81"/>
<polygon fill="midnightblue" stroke="midnightblue" points="279.51,-82.91 271.7,-75.75 273.35,-86.22 279.51,-82.91"/>
</g>
</g>
</svg>
