<?xml version="1.0" encoding="UTF-8" standalone="no"?>
<!DOCTYPE svg PUBLIC "-//W3C//DTD SVG 1.1//EN"
 "http://www.w3.org/Graphics/SVG/1.1/DTD/svg11.dtd">
<!-- Generated by graphviz version 2.43.0 (0)
 -->
<!-- Title: include/image/Image.cuh Pages: 1 -->
<svg width="560pt" height="140pt"
 viewBox="0.00 0.00 560.00 140.00" xmlns="http://www.w3.org/2000/svg" xmlns:xlink="http://www.w3.org/1999/xlink">
<g id="graph0" class="graph" transform="scale(1 1) rotate(0) translate(4 136)">
<title>include/image/Image.cuh</title>
<polygon fill="white" stroke="transparent" points="-4,4 -4,-136 556,-136 556,4 -4,4"/>
<!-- Node1 -->
<g id="node1" class="node">
<title>Node1</title>
<g id="a_node1"><a xlink:title="Image processing classes for CUDA&#45;based operations.">
<polygon fill="#bfbfbf" stroke="black" points="134,-112.5 134,-131.5 274,-131.5 274,-112.5 134,-112.5"/>
<text text-anchor="middle" x="204" y="-119.5" font-family="Helvetica,sans-Serif" font-size="10.00">include/image/Image.cuh</text>
</a>
</g>
</g>
<!-- Node2 -->
<g id="node2" class="node">
<title>Node2</title>
<g id="a_node2"><a xlink:href="algos_8cu.html" target="_top" xlink:title=" ">
<polygon fill="white" stroke="black" points="0,-56.5 0,-75.5 74,-75.5 74,-56.5 0,-56.5"/>
<text text-anchor="middle" x="37" y="-63.5" font-family="Helvetica,sans-Serif" font-size="10.00">src/algos.cu</text>
</a>
</g>
</g>
<!-- Node1&#45;&gt;Node2 -->
<g id="edge1" class="edge">
<title>Node1&#45;&gt;Node2</title>
<path fill="none" stroke="midnightblue" d="M167.83,-109.3C136.36,-99.13 91.51,-84.62 63.34,-75.52"/>
<polygon fill="midnightblue" stroke="midnightblue" points="166.95,-112.7 177.54,-112.44 169.1,-106.04 166.95,-112.7"/>
</g>
<!-- Node3 -->
<g id="node3" class="node">
<title>Node3</title>
<g id="a_node3"><a xlink:href="Image_8cu.html" target="_top" xlink:title=" ">
<polygon fill="white" stroke="black" points="229.5,-0.5 229.5,-19.5 342.5,-19.5 342.5,-0.5 229.5,-0.5"/>
<text text-anchor="middle" x="286" y="-7.5" font-family="Helvetica,sans-Serif" font-size="10.00">src/Image/Image.cu</text>
</a>
</g>
</g>
<!-- Node1&#45;&gt;Node3 -->
<g id="edge2" class="edge">
<title>Node1&#45;&gt;Node3</title>
<path fill="none" stroke="midnightblue" d="M166.61,-108.85C137.24,-97.28 103.93,-78.35 121,-56 134.29,-38.6 187.04,-26.31 229.37,-19.02"/>
<polygon fill="midnightblue" stroke="midnightblue" points="165.75,-112.27 176.34,-112.49 168.2,-105.71 165.75,-112.27"/>
</g>
<!-- Node4 -->
<g id="node4" class="node">
<title>Node4</title>
<g id="a_node4"><a xlink:href="ImageKernels_8cu.html" target="_top" xlink:title=" ">
<polygon fill="white" stroke="black" points="129.5,-56.5 129.5,-75.5 278.5,-75.5 278.5,-56.5 129.5,-56.5"/>
<text text-anchor="middle" x="204" y="-63.5" font-family="Helvetica,sans-Serif" font-size="10.00">src/Image/ImageKernels.cu</text>
</a>
</g>
</g>
<!-- Node1&#45;&gt;Node4 -->
<g id="edge3" class="edge">
<title>Node1&#45;&gt;Node4</title>
<path fill="none" stroke="midnightblue" d="M204,-101.8C204,-92.91 204,-82.78 204,-75.75"/>
<polygon fill="midnightblue" stroke="midnightblue" points="200.5,-102.08 204,-112.08 207.5,-102.08 200.5,-102.08"/>
</g>
<!-- Node5 -->
<g id="node5" class="node">
<title>Node5</title>
<g id="a_node5"><a xlink:href="main_8cu.html" target="_top" xlink:title=" ">
<polygon fill="white" stroke="black" points="296.5,-56.5 296.5,-75.5 369.5,-75.5 369.5,-56.5 296.5,-56.5"/>
<text text-anchor="middle" x="333" y="-63.5" font-family="Helvetica,sans-Serif" font-size="10.00">src/main.cu</text>
</a>
</g>
</g>
<!-- Node1&#45;&gt;Node5 -->
<g id="edge4" class="edge">
<title>Node1&#45;&gt;Node5</title>
<path fill="none" stroke="midnightblue" d="M233.85,-108.5C258.04,-98.38 291.46,-84.39 312.66,-75.52"/>
<polygon fill="midnightblue" stroke="midnightblue" points="232.31,-105.35 224.44,-112.44 235.02,-111.81 232.31,-105.35"/>
</g>
<!-- Node6 -->
<g id="node6" class="node">
<title>Node6</title>
<g id="a_node6"><a xlink:href="ImageCuda_8cuh.html" target="_top" xlink:title=" ">
<polygon fill="white" stroke="black" points="388,-56.5 388,-75.5 552,-75.5 552,-56.5 388,-56.5"/>
<text text-anchor="middle" x="470" y="-63.5" font-family="Helvetica,sans-Serif" font-size="10.00">include/image/ImageCuda.cuh</text>
</a>
</g>
</g>
<!-- Node1&#45;&gt;Node6 -->
<g id="edge5" class="edge">
<title>Node1&#45;&gt;Node6</title>
<path fill="none" stroke="midnightblue" d="M256.17,-110.41C306.44,-100.2 381.53,-84.96 428.05,-75.52"/>
<polygon fill="midnightblue" stroke="midnightblue" points="255.25,-107.02 246.15,-112.44 256.64,-113.88 255.25,-107.02"/>
</g>
<!-- Node6&#45;&gt;Node3 -->
<g id="edge6" class="edge">
<title>Node6&#45;&gt;Node3</title>
<path fill="none" stroke="midnightblue" d="M431.05,-53.57C396.34,-43.38 346.32,-28.7 315.02,-19.52"/>
<polygon fill="midnightblue" stroke="midnightblue" points="430.26,-56.99 440.84,-56.44 432.23,-50.27 430.26,-56.99"/>
</g>
</g>
</svg>
