<?xml version="1.0" encoding="UTF-8" standalone="no"?>
<!DOCTYPE svg PUBLIC "-//W3C//DTD SVG 1.1//EN"
 "http://www.w3.org/Graphics/SVG/1.1/DTD/svg11.dtd">
<!-- Generated by graphviz version 2.43.0 (0)
 -->
<!-- Title: box_blur_kernel Pages: 1 -->
<svg width="250pt" height="186pt"
 viewBox="0.00 0.00 250.00 186.00" xmlns="http://www.w3.org/2000/svg" xmlns:xlink="http://www.w3.org/1999/xlink">
<g id="graph0" class="graph" transform="scale(1 1) rotate(0) translate(4 182)">
<title>box_blur_kernel</title>
<polygon fill="white" stroke="transparent" points="-4,4 -4,-182 246,-182 246,4 -4,4"/>
<!-- Node1 -->
<g id="node1" class="node">
<title>Node1</title>
<g id="a_node1"><a xlink:title=" ">
<polygon fill="#bfbfbf" stroke="black" points="0,-79 0,-98 94,-98 94,-79 0,-79"/>
<text text-anchor="middle" x="47" y="-86" font-family="Helvetica,sans-Serif" font-size="10.00">box_blur_kernel</text>
</a>
</g>
</g>
<!-- Node2 -->
<g id="node2" class="node">
<title>Node2</title>
<g id="a_node2"><a xlink:href="classdevice__view_1_1View.html#a9c7e4ca344806f60324e417bbf516250" target="_top" xlink:title="Get image height.">
<polygon fill="white" stroke="black" points="130,-147.5 130,-177.5 242,-177.5 242,-147.5 130,-147.5"/>
<text text-anchor="start" x="138" y="-165.5" font-family="Helvetica,sans-Serif" font-size="10.00">device_view::View::</text>
<text text-anchor="middle" x="186" y="-154.5" font-family="Helvetica,sans-Serif" font-size="10.00">get_height</text>
</a>
</g>
</g>
<!-- Node1&#45;&gt;Node2 -->
<g id="edge1" class="edge">
<title>Node1&#45;&gt;Node2</title>
<path fill="none" stroke="midnightblue" d="M62.46,-98.15C78.58,-108.71 105.59,-125.81 130,-138.5 133.05,-140.09 136.23,-141.66 139.45,-143.2"/>
<polygon fill="midnightblue" stroke="midnightblue" points="138.03,-146.4 148.58,-147.44 140.98,-140.06 138.03,-146.4"/>
</g>
<!-- Node3 -->
<g id="node3" class="node">
<title>Node3</title>
<g id="a_node3"><a xlink:href="classdevice__view_1_1View.html#a301911eaa8443b54a4e49c8b7de48fef" target="_top" xlink:title="Safe pixel access with boundary checking and clamping.">
<polygon fill="white" stroke="black" points="130,-98.5 130,-128.5 242,-128.5 242,-98.5 130,-98.5"/>
<text text-anchor="start" x="138" y="-116.5" font-family="Helvetica,sans-Serif" font-size="10.00">device_view::View::</text>
<text text-anchor="middle" x="186" y="-105.5" font-family="Helvetica,sans-Serif" font-size="10.00">get_pixel_safe</text>
</a>
</g>
</g>
<!-- Node1&#45;&gt;Node3 -->
<g id="edge2" class="edge">
<title>Node1&#45;&gt;Node3</title>
<path fill="none" stroke="midnightblue" d="M94,-96.89C102.36,-98.42 111.22,-100.04 120.01,-101.64"/>
<polygon fill="midnightblue" stroke="midnightblue" points="119.39,-105.09 129.86,-103.44 120.65,-98.2 119.39,-105.09"/>
</g>
<!-- Node4 -->
<g id="node4" class="node">
<title>Node4</title>
<g id="a_node4"><a xlink:href="classdevice__view_1_1View.html#a499e9c9d21980d9a28d5327a1f33b913" target="_top" xlink:title="Get image width.">
<polygon fill="white" stroke="black" points="130,-49.5 130,-79.5 242,-79.5 242,-49.5 130,-49.5"/>
<text text-anchor="start" x="138" y="-67.5" font-family="Helvetica,sans-Serif" font-size="10.00">device_view::View::</text>
<text text-anchor="middle" x="186" y="-56.5" font-family="Helvetica,sans-Serif" font-size="10.00">get_width</text>
</a>
</g>
</g>
<!-- Node1&#45;&gt;Node4 -->
<g id="edge3" class="edge">
<title>Node1&#45;&gt;Node4</title>
<path fill="none" stroke="midnightblue" d="M94,-80.44C102.36,-78.98 111.22,-77.42 120.01,-75.89"/>
<polygon fill="midnightblue" stroke="midnightblue" points="120.61,-79.33 129.86,-74.16 119.41,-72.44 120.61,-79.33"/>
</g>
<!-- Node5 -->
<g id="node5" class="node">
<title>Node5</title>
<g id="a_node5"><a xlink:href="classdevice__view_1_1View.html#ad71c34006984accf7ceb986a43983b5f" target="_top" xlink:title="Set pixel color at specified coordinates.">
<polygon fill="white" stroke="black" points="130,-0.5 130,-30.5 242,-30.5 242,-0.5 130,-0.5"/>
<text text-anchor="start" x="138" y="-18.5" font-family="Helvetica,sans-Serif" font-size="10.00">device_view::View::</text>
<text text-anchor="middle" x="186" y="-7.5" font-family="Helvetica,sans-Serif" font-size="10.00">set_pixel</text>
</a>
</g>
</g>
<!-- Node1&#45;&gt;Node5 -->
<g id="edge4" class="edge">
<title>Node1&#45;&gt;Node5</title>
<path fill="none" stroke="midnightblue" d="M63.15,-79C79.41,-68.95 106.13,-52.87 130,-40.5 133.56,-38.65 137.29,-36.8 141.06,-34.98"/>
<polygon fill="midnightblue" stroke="midnightblue" points="142.86,-38 150.41,-30.56 139.87,-31.67 142.86,-38"/>
</g>
</g>
</svg>
