<?xml version="1.0" encoding="UTF-8" standalone="no"?>
<!DOCTYPE svg PUBLIC "-//W3C//DTD SVG 1.1//EN"
 "http://www.w3.org/Graphics/SVG/1.1/DTD/svg11.dtd">
<!-- Generated by graphviz version 2.43.0 (0)
 -->
<!-- Title: compute_col_prefix_sum Pages: 1 -->
<svg width="299pt" height="301pt"
 viewBox="0.00 0.00 299.00 301.00" xmlns="http://www.w3.org/2000/svg" xmlns:xlink="http://www.w3.org/1999/xlink">
<g id="graph0" class="graph" transform="scale(1 1) rotate(0) translate(4 297)">
<title>compute_col_prefix_sum</title>
<polygon fill="white" stroke="transparent" points="-4,4 -4,-297 295,-297 295,4 -4,4"/>
<!-- Node1 -->
<g id="node1" class="node">
<title>Node1</title>
<g id="a_node1"><a xlink:title=" ">
<polygon fill="#bfbfbf" stroke="black" points="0,-126 0,-145 138,-145 138,-126 0,-126"/>
<text text-anchor="middle" x="69" y="-133" font-family="Helvetica,sans-Serif" font-size="10.00">compute_col_prefix_sum</text>
</a>
</g>
</g>
<!-- Node2 -->
<g id="node2" class="node">
<title>Node2</title>
<g id="a_node2"><a xlink:href="classdevice__view_1_1View.html#a9c7e4ca344806f60324e417bbf516250" target="_top" xlink:title="Get image height.">
<polygon fill="white" stroke="black" points="176.5,-262.5 176.5,-292.5 288.5,-292.5 288.5,-262.5 176.5,-262.5"/>
<text text-anchor="start" x="184.5" y="-280.5" font-family="Helvetica,sans-Serif" font-size="10.00">device_view::View::</text>
<text text-anchor="middle" x="232.5" y="-269.5" font-family="Helvetica,sans-Serif" font-size="10.00">get_height</text>
</a>
</g>
</g>
<!-- Node1&#45;&gt;Node2 -->
<g id="edge1" class="edge">
<title>Node1&#45;&gt;Node2</title>
<path fill="none" stroke="midnightblue" d="M76.16,-145.07C90.72,-167.02 129.39,-221.52 174,-253.5 175.89,-254.86 177.87,-256.16 179.92,-257.4"/>
<polygon fill="midnightblue" stroke="midnightblue" points="178.71,-260.73 189.16,-262.46 182.07,-254.59 178.71,-260.73"/>
</g>
<!-- Node3 -->
<g id="node3" class="node">
<title>Node3</title>
<g id="a_node3"><a xlink:href="classdevice__view_1_1View.html#acc975b14c705590b4363be6aaeb91d74" target="_top" xlink:title="Get pixel color at specified coordinates (no bounds checking)">
<polygon fill="white" stroke="black" points="176.5,-213.5 176.5,-243.5 288.5,-243.5 288.5,-213.5 176.5,-213.5"/>
<text text-anchor="start" x="184.5" y="-231.5" font-family="Helvetica,sans-Serif" font-size="10.00">device_view::View::</text>
<text text-anchor="middle" x="232.5" y="-220.5" font-family="Helvetica,sans-Serif" font-size="10.00">get_pixel</text>
</a>
</g>
</g>
<!-- Node1&#45;&gt;Node3 -->
<g id="edge2" class="edge">
<title>Node1&#45;&gt;Node3</title>
<path fill="none" stroke="midnightblue" d="M82.64,-145.04C101.74,-159.18 139.41,-186.02 174,-204.5 177.05,-206.13 180.24,-207.73 183.47,-209.27"/>
<polygon fill="midnightblue" stroke="midnightblue" points="182.13,-212.51 192.68,-213.49 185.04,-206.14 182.13,-212.51"/>
</g>
<!-- Node4 -->
<g id="node4" class="node">
<title>Node4</title>
<g id="a_node4"><a xlink:href="classdevice__view_1_1View.html#a499e9c9d21980d9a28d5327a1f33b913" target="_top" xlink:title="Get image width.">
<polygon fill="white" stroke="black" points="176.5,-164.5 176.5,-194.5 288.5,-194.5 288.5,-164.5 176.5,-164.5"/>
<text text-anchor="start" x="184.5" y="-182.5" font-family="Helvetica,sans-Serif" font-size="10.00">device_view::View::</text>
<text text-anchor="middle" x="232.5" y="-171.5" font-family="Helvetica,sans-Serif" font-size="10.00">get_width</text>
</a>
</g>
</g>
<!-- Node1&#45;&gt;Node4 -->
<g id="edge3" class="edge">
<title>Node1&#45;&gt;Node4</title>
<path fill="none" stroke="midnightblue" d="M105.04,-145.05C122.98,-149.93 145.41,-156.05 166.38,-161.76"/>
<polygon fill="midnightblue" stroke="midnightblue" points="165.63,-165.18 176.2,-164.43 167.47,-158.43 165.63,-165.18"/>
</g>
<!-- Node5 -->
<g id="node5" class="node">
<title>Node5</title>
<g id="a_node5"><a xlink:href="classpixel_1_1RGB.html#ae7ba1d9dc07647ec352fdbf74ab7a8de" target="_top" xlink:title="Get raw blue channel value (no clamping &#45; for integral image calculations)">
<polygon fill="white" stroke="black" points="174.5,-126 174.5,-145 290.5,-145 290.5,-126 174.5,-126"/>
<text text-anchor="middle" x="232.5" y="-133" font-family="Helvetica,sans-Serif" font-size="10.00">pixel::RGB::getBRaw</text>
</a>
</g>
</g>
<!-- Node1&#45;&gt;Node5 -->
<g id="edge4" class="edge">
<title>Node1&#45;&gt;Node5</title>
<path fill="none" stroke="midnightblue" d="M138.02,-135.5C146.7,-135.5 155.57,-135.5 164.23,-135.5"/>
<polygon fill="midnightblue" stroke="midnightblue" points="164.28,-139 174.28,-135.5 164.28,-132 164.28,-139"/>
</g>
<!-- Node6 -->
<g id="node6" class="node">
<title>Node6</title>
<g id="a_node6"><a xlink:href="classpixel_1_1RGB.html#a45187bdda20cd46cadd942d8af85b504" target="_top" xlink:title="Get raw green channel value (no clamping &#45; for integral image calculations)">
<polygon fill="white" stroke="black" points="174,-88 174,-107 291,-107 291,-88 174,-88"/>
<text text-anchor="middle" x="232.5" y="-95" font-family="Helvetica,sans-Serif" font-size="10.00">pixel::RGB::getGRaw</text>
</a>
</g>
</g>
<!-- Node1&#45;&gt;Node6 -->
<g id="edge5" class="edge">
<title>Node1&#45;&gt;Node6</title>
<path fill="none" stroke="midnightblue" d="M110.75,-125.91C132.16,-120.87 158.59,-114.66 181.25,-109.32"/>
<polygon fill="midnightblue" stroke="midnightblue" points="182.11,-112.72 191.04,-107.02 180.5,-105.9 182.11,-112.72"/>
</g>
<!-- Node7 -->
<g id="node7" class="node">
<title>Node7</title>
<g id="a_node7"><a xlink:href="classpixel_1_1RGB.html#a1015e651c304e9494b3d3331b67a3a2e" target="_top" xlink:title="Get raw red channel value (no clamping &#45; for integral image calculations)">
<polygon fill="white" stroke="black" points="174.5,-50 174.5,-69 290.5,-69 290.5,-50 174.5,-50"/>
<text text-anchor="middle" x="232.5" y="-57" font-family="Helvetica,sans-Serif" font-size="10.00">pixel::RGB::getRRaw</text>
</a>
</g>
</g>
<!-- Node1&#45;&gt;Node7 -->
<g id="edge6" class="edge">
<title>Node1&#45;&gt;Node7</title>
<path fill="none" stroke="midnightblue" d="M85.41,-125.89C105.32,-113.74 141.34,-92.71 174,-78.5 179,-76.32 184.34,-74.25 189.67,-72.33"/>
<polygon fill="midnightblue" stroke="midnightblue" points="190.87,-75.61 199.18,-69.04 188.58,-69 190.87,-75.61"/>
</g>
<!-- Node8 -->
<g id="node8" class="node">
<title>Node8</title>
<g id="a_node8"><a xlink:href="classdevice__view_1_1View.html#ad71c34006984accf7ceb986a43983b5f" target="_top" xlink:title="Set pixel color at specified coordinates.">
<polygon fill="white" stroke="black" points="176.5,-0.5 176.5,-30.5 288.5,-30.5 288.5,-0.5 176.5,-0.5"/>
<text text-anchor="start" x="184.5" y="-18.5" font-family="Helvetica,sans-Serif" font-size="10.00">device_view::View::</text>
<text text-anchor="middle" x="232.5" y="-7.5" font-family="Helvetica,sans-Serif" font-size="10.00">set_pixel</text>
</a>
</g>
</g>
<!-- Node1&#45;&gt;Node8 -->
<g id="edge7" class="edge">
<title>Node1&#45;&gt;Node8</title>
<path fill="none" stroke="midnightblue" d="M78.6,-125.74C95.4,-107.13 134.4,-66.17 174,-40.5 176.87,-38.64 179.91,-36.86 183.02,-35.16"/>
<polygon fill="midnightblue" stroke="midnightblue" points="184.61,-38.28 191.94,-30.63 181.44,-32.04 184.61,-38.28"/>
</g>
</g>
</svg>
