<?xml version="1.0" encoding="UTF-8" standalone="no"?>
<!DOCTYPE svg PUBLIC "-//W3C//DTD SVG 1.1//EN"
 "http://www.w3.org/Graphics/SVG/1.1/DTD/svg11.dtd">
<!-- Generated by graphviz version 2.43.0 (0)
 -->
<!-- Title: compute_row_prefix_sum Pages: 1 -->
<svg width="298pt" height="301pt"
 viewBox="0.00 0.00 298.00 301.00" xmlns="http://www.w3.org/2000/svg" xmlns:xlink="http://www.w3.org/1999/xlink">
<g id="graph0" class="graph" transform="scale(1 1) rotate(0) translate(4 297)">
<title>compute_row_prefix_sum</title>
<polygon fill="white" stroke="transparent" points="-4,4 -4,-297 294,-297 294,4 -4,4"/>
<!-- Node1 -->
<g id="node1" class="node">
<title>Node1</title>
<g id="a_node1"><a xlink:title=" ">
<polygon fill="#bfbfbf" stroke="black" points="0,-126 0,-145 142,-145 142,-126 0,-126"/>
<text text-anchor="middle" x="71" y="-133" font-family="Helvetica,sans-Serif" font-size="10.00">compute_row_prefix_sum</text>
</a>
</g>
</g>
<!-- Node2 -->
<g id="node2" class="node">
<title>Node2</title>
<g id="a_node2"><a xlink:href="classdevice__view_1_1View.html#a9c7e4ca344806f60324e417bbf516250" target="_top" xlink:title="Get image height.">
<polygon fill="white" stroke="black" points="178,-262.5 178,-292.5 290,-292.5 290,-262.5 178,-262.5"/>
<text text-anchor="start" x="186" y="-280.5" font-family="Helvetica,sans-Serif" font-size="10.00">device_view::View::</text>
<text text-anchor="middle" x="234" y="-269.5" font-family="Helvetica,sans-Serif" font-size="10.00">get_height</text>
</a>
</g>
</g>
<!-- Node1&#45;&gt;Node2 -->
<g id="edge1" class="edge">
<title>Node1&#45;&gt;Node2</title>
<path fill="none" stroke="midnightblue" d="M78.36,-145.01C93.37,-166.84 133.12,-221.11 178,-253.5 179.85,-254.84 181.79,-256.12 183.79,-257.35"/>
<polygon fill="midnightblue" stroke="midnightblue" points="182.39,-260.58 192.83,-262.4 185.81,-254.47 182.39,-260.58"/>
</g>
<!-- Node3 -->
<g id="node3" class="node">
<title>Node3</title>
<g id="a_node3"><a xlink:href="classdevice__view_1_1View.html#acc975b14c705590b4363be6aaeb91d74" target="_top" xlink:title="Get pixel color at specified coordinates (no bounds checking)">
<polygon fill="white" stroke="black" points="178,-213.5 178,-243.5 290,-243.5 290,-213.5 178,-213.5"/>
<text text-anchor="start" x="186" y="-231.5" font-family="Helvetica,sans-Serif" font-size="10.00">device_view::View::</text>
<text text-anchor="middle" x="234" y="-220.5" font-family="Helvetica,sans-Serif" font-size="10.00">get_pixel</text>
</a>
</g>
</g>
<!-- Node1&#45;&gt;Node3 -->
<g id="edge2" class="edge">
<title>Node1&#45;&gt;Node3</title>
<path fill="none" stroke="midnightblue" d="M85.28,-145.18C104.94,-159.26 143.21,-185.75 178,-204.5 180.89,-206.06 183.9,-207.59 186.96,-209.09"/>
<polygon fill="midnightblue" stroke="midnightblue" points="185.67,-212.35 196.21,-213.45 188.65,-206.02 185.67,-212.35"/>
</g>
<!-- Node4 -->
<g id="node4" class="node">
<title>Node4</title>
<g id="a_node4"><a xlink:href="classdevice__view_1_1View.html#a499e9c9d21980d9a28d5327a1f33b913" target="_top" xlink:title="Get image width.">
<polygon fill="white" stroke="black" points="178,-164.5 178,-194.5 290,-194.5 290,-164.5 178,-164.5"/>
<text text-anchor="start" x="186" y="-182.5" font-family="Helvetica,sans-Serif" font-size="10.00">device_view::View::</text>
<text text-anchor="middle" x="234" y="-171.5" font-family="Helvetica,sans-Serif" font-size="10.00">get_width</text>
</a>
</g>
</g>
<!-- Node1&#45;&gt;Node4 -->
<g id="edge3" class="edge">
<title>Node1&#45;&gt;Node4</title>
<path fill="none" stroke="midnightblue" d="M106.93,-145.05C124.82,-149.93 147.18,-156.05 168.08,-161.76"/>
<polygon fill="midnightblue" stroke="midnightblue" points="167.31,-165.17 177.87,-164.43 169.15,-158.42 167.31,-165.17"/>
</g>
<!-- Node5 -->
<g id="node5" class="node">
<title>Node5</title>
<g id="a_node5"><a xlink:href="classpixel_1_1RGB.html#a29691da5e0b881df61c93033ffc02eaf" target="_top" xlink:title="Get blue channel value (clamped to 0&#45;255 range)">
<polygon fill="white" stroke="black" points="186.5,-126 186.5,-145 281.5,-145 281.5,-126 186.5,-126"/>
<text text-anchor="middle" x="234" y="-133" font-family="Helvetica,sans-Serif" font-size="10.00">pixel::RGB::getB</text>
</a>
</g>
</g>
<!-- Node1&#45;&gt;Node5 -->
<g id="edge4" class="edge">
<title>Node1&#45;&gt;Node5</title>
<path fill="none" stroke="midnightblue" d="M142.15,-135.5C153.45,-135.5 165.03,-135.5 175.97,-135.5"/>
<polygon fill="midnightblue" stroke="midnightblue" points="176.24,-139 186.24,-135.5 176.24,-132 176.24,-139"/>
</g>
<!-- Node6 -->
<g id="node6" class="node">
<title>Node6</title>
<g id="a_node6"><a xlink:href="classpixel_1_1RGB.html#aaa9f6b260dfd7f785b6ad8998e4deea2" target="_top" xlink:title="Get green channel value (clamped to 0&#45;255 range)">
<polygon fill="white" stroke="black" points="186,-88 186,-107 282,-107 282,-88 186,-88"/>
<text text-anchor="middle" x="234" y="-95" font-family="Helvetica,sans-Serif" font-size="10.00">pixel::RGB::getG</text>
</a>
</g>
</g>
<!-- Node1&#45;&gt;Node6 -->
<g id="edge5" class="edge">
<title>Node1&#45;&gt;Node6</title>
<path fill="none" stroke="midnightblue" d="M112.63,-125.91C133.97,-120.87 160.31,-114.66 182.91,-109.32"/>
<polygon fill="midnightblue" stroke="midnightblue" points="183.74,-112.72 192.67,-107.02 182.13,-105.91 183.74,-112.72"/>
</g>
<!-- Node7 -->
<g id="node7" class="node">
<title>Node7</title>
<g id="a_node7"><a xlink:href="classpixel_1_1RGB.html#a8059349fb5460e4329b648bd5f846fd0" target="_top" xlink:title="Get red channel value (clamped to 0&#45;255 range)">
<polygon fill="white" stroke="black" points="186.5,-50 186.5,-69 281.5,-69 281.5,-50 186.5,-50"/>
<text text-anchor="middle" x="234" y="-57" font-family="Helvetica,sans-Serif" font-size="10.00">pixel::RGB::getR</text>
</a>
</g>
</g>
<!-- Node1&#45;&gt;Node7 -->
<g id="edge6" class="edge">
<title>Node1&#45;&gt;Node7</title>
<path fill="none" stroke="midnightblue" d="M87.76,-125.99C108.12,-113.94 144.89,-93.01 178,-78.5 182.74,-76.42 187.78,-74.42 192.81,-72.54"/>
<polygon fill="midnightblue" stroke="midnightblue" points="194.18,-75.77 202.4,-69.09 191.81,-69.18 194.18,-75.77"/>
</g>
<!-- Node8 -->
<g id="node8" class="node">
<title>Node8</title>
<g id="a_node8"><a xlink:href="classdevice__view_1_1View.html#ad71c34006984accf7ceb986a43983b5f" target="_top" xlink:title="Set pixel color at specified coordinates.">
<polygon fill="white" stroke="black" points="178,-0.5 178,-30.5 290,-30.5 290,-0.5 178,-0.5"/>
<text text-anchor="start" x="186" y="-18.5" font-family="Helvetica,sans-Serif" font-size="10.00">device_view::View::</text>
<text text-anchor="middle" x="234" y="-7.5" font-family="Helvetica,sans-Serif" font-size="10.00">set_pixel</text>
</a>
</g>
</g>
<!-- Node1&#45;&gt;Node8 -->
<g id="edge7" class="edge">
<title>Node1&#45;&gt;Node8</title>
<path fill="none" stroke="midnightblue" d="M80.84,-125.81C98.1,-107.33 138.07,-66.58 178,-40.5 180.77,-38.69 183.68,-36.95 186.67,-35.29"/>
<polygon fill="midnightblue" stroke="midnightblue" points="188.54,-38.27 195.79,-30.54 185.3,-32.06 188.54,-38.27"/>
</g>
</g>
</svg>
