<?xml version="1.0" encoding="UTF-8" standalone="no"?>
<!DOCTYPE svg PUBLIC "-//W3C//DTD SVG 1.1//EN"
 "http://www.w3.org/Graphics/SVG/1.1/DTD/svg11.dtd">
<!-- Generated by graphviz version 2.43.0 (0)
 -->
<!-- Title: src/main.cu Pages: 1 -->
<svg width="412pt" height="252pt"
 viewBox="0.00 0.00 411.50 252.00" xmlns="http://www.w3.org/2000/svg" xmlns:xlink="http://www.w3.org/1999/xlink">
<g id="graph0" class="graph" transform="scale(1 1) rotate(0) translate(4 248)">
<title>src/main.cu</title>
<polygon fill="white" stroke="transparent" points="-4,4 -4,-248 407.5,-248 407.5,4 -4,4"/>
<!-- Node1 -->
<g id="node1" class="node">
<title>Node1</title>
<g id="a_node1"><a xlink:title=" ">
<polygon fill="#bfbfbf" stroke="black" points="91,-224.5 91,-243.5 164,-243.5 164,-224.5 91,-224.5"/>
<text text-anchor="middle" x="127.5" y="-231.5" font-family="Helvetica,sans-Serif" font-size="10.00">src/main.cu</text>
</a>
</g>
</g>
<!-- Node2 -->
<g id="node2" class="node">
<title>Node2</title>
<g id="a_node2"><a xlink:title=" ">
<polygon fill="white" stroke="#bfbfbf" points="0,-168.5 0,-187.5 49,-187.5 49,-168.5 0,-168.5"/>
<text text-anchor="middle" x="24.5" y="-175.5" font-family="Helvetica,sans-Serif" font-size="10.00">cstdlib</text>
</a>
</g>
</g>
<!-- Node1&#45;&gt;Node2 -->
<g id="edge1" class="edge">
<title>Node1&#45;&gt;Node2</title>
<path fill="none" stroke="midnightblue" d="M110.95,-224.32C94.51,-215.7 69.07,-202.36 50.03,-192.39"/>
<polygon fill="midnightblue" stroke="midnightblue" points="51.49,-189.2 41.01,-187.65 48.24,-195.4 51.49,-189.2"/>
</g>
<!-- Node3 -->
<g id="node3" class="node">
<title>Node3</title>
<g id="a_node3"><a xlink:title=" ">
<polygon fill="white" stroke="#bfbfbf" points="67,-168.5 67,-187.5 116,-187.5 116,-168.5 67,-168.5"/>
<text text-anchor="middle" x="91.5" y="-175.5" font-family="Helvetica,sans-Serif" font-size="10.00">cuda.h</text>
</a>
</g>
</g>
<!-- Node1&#45;&gt;Node3 -->
<g id="edge2" class="edge">
<title>Node1&#45;&gt;Node3</title>
<path fill="none" stroke="midnightblue" d="M121.56,-224.08C116.52,-216.53 109.16,-205.49 102.99,-196.23"/>
<polygon fill="midnightblue" stroke="midnightblue" points="105.79,-194.13 97.33,-187.75 99.97,-198.01 105.79,-194.13"/>
</g>
<!-- Node4 -->
<g id="node4" class="node">
<title>Node4</title>
<g id="a_node4"><a xlink:title=" ">
<polygon fill="white" stroke="#bfbfbf" points="134.5,-168.5 134.5,-187.5 194.5,-187.5 194.5,-168.5 134.5,-168.5"/>
<text text-anchor="middle" x="164.5" y="-175.5" font-family="Helvetica,sans-Serif" font-size="10.00">iostream</text>
</a>
</g>
</g>
<!-- Node1&#45;&gt;Node4 -->
<g id="edge3" class="edge">
<title>Node1&#45;&gt;Node4</title>
<path fill="none" stroke="midnightblue" d="M133.61,-224.08C138.78,-216.53 146.35,-205.49 152.69,-196.23"/>
<polygon fill="midnightblue" stroke="midnightblue" points="155.74,-197.98 158.5,-187.75 149.96,-194.02 155.74,-197.98"/>
</g>
<!-- Node5 -->
<g id="node5" class="node">
<title>Node5</title>
<g id="a_node5"><a xlink:href="Image_8cuh.html" target="_top" xlink:title="Image processing classes for CUDA&#45;based operations.">
<polygon fill="white" stroke="black" points="213,-168.5 213,-187.5 314,-187.5 314,-168.5 213,-168.5"/>
<text text-anchor="middle" x="263.5" y="-175.5" font-family="Helvetica,sans-Serif" font-size="10.00">image/Image.cuh</text>
</a>
</g>
</g>
<!-- Node1&#45;&gt;Node5 -->
<g id="edge4" class="edge">
<title>Node1&#45;&gt;Node5</title>
<path fill="none" stroke="midnightblue" d="M149.05,-224.44C171.53,-215.52 206.99,-201.44 232.48,-191.32"/>
<polygon fill="midnightblue" stroke="midnightblue" points="234.05,-194.46 242.05,-187.52 231.47,-187.95 234.05,-194.46"/>
</g>
<!-- Node6 -->
<g id="node6" class="node">
<title>Node6</title>
<g id="a_node6"><a xlink:title=" ">
<polygon fill="white" stroke="#bfbfbf" points="77.5,-112.5 77.5,-131.5 145.5,-131.5 145.5,-112.5 77.5,-112.5"/>
<text text-anchor="middle" x="111.5" y="-119.5" font-family="Helvetica,sans-Serif" font-size="10.00">filesystem</text>
</a>
</g>
</g>
<!-- Node5&#45;&gt;Node6 -->
<g id="edge5" class="edge">
<title>Node5&#45;&gt;Node6</title>
<path fill="none" stroke="midnightblue" d="M239.42,-168.44C213.96,-159.4 173.61,-145.06 145.04,-134.92"/>
<polygon fill="midnightblue" stroke="midnightblue" points="146.07,-131.57 135.47,-131.52 143.72,-138.16 146.07,-131.57"/>
</g>
<!-- Node7 -->
<g id="node7" class="node">
<title>Node7</title>
<g id="a_node7"><a xlink:title=" ">
<polygon fill="white" stroke="#bfbfbf" points="163.5,-112.5 163.5,-131.5 221.5,-131.5 221.5,-112.5 163.5,-112.5"/>
<text text-anchor="middle" x="192.5" y="-119.5" font-family="Helvetica,sans-Serif" font-size="10.00">memory</text>
</a>
</g>
</g>
<!-- Node5&#45;&gt;Node7 -->
<g id="edge6" class="edge">
<title>Node5&#45;&gt;Node7</title>
<path fill="none" stroke="midnightblue" d="M252.09,-168.32C241.39,-160.18 225.16,-147.84 212.34,-138.09"/>
<polygon fill="midnightblue" stroke="midnightblue" points="214.19,-135.1 204.11,-131.83 209.96,-140.67 214.19,-135.1"/>
</g>
<!-- Node8 -->
<g id="node8" class="node">
<title>Node8</title>
<g id="a_node8"><a xlink:title=" ">
<polygon fill="white" stroke="#bfbfbf" points="240,-112.5 240,-131.5 287,-131.5 287,-112.5 240,-112.5"/>
<text text-anchor="middle" x="263.5" y="-119.5" font-family="Helvetica,sans-Serif" font-size="10.00">vector</text>
</a>
</g>
</g>
<!-- Node5&#45;&gt;Node8 -->
<g id="edge7" class="edge">
<title>Node5&#45;&gt;Node8</title>
<path fill="none" stroke="midnightblue" d="M263.5,-168.08C263.5,-161.01 263.5,-150.86 263.5,-141.99"/>
<polygon fill="midnightblue" stroke="midnightblue" points="267,-141.75 263.5,-131.75 260,-141.75 267,-141.75"/>
</g>
<!-- Node9 -->
<g id="node9" class="node">
<title>Node9</title>
<g id="a_node9"><a xlink:href="Pixel_8cuh.html" target="_top" xlink:title="Wrapper class for pixels of different color formats.">
<polygon fill="white" stroke="black" points="314.5,-56.5 314.5,-75.5 374.5,-75.5 374.5,-56.5 314.5,-56.5"/>
<text text-anchor="middle" x="344.5" y="-63.5" font-family="Helvetica,sans-Serif" font-size="10.00">Pixel.cuh</text>
</a>
</g>
</g>
<!-- Node5&#45;&gt;Node9 -->
<g id="edge8" class="edge">
<title>Node5&#45;&gt;Node9</title>
<path fill="none" stroke="midnightblue" d="M269.86,-168.37C283.28,-150.14 314.73,-107.43 332.22,-83.68"/>
<polygon fill="midnightblue" stroke="midnightblue" points="335.06,-85.72 338.17,-75.59 329.43,-81.57 335.06,-85.72"/>
</g>
<!-- Node11 -->
<g id="node11" class="node">
<title>Node11</title>
<g id="a_node11"><a xlink:href="View_8cuh.html" target="_top" xlink:title="Device&#45;side view interface for image processing kernels.">
<polygon fill="white" stroke="black" points="343.5,-112.5 343.5,-131.5 403.5,-131.5 403.5,-112.5 343.5,-112.5"/>
<text text-anchor="middle" x="373.5" y="-119.5" font-family="Helvetica,sans-Serif" font-size="10.00">View.cuh</text>
</a>
</g>
</g>
<!-- Node5&#45;&gt;Node11 -->
<g id="edge10" class="edge">
<title>Node5&#45;&gt;Node11</title>
<path fill="none" stroke="midnightblue" d="M281.17,-168.32C298.89,-159.62 326.4,-146.12 346.79,-136.11"/>
<polygon fill="midnightblue" stroke="midnightblue" points="348.44,-139.2 355.87,-131.65 345.35,-132.92 348.44,-139.2"/>
</g>
<!-- Node10 -->
<g id="node10" class="node">
<title>Node10</title>
<g id="a_node10"><a xlink:title=" ">
<polygon fill="white" stroke="#bfbfbf" points="319.5,-0.5 319.5,-19.5 369.5,-19.5 369.5,-0.5 319.5,-0.5"/>
<text text-anchor="middle" x="344.5" y="-7.5" font-family="Helvetica,sans-Serif" font-size="10.00">stdio.h</text>
</a>
</g>
</g>
<!-- Node9&#45;&gt;Node10 -->
<g id="edge9" class="edge">
<title>Node9&#45;&gt;Node10</title>
<path fill="none" stroke="midnightblue" d="M344.5,-56.08C344.5,-49.01 344.5,-38.86 344.5,-29.99"/>
<polygon fill="midnightblue" stroke="midnightblue" points="348,-29.75 344.5,-19.75 341,-29.75 348,-29.75"/>
</g>
<!-- Node11&#45;&gt;Node9 -->
<g id="edge11" class="edge">
<title>Node11&#45;&gt;Node9</title>
<path fill="none" stroke="midnightblue" d="M368.71,-112.08C364.74,-104.69 358.97,-93.95 354.07,-84.81"/>
<polygon fill="midnightblue" stroke="midnightblue" points="357.01,-82.91 349.2,-75.75 350.85,-86.22 357.01,-82.91"/>
</g>
</g>
</svg>
