<?xml version="1.0" encoding="UTF-8" standalone="no"?>
<!DOCTYPE svg PUBLIC "-//W3C//DTD SVG 1.1//EN"
 "http://www.w3.org/Graphics/SVG/1.1/DTD/svg11.dtd">
<!-- Generated by graphviz version 2.43.0 (0)
 -->
<!-- Title: main Pages: 1 -->
<svg width="247pt" height="116pt"
 viewBox="0.00 0.00 247.00 115.50" xmlns="http://www.w3.org/2000/svg" xmlns:xlink="http://www.w3.org/1999/xlink">
<g id="graph0" class="graph" transform="scale(1 1) rotate(0) translate(4 111.5)">
<title>main</title>
<polygon fill="white" stroke="transparent" points="-4,4 -4,-111.5 243,-111.5 243,4 -4,4"/>
<!-- Node1 -->
<g id="node1" class="node">
<title>Node1</title>
<g id="a_node1"><a xlink:title=" ">
<polygon fill="#bfbfbf" stroke="black" points="0,-50 0,-69 41,-69 41,-50 0,-50"/>
<text text-anchor="middle" x="20.5" y="-57" font-family="Helvetica,sans-Serif" font-size="10.00">main</text>
</a>
</g>
</g>
<!-- Node2 -->
<g id="node2" class="node">
<title>Node2</title>
<g id="a_node2"><a xlink:href="main_8cu.html#a500cbf3e94a6be9717247706cc74ad36" target="_top" xlink:title=" ">
<polygon fill="white" stroke="black" points="123,-88 123,-107 193,-107 193,-88 123,-88"/>
<text text-anchor="middle" x="158" y="-95" font-family="Helvetica,sans-Serif" font-size="10.00">parse_args</text>
</a>
</g>
</g>
<!-- Node1&#45;&gt;Node2 -->
<g id="edge1" class="edge">
<title>Node1&#45;&gt;Node2</title>
<path fill="none" stroke="midnightblue" d="M41.13,-66.74C51.68,-70.5 64.97,-75.02 77,-78.5 88.56,-81.84 101.18,-85.05 112.91,-87.84"/>
<polygon fill="midnightblue" stroke="midnightblue" points="112.41,-91.31 122.94,-90.18 114,-84.5 112.41,-91.31"/>
</g>
<!-- Node3 -->
<g id="node3" class="node">
<title>Node3</title>
<g id="a_node3"><a xlink:href="classrender_1_1ImagePPM.html#a71335da7d9b1f39c02aa0076452d7257" target="_top" xlink:title="Save image to PPM file.">
<polygon fill="white" stroke="black" points="90.5,-50 90.5,-69 225.5,-69 225.5,-50 90.5,-50"/>
<text text-anchor="middle" x="158" y="-57" font-family="Helvetica,sans-Serif" font-size="10.00">render::ImagePPM::save</text>
</a>
</g>
</g>
<!-- Node1&#45;&gt;Node3 -->
<g id="edge2" class="edge">
<title>Node1&#45;&gt;Node3</title>
<path fill="none" stroke="midnightblue" d="M41.2,-59.5C51.88,-59.5 65.83,-59.5 80.34,-59.5"/>
<polygon fill="midnightblue" stroke="midnightblue" points="80.44,-63 90.44,-59.5 80.44,-56 80.44,-63"/>
</g>
<!-- Node4 -->
<g id="node4" class="node">
<title>Node4</title>
<g id="a_node4"><a xlink:href="classrender_1_1ImagePPM.html#ae983120f495a5ecec39f9d3bcf953669" target="_top" xlink:title="Apply Sobel edge detection filter.">
<polygon fill="white" stroke="black" points="77,-0.5 77,-30.5 239,-30.5 239,-0.5 77,-0.5"/>
<text text-anchor="start" x="85" y="-18.5" font-family="Helvetica,sans-Serif" font-size="10.00">render::ImagePPM::sobelEdge</text>
<text text-anchor="middle" x="158" y="-7.5" font-family="Helvetica,sans-Serif" font-size="10.00">Detection</text>
</a>
</g>
</g>
<!-- Node1&#45;&gt;Node4 -->
<g id="edge3" class="edge">
<title>Node1&#45;&gt;Node4</title>
<path fill="none" stroke="midnightblue" d="M41.24,-52.6C51.82,-48.94 65.09,-44.4 77,-40.5 83.85,-38.26 91.03,-35.95 98.18,-33.68"/>
<polygon fill="midnightblue" stroke="midnightblue" points="99.37,-36.98 107.86,-30.63 97.27,-30.3 99.37,-36.98"/>
</g>
</g>
</svg>
