<?xml version="1.0" encoding="UTF-8" standalone="no"?>
<!DOCTYPE svg PUBLIC "-//W3C//DTD SVG 1.1//EN"
 "http://www.w3.org/Graphics/SVG/1.1/DTD/svg11.dtd">
<!-- Generated by graphviz version 2.43.0 (0)
 -->
<!-- Title: pixel::operator* Pages: 1 -->
<svg width="232pt" height="66pt"
 viewBox="0.00 0.00 232.00 66.00" xmlns="http://www.w3.org/2000/svg" xmlns:xlink="http://www.w3.org/1999/xlink">
<g id="graph0" class="graph" transform="scale(1 1) rotate(0) translate(4 62)">
<title>pixel::operator*</title>
<polygon fill="white" stroke="transparent" points="-4,4 -4,-62 228,-62 228,4 -4,4"/>
<!-- Node1 -->
<g id="node1" class="node">
<title>Node1</title>
<g id="a_node1"><a xlink:title="Component&#45;wise multiplication of two RGB colors.">
<polygon fill="#bfbfbf" stroke="black" points="0,-19.5 0,-38.5 92,-38.5 92,-19.5 0,-19.5"/>
<text text-anchor="middle" x="46" y="-26.5" font-family="Helvetica,sans-Serif" font-size="10.00">pixel::operator*</text>
</a>
</g>
</g>
<!-- Node2 -->
<g id="node2" class="node">
<title>Node2</title>
<g id="a_node2"><a xlink:href="classpixel_1_1RGB.html#a29691da5e0b881df61c93033ffc02eaf" target="_top" xlink:title="Get blue channel value (clamped to 0&#45;255 range)">
<polygon fill="white" stroke="black" points="128.5,-38.5 128.5,-57.5 223.5,-57.5 223.5,-38.5 128.5,-38.5"/>
<text text-anchor="middle" x="176" y="-45.5" font-family="Helvetica,sans-Serif" font-size="10.00">pixel::RGB::getB</text>
</a>
</g>
</g>
<!-- Node1&#45;&gt;Node2 -->
<g id="edge1" class="edge">
<title>Node1&#45;&gt;Node2</title>
<path fill="none" stroke="midnightblue" d="M92.13,-35.7C100.51,-36.94 109.36,-38.26 118.04,-39.55"/>
<polygon fill="midnightblue" stroke="midnightblue" points="117.71,-43.03 128.11,-41.04 118.74,-36.11 117.71,-43.03"/>
</g>
<!-- Node3 -->
<g id="node3" class="node">
<title>Node3</title>
<g id="a_node3"><a xlink:href="classpixel_1_1RGB.html#aaa9f6b260dfd7f785b6ad8998e4deea2" target="_top" xlink:title="Get green channel value (clamped to 0&#45;255 range)">
<polygon fill="white" stroke="black" points="128,-0.5 128,-19.5 224,-19.5 224,-0.5 128,-0.5"/>
<text text-anchor="middle" x="176" y="-7.5" font-family="Helvetica,sans-Serif" font-size="10.00">pixel::RGB::getG</text>
</a>
</g>
</g>
<!-- Node1&#45;&gt;Node3 -->
<g id="edge2" class="edge">
<title>Node1&#45;&gt;Node3</title>
<path fill="none" stroke="midnightblue" d="M92.13,-22.3C100.41,-21.07 109.15,-19.78 117.72,-18.5"/>
<polygon fill="midnightblue" stroke="midnightblue" points="118.3,-21.95 127.68,-17.02 117.27,-15.03 118.3,-21.95"/>
</g>
</g>
</svg>
