<?xml version="1.0" encoding="UTF-8" standalone="no"?>
<!DOCTYPE svg PUBLIC "-//W3C//DTD SVG 1.1//EN"
 "http://www.w3.org/Graphics/SVG/1.1/DTD/svg11.dtd">
<!-- Generated by graphviz version 2.43.0 (0)
 -->
<!-- Title: include/Pixel.cuh Pages: 1 -->
<svg width="561pt" height="252pt"
 viewBox="0.00 0.00 560.50 252.00" xmlns="http://www.w3.org/2000/svg" xmlns:xlink="http://www.w3.org/1999/xlink">
<g id="graph0" class="graph" transform="scale(1 1) rotate(0) translate(4 248)">
<title>include/Pixel.cuh</title>
<polygon fill="white" stroke="transparent" points="-4,4 -4,-248 556.5,-248 556.5,4 -4,4"/>
<!-- Node1 -->
<g id="node1" class="node">
<title>Node1</title>
<g id="a_node1"><a xlink:title="Wrapper class for pixels of different color formats.">
<polygon fill="#bfbfbf" stroke="black" points="235,-224.5 235,-243.5 333,-243.5 333,-224.5 235,-224.5"/>
<text text-anchor="middle" x="284" y="-231.5" font-family="Helvetica,sans-Serif" font-size="10.00">include/Pixel.cuh</text>
</a>
</g>
</g>
<!-- Node2 -->
<g id="node2" class="node">
<title>Node2</title>
<g id="a_node2"><a xlink:href="algos_8cu.html" target="_top" xlink:title=" ">
<polygon fill="white" stroke="black" points="0,-56.5 0,-75.5 74,-75.5 74,-56.5 0,-56.5"/>
<text text-anchor="middle" x="37" y="-63.5" font-family="Helvetica,sans-Serif" font-size="10.00">src/algos.cu</text>
</a>
</g>
</g>
<!-- Node1&#45;&gt;Node2 -->
<g id="edge1" class="edge">
<title>Node1&#45;&gt;Node2</title>
<path fill="none" stroke="midnightblue" d="M224.4,-231.41C157.57,-225.93 52.82,-205.36 9,-132 -2.34,-113.01 16.11,-88.59 28.06,-75.76"/>
<polygon fill="midnightblue" stroke="midnightblue" points="224.56,-234.93 234.79,-232.16 225.07,-227.95 224.56,-234.93"/>
</g>
<!-- Node3 -->
<g id="node3" class="node">
<title>Node3</title>
<g id="a_node3"><a xlink:href="ImageKernels_8cu.html" target="_top" xlink:title=" ">
<polygon fill="white" stroke="black" points="403.5,-56.5 403.5,-75.5 552.5,-75.5 552.5,-56.5 403.5,-56.5"/>
<text text-anchor="middle" x="478" y="-63.5" font-family="Helvetica,sans-Serif" font-size="10.00">src/Image/ImageKernels.cu</text>
</a>
</g>
</g>
<!-- Node1&#45;&gt;Node3 -->
<g id="edge2" class="edge">
<title>Node1&#45;&gt;Node3</title>
<path fill="none" stroke="midnightblue" d="M301.76,-217.8C341.55,-183.75 436.78,-102.27 467.94,-75.61"/>
<polygon fill="midnightblue" stroke="midnightblue" points="299.48,-215.15 294.16,-224.31 304.03,-220.47 299.48,-215.15"/>
</g>
<!-- Node4 -->
<g id="node4" class="node">
<title>Node4</title>
<g id="a_node4"><a xlink:href="Pixel_8cu.html" target="_top" xlink:title=" ">
<polygon fill="white" stroke="black" points="448.5,-168.5 448.5,-187.5 519.5,-187.5 519.5,-168.5 448.5,-168.5"/>
<text text-anchor="middle" x="484" y="-175.5" font-family="Helvetica,sans-Serif" font-size="10.00">src/Pixel.cu</text>
</a>
</g>
</g>
<!-- Node1&#45;&gt;Node4 -->
<g id="edge3" class="edge">
<title>Node1&#45;&gt;Node4</title>
<path fill="none" stroke="midnightblue" d="M325.37,-221.83C363.14,-211.63 418.14,-196.78 452.46,-187.52"/>
<polygon fill="midnightblue" stroke="midnightblue" points="324.43,-218.46 315.69,-224.44 326.26,-225.22 324.43,-218.46"/>
</g>
<!-- Node5 -->
<g id="node5" class="node">
<title>Node5</title>
<g id="a_node5"><a xlink:href="Image_8cuh.html" target="_top" xlink:title="Image processing classes for CUDA&#45;based operations.">
<polygon fill="white" stroke="black" points="214,-112.5 214,-131.5 354,-131.5 354,-112.5 214,-112.5"/>
<text text-anchor="middle" x="284" y="-119.5" font-family="Helvetica,sans-Serif" font-size="10.00">include/image/Image.cuh</text>
</a>
</g>
</g>
<!-- Node1&#45;&gt;Node5 -->
<g id="edge4" class="edge">
<title>Node1&#45;&gt;Node5</title>
<path fill="none" stroke="midnightblue" d="M284,-214.35C284,-190.25 284,-149.31 284,-131.59"/>
<polygon fill="midnightblue" stroke="midnightblue" points="280.5,-214.37 284,-224.37 287.5,-214.37 280.5,-214.37"/>
</g>
<!-- Node9 -->
<g id="node9" class="node">
<title>Node9</title>
<g id="a_node9"><a xlink:href="View_8cuh.html" target="_top" xlink:title="Device&#45;side view interface for image processing kernels.">
<polygon fill="white" stroke="black" points="122,-168.5 122,-187.5 254,-187.5 254,-168.5 122,-168.5"/>
<text text-anchor="middle" x="188" y="-175.5" font-family="Helvetica,sans-Serif" font-size="10.00">include/image/View.cuh</text>
</a>
</g>
</g>
<!-- Node1&#45;&gt;Node9 -->
<g id="edge11" class="edge">
<title>Node1&#45;&gt;Node9</title>
<path fill="none" stroke="midnightblue" d="M259.43,-219.18C241.76,-209.24 218.49,-196.15 203.39,-187.65"/>
<polygon fill="midnightblue" stroke="midnightblue" points="258.14,-222.47 268.58,-224.32 261.58,-216.37 258.14,-222.47"/>
</g>
<!-- Node5&#45;&gt;Node2 -->
<g id="edge5" class="edge">
<title>Node5&#45;&gt;Node2</title>
<path fill="none" stroke="midnightblue" d="M234.85,-110.26C187.59,-99.92 117.18,-84.53 74.34,-75.16"/>
<polygon fill="midnightblue" stroke="midnightblue" points="234.35,-113.73 244.86,-112.44 235.84,-106.89 234.35,-113.73"/>
</g>
<!-- Node5&#45;&gt;Node3 -->
<g id="edge7" class="edge">
<title>Node5&#45;&gt;Node3</title>
<path fill="none" stroke="midnightblue" d="M324.6,-109.7C361.22,-99.51 414.26,-84.74 447.4,-75.52"/>
<polygon fill="midnightblue" stroke="midnightblue" points="323.44,-106.39 314.74,-112.44 325.31,-113.13 323.44,-106.39"/>
</g>
<!-- Node6 -->
<g id="node6" class="node">
<title>Node6</title>
<g id="a_node6"><a xlink:href="Image_8cu.html" target="_top" xlink:title=" ">
<polygon fill="white" stroke="black" points="172.5,-0.5 172.5,-19.5 285.5,-19.5 285.5,-0.5 172.5,-0.5"/>
<text text-anchor="middle" x="229" y="-7.5" font-family="Helvetica,sans-Serif" font-size="10.00">src/Image/Image.cu</text>
</a>
</g>
</g>
<!-- Node5&#45;&gt;Node6 -->
<g id="edge6" class="edge">
<title>Node5&#45;&gt;Node6</title>
<path fill="none" stroke="midnightblue" d="M280.55,-102.23C277.61,-88.84 272.63,-70.67 265,-56 257.71,-41.98 245.7,-28.12 237.58,-19.57"/>
<polygon fill="midnightblue" stroke="midnightblue" points="277.15,-103.07 282.55,-112.18 284.01,-101.69 277.15,-103.07"/>
</g>
<!-- Node7 -->
<g id="node7" class="node">
<title>Node7</title>
<g id="a_node7"><a xlink:href="main_8cu.html" target="_top" xlink:title=" ">
<polygon fill="white" stroke="black" points="312.5,-56.5 312.5,-75.5 385.5,-75.5 385.5,-56.5 312.5,-56.5"/>
<text text-anchor="middle" x="349" y="-63.5" font-family="Helvetica,sans-Serif" font-size="10.00">src/main.cu</text>
</a>
</g>
</g>
<!-- Node5&#45;&gt;Node7 -->
<g id="edge8" class="edge">
<title>Node5&#45;&gt;Node7</title>
<path fill="none" stroke="midnightblue" d="M302.27,-105.82C313.92,-96.15 328.6,-83.95 338.37,-75.83"/>
<polygon fill="midnightblue" stroke="midnightblue" points="299.9,-103.24 294.44,-112.32 304.37,-108.63 299.9,-103.24"/>
</g>
<!-- Node8 -->
<g id="node8" class="node">
<title>Node8</title>
<g id="a_node8"><a xlink:href="ImageCuda_8cuh.html" target="_top" xlink:title=" ">
<polygon fill="white" stroke="black" points="92,-56.5 92,-75.5 256,-75.5 256,-56.5 92,-56.5"/>
<text text-anchor="middle" x="174" y="-63.5" font-family="Helvetica,sans-Serif" font-size="10.00">include/image/ImageCuda.cuh</text>
</a>
</g>
</g>
<!-- Node5&#45;&gt;Node8 -->
<g id="edge9" class="edge">
<title>Node5&#45;&gt;Node8</title>
<path fill="none" stroke="midnightblue" d="M257.24,-107.86C236.84,-97.85 209.33,-84.35 191.63,-75.65"/>
<polygon fill="midnightblue" stroke="midnightblue" points="255.81,-111.06 266.33,-112.32 258.89,-104.78 255.81,-111.06"/>
</g>
<!-- Node8&#45;&gt;Node6 -->
<g id="edge10" class="edge">
<title>Node8&#45;&gt;Node6</title>
<path fill="none" stroke="midnightblue" d="M190.29,-49C200.04,-39.43 212.05,-27.64 220.09,-19.75"/>
<polygon fill="midnightblue" stroke="midnightblue" points="187.77,-46.58 183.08,-56.08 192.67,-51.57 187.77,-46.58"/>
</g>
<!-- Node9&#45;&gt;Node2 -->
<g id="edge12" class="edge">
<title>Node9&#45;&gt;Node2</title>
<path fill="none" stroke="midnightblue" d="M175.64,-160.12C164.61,-145.94 147.39,-125.82 129,-112 107.68,-95.98 79.76,-83.28 60.29,-75.52"/>
<polygon fill="midnightblue" stroke="midnightblue" points="173.12,-162.6 181.94,-168.46 178.7,-158.38 173.12,-162.6"/>
</g>
<!-- Node9&#45;&gt;Node3 -->
<g id="edge13" class="edge">
<title>Node9&#45;&gt;Node3</title>
<path fill="none" stroke="midnightblue" d="M244.75,-166.37C279.6,-158.87 324.73,-147.42 363,-132 402.35,-116.14 444.88,-89.26 465.45,-75.57"/>
<polygon fill="midnightblue" stroke="midnightblue" points="243.81,-162.99 234.75,-168.47 245.25,-169.84 243.81,-162.99"/>
</g>
<!-- Node9&#45;&gt;Node5 -->
<g id="edge16" class="edge">
<title>Node9&#45;&gt;Node5</title>
<path fill="none" stroke="midnightblue" d="M212.57,-163.18C230.24,-153.24 253.51,-140.15 268.61,-131.65"/>
<polygon fill="midnightblue" stroke="midnightblue" points="210.42,-160.37 203.42,-168.32 213.86,-166.47 210.42,-160.37"/>
</g>
<!-- Node9&#45;&gt;Node8 -->
<g id="edge17" class="edge">
<title>Node9&#45;&gt;Node8</title>
<path fill="none" stroke="midnightblue" d="M185.63,-158.35C182.56,-134.25 177.35,-93.31 175.09,-75.59"/>
<polygon fill="midnightblue" stroke="midnightblue" points="182.17,-158.89 186.9,-168.37 189.11,-158.01 182.17,-158.89"/>
</g>
<!-- Node10 -->
<g id="node10" class="node">
<title>Node10</title>
<g id="a_node10"><a xlink:href="algos_8cuh.html" target="_top" xlink:title="CUDA kernel declarations for image processing algorithms.">
<polygon fill="white" stroke="black" points="18.5,-112.5 18.5,-131.5 119.5,-131.5 119.5,-112.5 18.5,-112.5"/>
<text text-anchor="middle" x="69" y="-119.5" font-family="Helvetica,sans-Serif" font-size="10.00">include/algos.cuh</text>
</a>
</g>
</g>
<!-- Node9&#45;&gt;Node10 -->
<g id="edge14" class="edge">
<title>Node9&#45;&gt;Node10</title>
<path fill="none" stroke="midnightblue" d="M159.86,-164.23C137.6,-154.13 107.14,-140.31 87.77,-131.52"/>
<polygon fill="midnightblue" stroke="midnightblue" points="158.59,-167.5 169.14,-168.44 161.48,-161.12 158.59,-167.5"/>
</g>
<!-- Node10&#45;&gt;Node2 -->
<g id="edge15" class="edge">
<title>Node10&#45;&gt;Node2</title>
<path fill="none" stroke="midnightblue" d="M58.5,-103.27C53.03,-94.05 46.58,-83.17 42.19,-75.75"/>
<polygon fill="midnightblue" stroke="midnightblue" points="55.61,-105.26 63.72,-112.08 61.63,-101.7 55.61,-105.26"/>
</g>
</g>
</svg>
