<?xml version="1.0" encoding="UTF-8" standalone="no"?>
<!DOCTYPE svg PUBLIC "-//W3C//DTD SVG 1.1//EN"
 "http://www.w3.org/Graphics/SVG/1.1/DTD/svg11.dtd">
<!-- Generated by graphviz version 2.43.0 (0)
 -->
<!-- Title: include/image/View.cuh Pages: 1 -->
<svg width="140pt" height="140pt"
 viewBox="0.00 0.00 140.00 140.00" xmlns="http://www.w3.org/2000/svg" xmlns:xlink="http://www.w3.org/1999/xlink">
<g id="graph0" class="graph" transform="scale(1 1) rotate(0) translate(4 136)">
<title>include/image/View.cuh</title>
<polygon fill="white" stroke="transparent" points="-4,4 -4,-136 136,-136 136,4 -4,4"/>
<!-- Node1 -->
<g id="node1" class="node">
<title>Node1</title>
<g id="a_node1"><a xlink:title="Device&#45;side view interface for image processing kernels.">
<polygon fill="#bfbfbf" stroke="black" points="0,-112.5 0,-131.5 132,-131.5 132,-112.5 0,-112.5"/>
<text text-anchor="middle" x="66" y="-119.5" font-family="Helvetica,sans-Serif" font-size="10.00">include/image/View.cuh</text>
</a>
</g>
</g>
<!-- Node2 -->
<g id="node2" class="node">
<title>Node2</title>
<g id="a_node2"><a xlink:href="Pixel_8cuh.html" target="_top" xlink:title="Wrapper class for pixels of different color formats.">
<polygon fill="white" stroke="black" points="36,-56.5 36,-75.5 96,-75.5 96,-56.5 36,-56.5"/>
<text text-anchor="middle" x="66" y="-63.5" font-family="Helvetica,sans-Serif" font-size="10.00">Pixel.cuh</text>
</a>
</g>
</g>
<!-- Node1&#45;&gt;Node2 -->
<g id="edge1" class="edge">
<title>Node1&#45;&gt;Node2</title>
<path fill="none" stroke="midnightblue" d="M66,-112.08C66,-105.01 66,-94.86 66,-85.99"/>
<polygon fill="midnightblue" stroke="midnightblue" points="69.5,-85.75 66,-75.75 62.5,-85.75 69.5,-85.75"/>
</g>
<!-- Node3 -->
<g id="node3" class="node">
<title>Node3</title>
<g id="a_node3"><a xlink:title=" ">
<polygon fill="white" stroke="#bfbfbf" points="41,-0.5 41,-19.5 91,-19.5 91,-0.5 41,-0.5"/>
<text text-anchor="middle" x="66" y="-7.5" font-family="Helvetica,sans-Serif" font-size="10.00">stdio.h</text>
</a>
</g>
</g>
<!-- Node2&#45;&gt;Node3 -->
<g id="edge2" class="edge">
<title>Node2&#45;&gt;Node3</title>
<path fill="none" stroke="midnightblue" d="M66,-56.08C66,-49.01 66,-38.86 66,-29.99"/>
<polygon fill="midnightblue" stroke="midnightblue" points="69.5,-29.75 66,-19.75 62.5,-29.75 69.5,-29.75"/>
</g>
</g>
</svg>
