<?xml version="1.0" encoding="UTF-8" standalone="no"?>
<!DOCTYPE svg PUBLIC "-//W3C//DTD SVG 1.1//EN"
 "http://www.w3.org/Graphics/SVG/1.1/DTD/svg11.dtd">
<!-- Generated by graphviz version 2.43.0 (0)
 -->
<!-- Title: include/image/View.cuh Pages: 1 -->
<svg width="571pt" height="196pt"
 viewBox="0.00 0.00 570.50 196.00" xmlns="http://www.w3.org/2000/svg" xmlns:xlink="http://www.w3.org/1999/xlink">
<g id="graph0" class="graph" transform="scale(1 1) rotate(0) translate(4 192)">
<title>include/image/View.cuh</title>
<polygon fill="white" stroke="transparent" points="-4,4 -4,-192 566.5,-192 566.5,4 -4,4"/>
<!-- Node1 -->
<g id="node1" class="node">
<title>Node1</title>
<g id="a_node1"><a xlink:title="Device&#45;side view interface for image processing kernels.">
<polygon fill="#bfbfbf" stroke="black" points="110.5,-168.5 110.5,-187.5 242.5,-187.5 242.5,-168.5 110.5,-168.5"/>
<text text-anchor="middle" x="176.5" y="-175.5" font-family="Helvetica,sans-Serif" font-size="10.00">include/image/View.cuh</text>
</a>
</g>
</g>
<!-- Node2 -->
<g id="node2" class="node">
<title>Node2</title>
<g id="a_node2"><a xlink:href="algos_8cu.html" target="_top" xlink:title=" ">
<polygon fill="white" stroke="black" points="9.5,-56.5 9.5,-75.5 83.5,-75.5 83.5,-56.5 9.5,-56.5"/>
<text text-anchor="middle" x="46.5" y="-63.5" font-family="Helvetica,sans-Serif" font-size="10.00">src/algos.cu</text>
</a>
</g>
</g>
<!-- Node1&#45;&gt;Node2 -->
<g id="edge1" class="edge">
<title>Node1&#45;&gt;Node2</title>
<path fill="none" stroke="midnightblue" d="M161.28,-160.93C148.09,-147.33 128.23,-127.62 109.5,-112 93.19,-98.4 73.02,-84.44 59.96,-75.75"/>
<polygon fill="midnightblue" stroke="midnightblue" points="158.76,-163.37 168.21,-168.16 163.81,-158.52 158.76,-163.37"/>
</g>
<!-- Node3 -->
<g id="node3" class="node">
<title>Node3</title>
<g id="a_node3"><a xlink:href="ImageKernels_8cu.html" target="_top" xlink:title=" ">
<polygon fill="white" stroke="black" points="102,-56.5 102,-75.5 251,-75.5 251,-56.5 102,-56.5"/>
<text text-anchor="middle" x="176.5" y="-63.5" font-family="Helvetica,sans-Serif" font-size="10.00">src/Image/ImageKernels.cu</text>
</a>
</g>
</g>
<!-- Node1&#45;&gt;Node3 -->
<g id="edge2" class="edge">
<title>Node1&#45;&gt;Node3</title>
<path fill="none" stroke="midnightblue" d="M176.5,-158.35C176.5,-134.25 176.5,-93.31 176.5,-75.59"/>
<polygon fill="midnightblue" stroke="midnightblue" points="173,-158.37 176.5,-168.37 180,-158.37 173,-158.37"/>
</g>
<!-- Node4 -->
<g id="node4" class="node">
<title>Node4</title>
<g id="a_node4"><a xlink:href="algos_8cuh.html" target="_top" xlink:title="CUDA kernel declarations for image processing algorithms.">
<polygon fill="white" stroke="black" points="0,-112.5 0,-131.5 101,-131.5 101,-112.5 0,-112.5"/>
<text text-anchor="middle" x="50.5" y="-119.5" font-family="Helvetica,sans-Serif" font-size="10.00">include/algos.cuh</text>
</a>
</g>
</g>
<!-- Node1&#45;&gt;Node4 -->
<g id="edge3" class="edge">
<title>Node1&#45;&gt;Node4</title>
<path fill="none" stroke="midnightblue" d="M147.34,-164.5C123.72,-154.38 91.07,-140.39 70.37,-131.52"/>
<polygon fill="midnightblue" stroke="midnightblue" points="145.96,-167.72 156.53,-168.44 148.72,-161.29 145.96,-167.72"/>
</g>
<!-- Node5 -->
<g id="node5" class="node">
<title>Node5</title>
<g id="a_node5"><a xlink:href="Image_8cuh.html" target="_top" xlink:title="Image processing classes for CUDA&#45;based operations.">
<polygon fill="white" stroke="black" points="219.5,-112.5 219.5,-131.5 359.5,-131.5 359.5,-112.5 219.5,-112.5"/>
<text text-anchor="middle" x="289.5" y="-119.5" font-family="Helvetica,sans-Serif" font-size="10.00">include/image/Image.cuh</text>
</a>
</g>
</g>
<!-- Node1&#45;&gt;Node5 -->
<g id="edge5" class="edge">
<title>Node1&#45;&gt;Node5</title>
<path fill="none" stroke="midnightblue" d="M203.5,-164.1C224.61,-154.01 253.36,-140.27 271.68,-131.52"/>
<polygon fill="midnightblue" stroke="midnightblue" points="201.92,-160.97 194.41,-168.44 204.94,-167.29 201.92,-160.97"/>
</g>
<!-- Node8 -->
<g id="node8" class="node">
<title>Node8</title>
<g id="a_node8"><a xlink:href="ImageCuda_8cuh.html" target="_top" xlink:title=" ">
<polygon fill="white" stroke="black" points="398.5,-56.5 398.5,-75.5 562.5,-75.5 562.5,-56.5 398.5,-56.5"/>
<text text-anchor="middle" x="480.5" y="-63.5" font-family="Helvetica,sans-Serif" font-size="10.00">include/image/ImageCuda.cuh</text>
</a>
</g>
</g>
<!-- Node1&#45;&gt;Node8 -->
<g id="edge12" class="edge">
<title>Node1&#45;&gt;Node8</title>
<path fill="none" stroke="midnightblue" d="M241.9,-166.64C279.73,-159.43 327.75,-148.18 368.5,-132 407.15,-116.65 448.43,-89.54 468.35,-75.68"/>
<polygon fill="midnightblue" stroke="midnightblue" points="241.21,-163.21 232.02,-168.48 242.49,-170.09 241.21,-163.21"/>
</g>
<!-- Node4&#45;&gt;Node2 -->
<g id="edge4" class="edge">
<title>Node4&#45;&gt;Node2</title>
<path fill="none" stroke="midnightblue" d="M49.1,-102.1C48.44,-93.14 47.67,-82.86 47.15,-75.75"/>
<polygon fill="midnightblue" stroke="midnightblue" points="45.61,-102.37 49.84,-112.08 52.59,-101.85 45.61,-102.37"/>
</g>
<!-- Node5&#45;&gt;Node2 -->
<g id="edge6" class="edge">
<title>Node5&#45;&gt;Node2</title>
<path fill="none" stroke="midnightblue" d="M241.18,-110.26C194.82,-99.96 125.82,-84.63 83.63,-75.25"/>
<polygon fill="midnightblue" stroke="midnightblue" points="240.47,-113.69 251,-112.44 241.99,-106.86 240.47,-113.69"/>
</g>
<!-- Node5&#45;&gt;Node3 -->
<g id="edge8" class="edge">
<title>Node5&#45;&gt;Node3</title>
<path fill="none" stroke="midnightblue" d="M262.5,-108.1C241.39,-98.01 212.64,-84.27 194.32,-75.52"/>
<polygon fill="midnightblue" stroke="midnightblue" points="261.06,-111.29 271.59,-112.44 264.08,-104.97 261.06,-111.29"/>
</g>
<!-- Node6 -->
<g id="node6" class="node">
<title>Node6</title>
<g id="a_node6"><a xlink:href="Image_8cu.html" target="_top" xlink:title=" ">
<polygon fill="white" stroke="black" points="369,-0.5 369,-19.5 482,-19.5 482,-0.5 369,-0.5"/>
<text text-anchor="middle" x="425.5" y="-7.5" font-family="Helvetica,sans-Serif" font-size="10.00">src/Image/Image.cu</text>
</a>
</g>
</g>
<!-- Node5&#45;&gt;Node6 -->
<g id="edge7" class="edge">
<title>Node5&#45;&gt;Node6</title>
<path fill="none" stroke="midnightblue" d="M310.28,-106.29C322.22,-97.69 337.4,-86.48 350.5,-76 374.72,-56.62 401.96,-32.36 416,-19.66"/>
<polygon fill="midnightblue" stroke="midnightblue" points="307.96,-103.65 301.86,-112.31 312.03,-109.34 307.96,-103.65"/>
</g>
<!-- Node7 -->
<g id="node7" class="node">
<title>Node7</title>
<g id="a_node7"><a xlink:href="main_8cu.html" target="_top" xlink:title=" ">
<polygon fill="white" stroke="black" points="269,-56.5 269,-75.5 342,-75.5 342,-56.5 269,-56.5"/>
<text text-anchor="middle" x="305.5" y="-63.5" font-family="Helvetica,sans-Serif" font-size="10.00">src/main.cu</text>
</a>
</g>
</g>
<!-- Node5&#45;&gt;Node7 -->
<g id="edge9" class="edge">
<title>Node5&#45;&gt;Node7</title>
<path fill="none" stroke="midnightblue" d="M295.01,-102.4C297.69,-93.36 300.78,-82.94 302.91,-75.75"/>
<polygon fill="midnightblue" stroke="midnightblue" points="291.63,-101.5 292.14,-112.08 298.34,-103.49 291.63,-101.5"/>
</g>
<!-- Node5&#45;&gt;Node8 -->
<g id="edge10" class="edge">
<title>Node5&#45;&gt;Node8</title>
<path fill="none" stroke="midnightblue" d="M329.47,-109.7C365.52,-99.51 417.74,-84.74 450.38,-75.52"/>
<polygon fill="midnightblue" stroke="midnightblue" points="328.44,-106.35 319.76,-112.44 330.34,-113.09 328.44,-106.35"/>
</g>
<!-- Node8&#45;&gt;Node6 -->
<g id="edge11" class="edge">
<title>Node8&#45;&gt;Node6</title>
<path fill="none" stroke="midnightblue" d="M464.21,-49C454.46,-39.43 442.45,-27.64 434.41,-19.75"/>
<polygon fill="midnightblue" stroke="midnightblue" points="461.83,-51.57 471.42,-56.08 466.73,-46.58 461.83,-51.57"/>
</g>
</g>
</svg>
